<?xml version="1.0" encoding="utf-8"?>
<!-- Generator: Adobe Illustrator 17.0.0, SVG Export Plug-In . SVG Version: 6.00 Build 0)  -->
<!DOCTYPE svg PUBLIC "-//W3C//DTD SVG 1.1//EN" "http://www.w3.org/Graphics/SVG/1.1/DTD/svg11.dtd">
<svg version="1.1" id="Calque_1" xmlns="http://www.w3.org/2000/svg" xmlns:xlink="http://www.w3.org/1999/xlink" x="0px" y="0px"
	 width="163.491px" height="80.946px" viewBox="0 0 163.491 80.946" enable-background="new 0 0 163.491 80.946"
	 xml:space="preserve">
<g>
	<path fill="#FDCA05" d="M54.629,59.892c-1.366,0-2.823,0.493-3.786,1.366v10.193h-0.672V59.445h0.672v0.985
		c1.053-0.783,2.464-1.209,3.786-1.209V59.892z"/>
	<path fill="#FDCA05" d="M61.756,59.22c3.428,0,6.229,2.8,6.229,6.228c0,3.428-2.8,6.229-6.229,6.229
		c-3.428,0-6.228-2.801-6.228-6.229C55.529,62.02,58.329,59.22,61.756,59.22z M61.756,71.004c3.07,0,5.556-2.487,5.556-5.556
		s-2.486-5.555-5.556-5.555c-3.069,0-5.555,2.486-5.555,5.555C56.201,68.517,58.687,71.004,61.756,71.004z"/>
	<path fill="#FDCA05" d="M76.461,59.22c3.428,0,6.228,2.8,6.228,6.228c0,3.428-2.8,6.229-6.228,6.229
		c-3.428,0-6.229-2.801-6.229-6.229C70.232,62.02,73.032,59.22,76.461,59.22z M76.461,71.004c3.069,0,5.555-2.487,5.555-5.556
		s-2.486-5.555-5.555-5.555c-3.07,0-5.556,2.486-5.556,5.555C70.904,68.517,73.391,71.004,76.461,71.004z"/>
	<path fill="#FDCA05" d="M85.967,59.445v0.985c0.918-0.762,2.038-1.209,3.428-1.209c1.837,0,3.249,1.008,3.809,2.733
		c0.56-1.725,1.926-2.733,3.763-2.733c2.33,0,4.144,1.725,4.144,4.592v7.639h-0.672v-7.639c0-0.874-0.515-3.92-3.472-3.92
		c-2.464,0-3.428,2.217-3.428,3.853v7.706h-0.672v-7.706c0-1.636-1.008-3.853-3.472-3.853c-1.366,0-2.554,0.56-3.428,1.389v10.17
		h-0.672V59.445H85.967z"/>
</g>
<g>
	<path fill="#FDCA05" d="M22.437,55.52c-1.11,0-2.22,0.434-2.22,1.592c0,0.821,0.821,1.206,1.592,1.206
		c0.821,0,1.786-0.531,2.702-2.123c0.097-0.048,0.29-0.048,0.531-0.048c0.193,0,0.386,0.048,0.531,0.048h0.242l-1.206-0.289
		C23.885,55.761,23.161,55.568,22.437,55.52z"/>
	<path fill="#FDCA05" d="M37.402,32.712v-0.793h-0.063c-0.527-4.047-3.979-7.176-8.17-7.176c-2.986,0-3.862,0.618-4.944,1.062
		s-3.246,1.71-5.19,1.71c-4.822,0-8.731-3.909-8.731-8.731c0-4.297,3.104-7.866,7.192-8.593c-0.019-0.097-0.03-2.616-0.03-2.719
		c0-0.866,0.702-1.569,1.569-1.569c0.866,0,1.569,0.702,1.569,1.569c0,0.102-0.011,2.622-0.03,2.719
		c3.47,0.617,6.224,3.286,6.979,6.706l0.202,0.565c0.28,2.272,2.537,4.208,4.884,4.208c2.535,0,4.59-2.447,4.598-4.98l-0.028-0.375
		C36.112,7.174,28.33,0.088,18.893,0.088S0.186,5.681,0.186,16.429c0,8.736,0.023,15.491,0.023,15.491v12.511v14.918
		c0,0-0.001,1.955-0.001,2.964c0,10.271,8.326,18.597,18.597,18.597c9.809,0,17.839-7.597,18.541-17.227h0.056V33.269
		c0.003-0.093,0.014-0.185,0.014-0.279C37.416,32.896,37.405,32.805,37.402,32.712z M35.417,48.283c0-0.011-0.003-0.023-0.009-0.035
		c-0.132,0.269-1.013,5.487-5.009,5.487c-0.724,0-1.4-0.193-1.978-0.917c-0.193,0.531-0.483,0.965-0.676,1.399
		c2.316,0.531,4.198,0.868,5.886,0.868c0.338,0,0.579,0,0.724-0.048c0,1.303-0.82,2.654-2.364,2.654
		c-1.351,0-3.474-0.723-5.404-1.302c-1.302,2.267-2.799,2.991-4.342,2.991c-0.483,0-2.992-0.048-2.992-2.509
		c0-2.509,3.04-2.895,3.812-2.895c0.531,0,0.917,0.048,1.351,0.048c1.303,0,1.255-0.627,1.641-1.592
		c-0.723,0.724-1.641,1.303-2.654,1.303c-1.158,0-2.509-1.206-2.509-3.522c0-0.019,0.002-0.04,0.002-0.059
		c-0.763,1.58-2.1,3.581-3.864,3.581c-1.206,0-2.509-1.206-2.509-3.522c0-1.689,0.627-3.715,1.255-5.452
		c-1.399,2.509-3.86,7.43-3.956,7.913c-0.338,1.013-1.158,1.11-1.4,1.11c-1.544,0-1.978-1.255-1.978-3.184
		c0-1.351,0.29-2.847,0.724-4.246c-1.93,4.101-2.992,7.382-4.295,7.382c-1.496,0-1.93-1.061-1.93-3.039
		c0-4.825,3.282-10.518,3.474-10.518c0.531,0,1.206,0.29,1.834,0.627c0.338,0.145,0.723,0.338,1.109,0.579
		c-1.013,2.026-4.197,6.658-4.198,9.843c3.04-5.549,5.163-8.781,5.935-9.553c0.193-0.338,0.386-0.627,0.531-0.965
		c0.29-0.531,0.482-1.013,0.627-1.447c0.145,0,2.22,1.302,2.22,2.412c0,1.834-3.619,5.741-3.764,9.602
		c5.404-9.746,6.9-9.312,7.527-12.014c0.048,0,2.171,1.302,2.171,2.316c0,1.834-3.619,6.272-3.619,9.457
		c0,0.724,0.097,1.255,0.627,1.255c0.917,0,2.364-1.255,3.667-4.198c0,0,0.027-0.007,0.058-0.024
		c0.517-2.51,1.713-5.169,2.308-6.248l1.062-2.509c0.193,0,2.268,1.254,2.268,2.364c0,1.4-3.619,6.224-3.619,9.36
		c0,0.82,0.144,1.447,0.917,1.447c1.11,0,2.798-1.496,4.101-5.597c1.158-3.859,1.785-4.439,1.93-5.259
		c0.917,0.435,2.171,1.255,2.171,2.557c0,0.338-0.097,0.724-0.338,1.158c-1.158,2.075-2.075,3.57-2.075,5.742
		c0,0.772,0.096,1.206,0.82,1.206c1.11,0,2.943-1.255,4.246-4.198c0,0,0.048,0,0.097-0.048c0.048,0,0.144,0,0.193,0.048
		c0.111,0.074,0.164,0.119,0.184,0.158c0.004-0.007,0.009-0.013,0.009-0.013L35.417,48.283L35.417,48.283z"/>
</g>
<g>
	<path fill="#FFFFFF" d="M55.728,28.868c0.006,0,0.012-0.001,0.018-0.001c0.004,0,0.008,0.001,0.012,0.001
		c1.242,0,2.041-1.195,2.041-2.341c0-0.897-0.45-1.694-1.497-1.694c-0.006,0-0.012,0.001-0.018,0.001
		c-0.004,0-0.007-0.001-0.012-0.001c-1.343,0-2.041,1.345-2.041,2.441C54.231,28.121,54.681,28.868,55.728,28.868z"/>
	<path fill="#FFFFFF" d="M119.14,43.22c-1.745,4.486-4.187,7.726-6.63,10.416c1.546-8.62,3.388-18.937,3.985-21.128h-2.589
		l-0.601,2.79c-0.296-1.844-1.144-3.09-2.84-3.09c-3.243,0-6.043,5.499-7.345,11.183c-2.166,5.647-4.187,9.947-5.818,9.947
		c-0.698,0-1.193-0.499-1.193-1.844c0-4.086,3.489-11.812,3.489-15.997c0-2.043-0.949-3.189-2.544-3.189
		c-2.99,0-4.833,3.39-6.626,7.127l1.193-6.926h-2.686c-0.334,2.732-0.995,6.751-1.7,10.84c-2.418,6.398-4.251,9.99-5.782,9.99
		c-0.499,0-0.897-0.55-0.897-2.043c0-4.088,1.546-11.162,3.137-18.787h-2.637c-0.633,3.075-1.575,7.099-2.222,10.912
		c-2.406,6.255-4.327,9.966-6.005,9.966c-0.945,0-1.493-1.294-1.493-4.185c0-1.844,0.199-4.185,0.499-6.778
		c0,0,0.376-3.089,1.294-8.32h1.246h1.193h2.094l0.3-1.595h-1.793h-1.193h-1.599c0.28-1.628,0.487-2.951,0.657-4.016l-2.153-0.19
		c-0.305,1.15-0.619,2.536-0.947,4.206h-1.891l-0.3,1.595h1.895c0,0.148-0.053,0.248-0.053,0.398
		c-0.563,3.143-0.99,6.087-1.253,8.733c-2.44,6.37-4.382,10.153-6.077,10.153c-0.945,0-1.493-1.294-1.493-4.185
		c0-1.844,0.199-4.185,0.499-6.778c0,0,0.376-3.089,1.294-8.32h1.246h1.193h2.094l0.3-1.595h-1.793h-1.193h-1.599
		c0.28-1.628,0.487-2.951,0.657-4.016l-2.153-0.19c-0.305,1.15-0.619,2.536-0.947,4.206h-1.891l-0.3,1.595h1.895
		c0,0.148-0.053,0.248-0.053,0.398c-0.563,3.14-0.989,6.082-1.252,8.727c-2.441,6.475-4.283,10.111-5.824,10.111
		c-0.503,0-0.901-0.55-0.901-2.043c0-4.088,1.546-11.162,3.141-18.787h-2.641c-0.632,3.069-1.571,7.081-2.218,10.887
		c-2.008,5.167-5.494,7.906-8.153,8.447c0.3-2.443,0.698-5.033,1.197-7.724c2.045-3.589,8.87-17.592,8.87-25.415
		c0-1.895-0.998-2.942-2.24-2.942c-1.1,0-2.443,0.998-3.291,3.09c-2.69,6.727-7.673,31.146-7.673,41.96
		c0,4.934,1.745,5.979,3.587,5.979c2.289,0,4.033-2.94,4.033-6.379c0-2.54-0.994-5.38-3.486-7.375
		c2.538-0.872,4.759-3.106,6.689-6.466c-0.159,1.334-0.258,2.598-0.258,3.725c0,3.041,0.747,5.184,2.544,5.184
		c2.692,0,4.352-3.48,6.366-8.701c-0.011,0.26-0.026,0.525-0.032,0.777c0,4.934,0.649,8.024,2.938,8.024
		c2.393,0,4.254-2.883,6.673-8.911c-0.014,0.298-0.029,0.6-0.037,0.887c0,4.934,0.649,8.024,2.938,8.024
		c2.26,0,4.047-2.575,6.277-7.941c-0.089,0.94-0.144,1.837-0.144,2.658c0,3.041,0.747,5.184,2.544,5.184
		c2.208,0,3.722-2.343,5.306-6.067c-0.732,2.751-1.087,5.244-1.167,5.817h2.69l1.846-9.866c1.842-6.529,4.833-11.162,6.476-11.162
		c0.795,0,1.144,0.647,1.144,1.842c0,3.189-3.538,11.264-3.538,15.898c0,2.293,1.201,3.538,2.84,3.538
		c2.439,0,4.442-3.406,6.154-7.471c-0.043,0.58-0.067,1.147-0.067,1.691c0,3.437,0.901,5.729,2.994,5.729
		c2.39,0,4.183-2.889,5.632-6.577c-0.45,2.542-0.852,5.283-1.347,7.774c-3.392,3.439-6.48,6.379-6.48,10.215
		c0,2.242,1.246,3.538,2.99,3.538c4.139,0,4.885-8.271,6.03-14.65c2.792-2.891,5.782-6.529,7.872-11.96
		C120.086,43.469,119.489,43.22,119.14,43.22z M51.285,17.606c0.402,0,0.548,0.4,0.548,1.146c0,5.482-4.585,16.843-6.727,21.428
		C47.349,28.221,49.942,17.606,51.285,17.606z M46.002,60.761c0,2.493-1.043,4.536-2.292,4.536c-0.998,0-1.445-1.595-1.445-4.086
		c0-1.944,0.3-4.536,0.601-7.326C45.154,55.729,46.002,58.419,46.002,60.761z M107.974,65.995c-0.296,1.743-0.893,2.79-1.842,2.79
		c-0.698,0-1.294-0.598-1.294-1.944c0-3.09,1.992-5.581,4.435-8.123L107.974,65.995z M106.33,53.238
		c-1.043,0-1.493-1.446-1.493-3.538c0-5.533,2.99-15.498,5.729-15.498c1.449,0,2.041,1.842,2.041,4.035
		c0,1.047-0.195,2.094-0.349,3.141C110.968,47.206,108.424,53.238,106.33,53.238z"/>
	<path fill="#FFFFFF" d="M83.279,28.868c1.242,0,2.041-1.195,2.041-2.341c0-0.897-0.45-1.694-1.497-1.694
		c-1.343,0-2.041,1.345-2.041,2.441C81.781,28.121,82.232,28.868,83.279,28.868z"/>
</g>
<g>
	<path fill="#FDCA05" d="M123.852,21.735v7.22h-3.816V8.444h6.681c1.371,0,2.559,0.161,3.561,0.482
		c1.002,0.322,1.83,0.771,2.482,1.348c0.652,0.577,1.135,1.267,1.447,2.071c0.312,0.804,0.468,1.683,0.468,2.638
		c0,0.993-0.166,1.903-0.497,2.731c-0.331,0.828-0.828,1.539-1.489,2.135c-0.662,0.596-1.49,1.059-2.482,1.39
		c-0.993,0.331-2.156,0.496-3.49,0.496H123.852z M123.852,18.756h2.865c0.7,0,1.31-0.087,1.83-0.263
		c0.52-0.175,0.951-0.426,1.291-0.752c0.341-0.326,0.596-0.723,0.766-1.192c0.17-0.468,0.256-0.99,0.256-1.567
		c0-0.548-0.085-1.045-0.256-1.489c-0.17-0.445-0.425-0.823-0.766-1.135c-0.34-0.312-0.771-0.551-1.291-0.717
		c-0.52-0.165-1.13-0.248-1.83-0.248h-2.865V18.756z"/>
	<path fill="#FDCA05" d="M137.441,28.955V14.402h2.057c0.359,0,0.61,0.066,0.751,0.198c0.142,0.133,0.237,0.36,0.284,0.681
		l0.213,1.759c0.52-0.898,1.13-1.608,1.83-2.128c0.7-0.52,1.484-0.78,2.355-0.78c0.718,0,1.314,0.166,1.787,0.496l-0.454,2.624
		c-0.028,0.17-0.09,0.291-0.184,0.362c-0.095,0.071-0.222,0.107-0.383,0.107c-0.142,0-0.336-0.033-0.582-0.099
		s-0.572-0.099-0.979-0.099c-0.729,0-1.353,0.201-1.872,0.603c-0.52,0.402-0.96,0.991-1.319,1.766v9.064H137.441z"/>
	<path fill="#FDCA05" d="M155.243,14.175c1.087,0,2.073,0.175,2.957,0.525c0.884,0.35,1.638,0.846,2.262,1.489
		c0.624,0.643,1.107,1.428,1.447,2.355c0.341,0.927,0.51,1.963,0.51,3.107c0,1.154-0.17,2.194-0.51,3.121
		c-0.34,0.927-0.823,1.716-1.447,2.369c-0.624,0.652-1.378,1.154-2.262,1.504c-0.884,0.35-1.87,0.525-2.957,0.525
		c-1.088,0-2.076-0.175-2.965-0.525s-1.648-0.851-2.277-1.504c-0.629-0.652-1.116-1.442-1.461-2.369
		c-0.346-0.927-0.518-1.967-0.518-3.121c0-1.144,0.172-2.18,0.518-3.107c0.345-0.926,0.832-1.711,1.461-2.355
		c0.629-0.643,1.388-1.139,2.277-1.489C153.167,14.35,154.155,14.175,155.243,14.175z M155.243,26.473
		c1.21,0,2.106-0.407,2.688-1.22c0.581-0.813,0.872-2.004,0.872-3.574c0-1.57-0.291-2.766-0.872-3.589
		c-0.582-0.823-1.478-1.234-2.688-1.234c-1.229,0-2.137,0.414-2.724,1.241c-0.586,0.828-0.879,2.021-0.879,3.582
		c0,1.56,0.293,2.749,0.879,3.567C153.106,26.064,154.014,26.473,155.243,26.473z"/>
</g>
</svg>
