<?xml version="1.0" standalone="no"?>
<!DOCTYPE svg PUBLIC "-//W3C//DTD SVG 1.1//EN" "http://www.w3.org/Graphics/SVG/1.1/DTD/svg11.dtd" >
<svg xmlns="http://www.w3.org/2000/svg" xmlns:xlink="http://www.w3.org/1999/xlink" version="1.1">
<metadata>
Created by FontForge 20161116 at Sat Feb 19 13:06:04 2005
 By Jimmy Wärting
(c)2004, Copyleft by Yeah Noah. All lefts reversed.
</metadata>
<defs>
<font id="Existence-Light" horiz-adv-x="170" >
  <font-face 
    font-family="Existence Light"
    font-weight="300"
    font-stretch="normal"
    units-per-em="1000"
    panose-1="2 11 2 0 0 2 0 2 0 4"
    ascent="800"
    descent="-200"
    x-height="536"
    cap-height="700"
    bbox="-248 -293 1134 1098"
    underline-thickness="50"
    underline-position="-100"
    stemh="30"
    stemv="30"
    unicode-range="U+0020-F7FF"
  />
<missing-glyph horiz-adv-x="400" 
 />
    <glyph glyph-name="f_b" unicode="fb" horiz-adv-x="791" 
d="M325 0v832c-21 8 -45 13 -78 13c-82 0 -151 -65 -151 -174v-135h158v-30h-158v-799h-30v799h-45v30h45v135c0 127 83 204 181 204c44 0 79 -8 108 -24v-311c17 1 31 2 46 2c227 0 340 -135 340 -273c0 -137 -113 -272 -339 -272c-22 0 -51 1 -77 3zM402 27
c206 0 309 120 309 242s-103 243 -310 243c-14 0 -30 -1 -46 -2v-482c17 -1 33 -1 47 -1z" />
    <glyph glyph-name="f_h" unicode="fh" horiz-adv-x="802" 
d="M325 0v832c-21 8 -45 13 -78 13c-82 0 -151 -65 -151 -174v-135h158v-30h-158v-799h-30v799h-45v30h45v135c0 127 83 204 181 204c44 0 79 -8 108 -24v-358c47 34 108 53 167 53c88 0 173 -42 207 -134c9 -23 13 -45 13 -70v-342h-30v340c0 23 -3 40 -11 61
c-29 79 -103 115 -180 115c-61 0 -122 -22 -166 -61v-455h-30z" />
    <glyph glyph-name="f_j" unicode="fj" horiz-adv-x="429" 
d="M21 506v30h45v115c0 130 67 203 152 203s143 -82 143 -144h-30c0 48 -48 114 -113 114s-122 -58 -122 -173v-115h158v-30h-158v-655h-30v655h-45zM331 536h30v-626c0 -130 -67 -203 -152 -203c-43 0 -99 30 -117 67l26 14c14 -28 59 -51 91 -51c65 0 122 58 122 173v626z
" />
    <glyph glyph-name="f_k" unicode="fk" horiz-adv-x="829" 
d="M779 13l-18 -24l-341 269l-65 -48v-210h-30v832c-21 8 -45 13 -78 13c-82 0 -151 -65 -151 -174v-135h158v-30h-158v-799h-30v799h-45v30h45v135c0 127 83 204 181 204c44 0 79 -8 108 -24v-603l406 299l18 -24l-334 -247z" />
    <glyph glyph-name="fi" unicode="fi" horiz-adv-x="429" 
d="M21 506v30h45v115c0 130 66 203 151 203s142 -82 142 -144h-30c0 48 -47 114 -112 114s-121 -58 -121 -173v-115h158v-30h-158v-799h-30v799h-45zM329 536h30v-536h-30v536z" />
    <glyph glyph-name="fl" unicode="fl" horiz-adv-x="421" 
d="M21 506v30h45v135c0 127 83 204 181 204c44 0 79 -8 108 -24v-851h-30v832c-21 8 -45 13 -78 13c-82 0 -151 -65 -151 -174v-135h158v-30h-158v-799h-30v799h-45z" />
    <glyph glyph-name=".notdef" horiz-adv-x="400" 
 />
    <glyph glyph-name=".null" horiz-adv-x="500" 
d="M0 923h500v-1216h-500v1216z" />
    <glyph glyph-name=".null" horiz-adv-x="500" 
d="M0 923h500v-1216h-500v1216z" />
    <glyph glyph-name="A" unicode="A" horiz-adv-x="634" 
d="M49 5l268 712l268 -712l-28 -10l-73 194h-334l-73 -194zM317 632l-156 -413h311z" />
    <glyph glyph-name="A.sc" unicode="&#xf761;" horiz-adv-x="514" 
d="M392 109h-272l-43 -116l-27 13l207 551l207 -551l-27 -13zM257 474l-126 -335h249z" />
    <glyph glyph-name="AE" unicode="&#xc6;" horiz-adv-x="748" 
d="M397 635l-219 -437h219v437zM397 168h-234l-87 -175l-26 14l347 693h296v-30h-266v-264h200v-30h-200v-346h266v-30h-296v168z" />
    <glyph glyph-name="AE.sc" unicode="&#xf7e6;" horiz-adv-x="748" 
d="M693 0h-296v131h-229l-92 -139l-26 16l347 528h296v-30h-266v-182h200v-30h-200v-264h266v-30zM397 480l-209 -319h209v319z" />
    <glyph glyph-name="AEacute" unicode="&#x1fc;" horiz-adv-x="748" 
d="M397 635l-219 -437h219v437zM397 168h-234l-87 -175l-26 14l347 693h296v-30h-266v-264h200v-30h-200v-346h266v-30h-296v168zM407 759l-18 24l151 109l18 -24z" />
    <glyph glyph-name="AEacute.sc" unicode="&#xf670;" horiz-adv-x="748" 
d="M693 0h-296v131h-229l-92 -139l-26 16l347 528h296v-30h-266v-182h200v-30h-200v-264h266v-30zM397 480l-209 -319h209v319zM412 608l-18 24l151 109l18 -24z" />
    <glyph glyph-name="Aacute" unicode="&#xc1;" horiz-adv-x="634" 
d="M49 5l268 712l268 -712l-28 -10l-73 194h-334l-73 -194zM317 632l-156 -413h311zM259 759l-18 24l151 109l18 -24z" />
    <glyph glyph-name="Aacute.sc" unicode="&#xf7e1;" horiz-adv-x="514" 
d="M405 109h-272l-43 -116l-27 13l207 551l207 -551l-27 -13zM270 474l-126 -335h249zM205 608l-18 24l151 109l18 -24z" />
    <glyph glyph-name="Abreve" unicode="&#x102;" horiz-adv-x="634" 
d="M49 5l268 712l268 -712l-28 -10l-73 194h-334l-73 -194zM317 632l-156 -413h311zM380 871h30c0 -50 -40 -90 -100 -90s-100 40 -100 90h30c0 -35 27 -60 70 -60s70 25 70 60z" />
    <glyph glyph-name="Abreve.sc" unicode="&#xf66d;" horiz-adv-x="514" 
d="M405 109h-272l-43 -116l-27 13l207 551l207 -551l-27 -13zM270 474l-126 -335h249zM321 720h30c0 -50 -40 -90 -100 -90s-100 40 -100 90h30c0 -35 27 -60 70 -60s70 25 70 60z" />
    <glyph glyph-name="Acircumflex" unicode="&#xc2;" horiz-adv-x="634" 
d="M49 5l268 712l268 -712l-28 -10l-73 194h-334l-73 -194zM317 632l-156 -413h311zM400 777l-24 -18l-66 83l-65 -83l-24 18l89 115z" />
    <glyph glyph-name="Acircumflex.sc" unicode="&#xf7e2;" horiz-adv-x="514" 
d="M405 109h-272l-43 -116l-27 13l207 551l207 -551l-27 -13zM270 474l-126 -335h249zM341 626l-24 -18l-66 83l-65 -83l-24 18l89 115z" />
    <glyph glyph-name="Adieresis" unicode="&#xc4;" horiz-adv-x="634" 
d="M49 5l268 712l268 -712l-28 -10l-73 194h-334l-73 -194zM317 632l-156 -413h311zM218 801v50h50v-50h-50zM353 801v50h50v-50h-50z" />
    <glyph glyph-name="Adieresis.sc" unicode="&#xf7e4;" horiz-adv-x="514" 
d="M405 109h-272l-43 -116l-27 13l207 551l207 -551l-27 -13zM270 474l-126 -335h249zM159 650v50h50v-50h-50zM294 650v50h50v-50h-50z" />
    <glyph glyph-name="Agrave" unicode="&#xc0;" horiz-adv-x="634" 
d="M49 5l268 712l268 -712l-28 -10l-73 194h-334l-73 -194zM317 632l-156 -413h311zM395 783l-18 -24l-151 109l18 24z" />
    <glyph glyph-name="Agrave.sc" unicode="&#xf7e0;" horiz-adv-x="514" 
d="M405 109h-272l-43 -116l-27 13l207 551l207 -551l-27 -13zM270 474l-126 -335h249zM336 632l-18 -24l-151 109l18 24z" />
    <glyph glyph-name="Amacron" unicode="&#x100;" horiz-adv-x="634" 
d="M49 5l268 712l268 -712l-28 -10l-73 194h-334l-73 -194zM317 632l-156 -413h311zM180 811v30h260v-30h-260z" />
    <glyph glyph-name="Amacron.sc" unicode="&#xf66e;" horiz-adv-x="514" 
d="M405 109h-272l-43 -116l-27 13l207 551l207 -551l-27 -13zM270 474l-126 -335h249zM121 660v30h260v-30h-260z" />
    <glyph glyph-name="Aogonek" unicode="&#x104;" horiz-adv-x="634" 
d="M482 189h-334l-71 -195l-27 11l260 712l274 -710l-13 -6l7 -13c-33 -17 -46 -33 -46 -47c0 -10 9 -17 21 -17c8 0 18 3 30 11l16 -26c-16 -10 -32 -15 -46 -15c-30 0 -51 19 -51 47c0 24 14 46 50 66zM310 634l-151 -415h311z" />
    <glyph glyph-name="Aogonek.sc" unicode="&#xf66f;" horiz-adv-x="514" 
d="M392 109h-274l-41 -114l-27 11l201 551l213 -551l-13 -6l7 -12c-33 -17 -46 -33 -46 -47c0 -10 9 -17 21 -17c8 0 18 3 30 11l16 -26c-16 -10 -32 -15 -46 -15c-30 0 -51 19 -51 47c0 24 14 45 49 66zM251 474l-122 -335h251z" />
    <glyph glyph-name="Aring" unicode="&#xc5;" horiz-adv-x="634" 
d="M49 5l268 712l268 -712l-28 -10l-73 194h-334l-73 -194zM317 632l-156 -413h311zM243 826c0 37 30 67 67 67s67 -30 67 -67s-30 -67 -67 -67s-67 30 -67 67zM273 826c0 -20 17 -37 37 -37s37 17 37 37s-17 37 -37 37s-37 -17 -37 -37z" />
    <glyph glyph-name="Aring.sc" unicode="&#xf7e5;" horiz-adv-x="514" 
d="M405 109h-272l-43 -116l-27 13l207 551l207 -551l-27 -13zM270 474l-126 -335h249zM184 675c0 37 30 67 67 67s67 -30 67 -67s-30 -67 -67 -67s-67 30 -67 67zM214 675c0 -20 17 -37 37 -37s37 17 37 37s-17 37 -37 37s-37 -17 -37 -37z" />
    <glyph glyph-name="Atilde" unicode="&#xc3;" horiz-adv-x="634" 
d="M49 5l268 712l268 -712l-28 -10l-73 194h-334l-73 -194zM317 632l-156 -413h311zM404 857l24 -18c-18 -33 -47 -47 -71 -47c-18 0 -37 7 -56 21c-13 10 -26 16 -39 16c-15 0 -35 -11 -46 -35l-24 18c17 32 45 47 70 47c19 0 39 -8 57 -22c13 -10 26 -15 38 -15
c14 0 35 10 47 35z" />
    <glyph glyph-name="Atilde.sc" unicode="&#xf7e3;" horiz-adv-x="514" 
d="M405 109h-272l-43 -116l-27 13l207 551l207 -551l-27 -13zM270 474l-126 -335h249zM345 706l24 -18c-18 -33 -47 -47 -71 -47c-18 0 -37 7 -56 21c-13 10 -26 16 -39 16c-15 0 -35 -11 -46 -35l-24 18c17 32 45 47 70 47c19 0 39 -8 57 -22c13 -10 26 -15 38 -15
c14 0 35 10 47 35z" />
    <glyph glyph-name="B" unicode="B" horiz-adv-x="526" 
d="M70 700c26 2 55 3 77 3c186 0 269 -75 269 -173c0 -70 -43 -129 -135 -157c124 -26 195 -92 195 -181c0 -118 -123 -193 -329 -193c-22 0 -51 1 -77 3v698zM147 29c186 0 299 61 299 163s-113 164 -300 164h-46v-326c17 -1 33 -1 47 -1zM147 673c-14 0 -30 0 -47 -1v-286
h57c159 0 229 64 229 144c0 82 -73 143 -239 143z" />
    <glyph glyph-name="B.sc" unicode="&#xf762;" horiz-adv-x="414" 
d="M66 536c9 1 32 4 49 4c77 0 171 -39 171 -133c0 -48 -32 -90 -74 -109c88 -18 152 -78 152 -148c0 -99 -115 -155 -241 -155c-20 0 -40 1 -57 5v536zM261 250c-53 27 -109 28 -165 28v-251c11 -2 24 -2 36 -2c97 0 202 48 202 123c0 39 -28 79 -73 102zM96 509v-200
c8 -2 17 -2 26 -2c64 0 134 38 134 100c0 65 -69 103 -143 103c-5 0 -10 0 -17 -1z" />
    <glyph glyph-name="C" unicode="C" horiz-adv-x="518" 
d="M466 30l2 -30c-22 -2 -53 -3 -74 -3c-226 0 -339 176 -339 353c0 178 113 354 340 354c21 0 51 -1 73 -3l-2 -30c-22 2 -52 3 -71 3c-207 0 -310 -162 -310 -324s103 -323 309 -323c19 0 50 1 72 3z" />
    <glyph glyph-name="C.sc" unicode="&#xf763;" horiz-adv-x="503" 
d="M451 26l2 -30c-22 -2 -43 -3 -64 -3c-226 0 -339 137 -339 275s113 276 339 276c21 0 42 -1 64 -3l-2 -30c-22 2 -43 3 -62 3c-206 0 -309 -124 -309 -246s103 -245 309 -245c19 0 40 1 62 3z" />
    <glyph glyph-name="Cacute" unicode="&#x106;" horiz-adv-x="518" 
d="M466 30l2 -30c-22 -2 -53 -3 -74 -3c-226 0 -339 176 -339 353c0 178 113 354 340 354c21 0 51 -1 73 -3l-2 -30c-22 2 -52 3 -71 3c-207 0 -310 -162 -310 -324s103 -323 309 -323c19 0 50 1 72 3zM259 759l-18 24l151 109l18 -24z" />
    <glyph glyph-name="Cacute.sc" unicode="&#xf671;" horiz-adv-x="503" 
d="M451 26l2 -30c-22 -2 -43 -3 -64 -3c-226 0 -339 137 -339 275s113 276 339 276c21 0 42 -1 64 -3l-2 -30c-22 2 -43 3 -62 3c-206 0 -309 -124 -309 -246s103 -245 309 -245c19 0 40 1 62 3zM239 608l-18 24l151 109l18 -24z" />
    <glyph glyph-name="Ccaron" unicode="&#x10c;" horiz-adv-x="518" 
d="M466 30l2 -30c-22 -2 -53 -3 -74 -3c-226 0 -339 176 -339 353c0 178 113 354 340 354c21 0 51 -1 73 -3l-2 -30c-22 2 -52 3 -71 3c-207 0 -310 -162 -310 -324s103 -323 309 -323c19 0 50 1 72 3zM391 892l24 -18l-90 -115l-89 115l24 18l65 -83z" />
    <glyph glyph-name="Ccaron.sc" unicode="&#xf672;" horiz-adv-x="503" 
d="M451 26l2 -30c-22 -2 -43 -3 -64 -3c-226 0 -339 137 -339 275s113 276 339 276c21 0 42 -1 64 -3l-2 -30c-22 2 -43 3 -62 3c-206 0 -309 -124 -309 -246s103 -245 309 -245c19 0 40 1 62 3zM365 741l24 -18l-90 -115l-89 115l24 18l65 -83z" />
    <glyph glyph-name="Ccedilla" unicode="&#xc7;" horiz-adv-x="518" 
d="M288 -104l10 28c7 -3 15 -4 23 -4c16 0 30 5 30 20c0 7 -15 10 -32 10h-13l14 54c-177 34 -265 189 -265 346c0 178 113 354 340 354c21 0 51 -1 73 -3l-2 -30c-22 2 -52 3 -71 3c-207 0 -310 -162 -310 -324s103 -323 309 -323c19 0 50 1 72 3l2 -30
c-22 -2 -53 -3 -74 -3c-15 0 -29 1 -43 3l-6 -19c21 -4 36 -18 36 -41c0 -35 -31 -50 -61 -50c-11 0 -22 2 -32 6z" />
    <glyph glyph-name="Ccedilla.sc" unicode="&#xf7e7;" horiz-adv-x="503" 
d="M255 -101l10 28c7 -3 15 -4 23 -4c16 0 30 5 30 20c0 7 -15 10 -32 10h-13l14 54c-158 34 -237 147 -237 263c0 138 113 274 339 274c21 0 42 -1 64 -3l-2 -30c-22 2 -43 3 -62 3c-206 0 -309 -122 -309 -244s103 -243 309 -243c19 0 40 1 62 3l2 -30
c-22 -2 -43 -3 -64 -3c-25 0 -49 2 -72 5l-5 -18c21 -4 36 -18 36 -41c0 -35 -31 -50 -61 -50c-11 0 -22 2 -32 6z" />
    <glyph glyph-name="Ccircumflex" unicode="&#x108;" horiz-adv-x="518" 
d="M466 30l2 -30c-22 -2 -53 -3 -74 -3c-226 0 -339 176 -339 353c0 178 113 354 340 354c21 0 51 -1 73 -3l-2 -30c-22 2 -52 3 -71 3c-207 0 -310 -162 -310 -324s103 -323 309 -323c19 0 50 1 72 3zM406 777l-24 -18l-66 83l-65 -83l-24 18l89 115z" />
    <glyph glyph-name="Ccircumflex.sc" unicode="&#xf673;" horiz-adv-x="503" 
d="M451 26l2 -30c-22 -2 -43 -3 -64 -3c-226 0 -339 137 -339 275s113 276 339 276c21 0 42 -1 64 -3l-2 -30c-22 2 -43 3 -62 3c-206 0 -309 -124 -309 -246s103 -245 309 -245c19 0 40 1 62 3zM386 626l-24 -18l-66 83l-65 -83l-24 18l89 115z" />
    <glyph glyph-name="Cdotaccent" unicode="&#x10a;" horiz-adv-x="518" 
d="M466 30l2 -30c-22 -2 -53 -3 -74 -3c-226 0 -339 176 -339 353c0 178 113 354 340 354c21 0 51 -1 73 -3l-2 -30c-22 2 -52 3 -71 3c-207 0 -310 -162 -310 -324s103 -323 309 -323c19 0 50 1 72 3zM293 801v50h50v-50h-50z" />
    <glyph glyph-name="Cdotaccent.sc" unicode="&#xf674;" horiz-adv-x="503" 
d="M451 26l2 -30c-22 -2 -43 -3 -64 -3c-226 0 -339 137 -339 275s113 276 339 276c21 0 42 -1 64 -3l-2 -30c-22 2 -43 3 -62 3c-206 0 -309 -124 -309 -246s103 -245 309 -245c19 0 40 1 62 3zM281 650v50h50v-50h-50z" />
    <glyph glyph-name="D" unicode="D" horiz-adv-x="551" 
d="M157 27c206 0 309 161 309 323s-103 324 -309 324c-14 0 -41 -1 -57 -2v-644c17 -1 43 -1 57 -1zM157 704c226 0 339 -176 339 -354c0 -177 -113 -353 -339 -353c-22 0 -61 1 -87 3v700c26 2 65 4 87 4z" />
    <glyph glyph-name="D.sc" unicode="&#xf764;" horiz-adv-x="532" 
d="M143 27c206 0 309 121 309 243s-103 244 -309 244c-14 0 -31 -1 -47 -2v-484c17 -1 33 -1 47 -1zM143 544c226 0 339 -136 339 -274c0 -137 -113 -273 -339 -273c-22 0 -51 1 -77 3v540c26 2 55 4 77 4z" />
    <glyph glyph-name="Dcaron" unicode="&#x10e;" horiz-adv-x="551" 
d="M157 27c206 0 309 161 309 323s-103 324 -309 324c-14 0 -41 -1 -57 -2v-644c17 -1 43 -1 57 -1zM157 704c226 0 339 -176 339 -354c0 -177 -113 -353 -339 -353c-22 0 -61 1 -87 3v700c26 2 65 4 87 4zM265 892l24 -18l-90 -115l-89 115l24 18l65 -83z" />
    <glyph glyph-name="Dcaron.sc" unicode="&#xf675;" horiz-adv-x="532" 
d="M143 27c206 0 309 121 309 243s-103 244 -309 244c-14 0 -31 -1 -47 -2v-484c17 -1 33 -1 47 -1zM143 544c226 0 339 -136 339 -274c0 -137 -113 -273 -339 -273c-22 0 -51 1 -77 3v540c26 2 55 4 77 4zM276 741l24 -18l-90 -115l-89 115l24 18l65 -83z" />
    <glyph glyph-name="Dcroat" unicode="&#x110;" horiz-adv-x="561" 
d="M167 27c206 0 309 161 309 323s-103 324 -309 324c-14 0 -41 -1 -57 -2v-292h135v-30h-135v-322c17 -1 43 -1 57 -1zM-15 350v30h95v320c26 2 65 4 87 4c226 0 339 -176 339 -354c0 -177 -113 -353 -339 -353c-22 0 -61 1 -87 3v350h-95z" />
    <glyph glyph-name="Dcroat.sc" unicode="&#xf676;" horiz-adv-x="546" 
d="M157 27c206 0 309 121 309 243s-103 244 -309 244c-14 0 -31 -1 -47 -2v-212h135v-30h-135v-242c17 -1 33 -1 47 -1zM-15 270v30h95v240c26 2 55 4 77 4c226 0 339 -136 339 -274c0 -137 -113 -273 -339 -273c-22 0 -51 1 -77 3v270h-95z" />
    <glyph glyph-name="E" unicode="E" horiz-adv-x="521" 
d="M466 0h-396v700h396v-30h-366v-264h300v-30h-300v-346h366v-30z" />
    <glyph glyph-name="E.alt" horiz-adv-x="518" 
d="M466 30l2 -30c-22 -2 -53 -3 -74 -3c-226 0 -339 176 -339 353c0 178 113 354 340 354c21 0 51 -1 73 -3l-2 -30c-22 2 -52 3 -71 3c-201 0 -304 -152 -310 -309h294v-30h-294c6 -157 109 -308 309 -308c19 0 50 1 72 3z" />
    <glyph glyph-name="E.alt.sc" horiz-adv-x="503" 
d="M375 283v-30h-295c8 -117 111 -230 309 -230c19 0 40 1 62 3l2 -30c-22 -2 -43 -3 -64 -3c-226 0 -339 138 -339 275c0 138 113 276 340 276c21 0 41 -1 63 -3l-2 -30c-22 2 -42 3 -61 3c-199 0 -302 -114 -310 -231h295z" />
    <glyph glyph-name="E.sc" unicode="&#xf765;" horiz-adv-x="517" 
d="M462 0h-396v536h396v-30h-366v-182h300v-30h-300v-264h366v-30z" />
    <glyph glyph-name="Eacute" unicode="&#xc9;" horiz-adv-x="521" 
d="M466 0h-396v700h396v-30h-366v-264h300v-30h-300v-346h366v-30zM202 759l-18 24l151 109l18 -24z" />
    <glyph glyph-name="Eacute.sc" unicode="&#xf7e9;" horiz-adv-x="517" 
d="M462 0h-396v536h396v-30h-366v-182h300v-30h-300v-264h366v-30zM198 608l-18 24l151 109l18 -24z" />
    <glyph glyph-name="Ebreve" unicode="&#x114;" horiz-adv-x="521" 
d="M466 0h-396v700h396v-30h-366v-264h300v-30h-300v-346h366v-30zM338 871h30c0 -50 -40 -90 -100 -90s-100 40 -100 90h30c0 -35 27 -60 70 -60s70 25 70 60z" />
    <glyph glyph-name="Ebreve.sc" unicode="&#xf677;" horiz-adv-x="517" 
d="M462 0h-396v536h396v-30h-366v-182h300v-30h-300v-264h366v-30zM334 720h30c0 -50 -40 -90 -100 -90s-100 40 -100 90h30c0 -35 27 -60 70 -60s70 25 70 60z" />
    <glyph glyph-name="Ecaron" unicode="&#x11a;" horiz-adv-x="521" 
d="M466 0h-396v700h396v-30h-366v-264h300v-30h-300v-346h366v-30zM334 892l24 -18l-90 -115l-89 115l24 18l65 -83z" />
    <glyph glyph-name="Ecaron.sc" unicode="&#xf678;" horiz-adv-x="517" 
d="M462 0h-396v536h396v-30h-366v-182h300v-30h-300v-264h366v-30zM330 741l24 -18l-90 -115l-89 115l24 18l65 -83z" />
    <glyph glyph-name="Ecircumflex" unicode="&#xca;" horiz-adv-x="521" 
d="M466 0h-396v700h396v-30h-366v-264h300v-30h-300v-346h366v-30zM358 777l-24 -18l-66 83l-65 -83l-24 18l89 115z" />
    <glyph glyph-name="Ecircumflex.sc" unicode="&#xf7ea;" horiz-adv-x="517" 
d="M462 0h-396v536h396v-30h-366v-182h300v-30h-300v-264h366v-30zM354 626l-24 -18l-66 83l-65 -83l-24 18l89 115z" />
    <glyph glyph-name="Edieresis" unicode="&#xcb;" horiz-adv-x="521" 
d="M466 0h-396v700h396v-30h-366v-264h300v-30h-300v-346h366v-30zM176 801v50h50v-50h-50zM311 801v50h50v-50h-50z" />
    <glyph glyph-name="Edieresis.sc" unicode="&#xf7eb;" horiz-adv-x="517" 
d="M462 0h-396v536h396v-30h-366v-182h300v-30h-300v-264h366v-30zM172 650v50h50v-50h-50zM307 650v50h50v-50h-50z" />
    <glyph glyph-name="Edotaccent" unicode="&#x116;" horiz-adv-x="521" 
d="M466 0h-396v700h396v-30h-366v-264h300v-30h-300v-346h366v-30zM243 801v50h50v-50h-50z" />
    <glyph glyph-name="Edotaccent.sc" unicode="&#xf679;" horiz-adv-x="517" 
d="M462 0h-396v536h396v-30h-366v-182h300v-30h-300v-264h366v-30zM239 650v50h50v-50h-50z" />
    <glyph glyph-name="Egrave" unicode="&#xc8;" horiz-adv-x="521" 
d="M466 0h-396v700h396v-30h-366v-264h300v-30h-300v-346h366v-30zM353 783l-18 -24l-151 109l18 24z" />
    <glyph glyph-name="Egrave.sc" unicode="&#xf7e8;" horiz-adv-x="517" 
d="M462 0h-396v536h396v-30h-366v-182h300v-30h-300v-264h366v-30zM349 632l-18 -24l-151 109l18 24z" />
    <glyph glyph-name="Emacron" unicode="&#x112;" horiz-adv-x="521" 
d="M466 0h-396v700h396v-30h-366v-264h300v-30h-300v-346h366v-30zM138 811v30h260v-30h-260z" />
    <glyph glyph-name="Emacron.sc" unicode="&#xf67a;" horiz-adv-x="517" 
d="M462 0h-396v536h396v-30h-366v-182h300v-30h-300v-264h366v-30zM134 660v30h260v-30h-260z" />
    <glyph glyph-name="Eogonek" unicode="&#x118;" horiz-adv-x="521" 
d="M387 -65l16 -26c-16 -10 -32 -15 -46 -15c-30 0 -51 19 -51 47c0 21 11 41 38 59h-274v700h396v-30h-366v-264h300v-30h-300v-346h366v-30h-91l7 -12c-33 -17 -46 -33 -46 -47c0 -10 9 -17 21 -17c8 0 18 3 30 11z" />
    <glyph glyph-name="Eogonek.sc" unicode="&#xf67c;" horiz-adv-x="517" 
d="M393 -65l16 -26c-16 -10 -32 -15 -46 -15c-30 0 -51 19 -51 47c0 21 11 41 38 59h-284v536h396v-30h-366v-182h300v-30h-300v-264h366v-30h-81l7 -12c-33 -17 -46 -33 -46 -47c0 -10 9 -17 21 -17c8 0 18 3 30 11z" />
    <glyph glyph-name="Euro" unicode="&#x20ac;" horiz-adv-x="547" 
d="M50 407h38c21 156 133 297 336 297c21 0 51 -1 73 -3l-2 -30c-22 2 -52 3 -71 3c-183 0 -284 -126 -306 -267h272v-30h-275c-1 -9 -1 -18 -1 -27c0 -11 0 -21 1 -31h275v-30h-271c22 -139 124 -262 304 -262c19 0 50 1 72 3l2 -30c-22 -2 -53 -3 -74 -3
c-200 0 -312 137 -335 292h-38v30h35c-1 10 -1 20 -1 31c0 9 0 18 1 27h-35v30z" />
    <glyph glyph-name="Euro.sc" unicode="&#xf64e;" horiz-adv-x="537" 
d="M50 296v30h40c27 116 137 218 333 218c21 0 42 -1 64 -3l-2 -30c-22 2 -43 3 -62 3c-175 0 -274 -88 -302 -188h269v-30h-275c-1 -9 -1 -19 -1 -28c0 -11 0 -22 2 -32h274v-30h-267c29 -99 128 -183 300 -183c19 0 40 1 62 3l2 -30c-22 -2 -43 -3 -64 -3
c-192 0 -303 99 -332 213h-41v30h36c-2 10 -2 21 -2 32c0 9 0 19 1 28h-35z" />
    <glyph glyph-name="F" unicode="F" horiz-adv-x="521" 
d="M100 0h-30v700h396v-30h-366v-264h300v-30h-300v-376z" />
    <glyph glyph-name="F.sc" unicode="&#xf766;" horiz-adv-x="512" 
d="M96 0h-30v536h396v-30h-366v-182h300v-30h-300v-294z" />
    <glyph glyph-name="G" unicode="G" horiz-adv-x="547" 
d="M451 308h30v-308c-26 -2 -65 -3 -87 -3c-226 0 -339 176 -339 353c0 178 113 354 339 354c22 0 61 -2 87 -4v-31c-34 4 -73 5 -87 5c-206 0 -309 -162 -309 -324s103 -323 309 -323c14 0 40 0 57 1v280z" />
    <glyph glyph-name="G.sc" unicode="&#xf767;" horiz-adv-x="513" 
d="M423 226h30v-226c-22 -2 -43 -3 -64 -3c-226 0 -339 136 -339 273c0 138 112 274 339 274c21 0 42 -1 64 -3v-30c-20 2 -45 3 -64 3c-207 0 -309 -122 -309 -244s103 -243 309 -243c12 0 21 0 34 1v198z" />
    <glyph glyph-name="Gbreve" unicode="&#x11e;" horiz-adv-x="547" 
d="M451 308h30v-308c-26 -2 -65 -3 -87 -3c-226 0 -339 176 -339 353c0 178 113 354 339 354c22 0 61 -2 87 -4v-31c-34 4 -73 5 -87 5c-206 0 -309 -162 -309 -324s103 -323 309 -323c14 0 40 0 57 1v280zM409 871h30c0 -50 -40 -90 -100 -90s-100 40 -100 90h30
c0 -35 27 -60 70 -60s70 25 70 60z" />
    <glyph glyph-name="Gbreve.sc" unicode="&#xf67d;" horiz-adv-x="513" 
d="M423 226h30v-226c-22 -2 -43 -3 -64 -3c-226 0 -339 136 -339 273c0 138 112 274 339 274c21 0 42 -1 64 -3v-30c-20 2 -45 3 -64 3c-207 0 -309 -122 -309 -244s103 -243 309 -243c12 0 21 0 34 1v198zM385 720h30c0 -50 -40 -90 -100 -90s-100 40 -100 90h30
c0 -35 27 -60 70 -60s70 25 70 60z" />
    <glyph glyph-name="Gcircumflex" unicode="&#x11c;" horiz-adv-x="547" 
d="M451 308h30v-308c-26 -2 -65 -3 -87 -3c-226 0 -339 176 -339 353c0 178 113 354 339 354c22 0 61 -2 87 -4v-31c-34 4 -73 5 -87 5c-206 0 -309 -162 -309 -324s103 -323 309 -323c14 0 40 0 57 1v280zM429 777l-24 -18l-66 83l-65 -83l-24 18l89 115z" />
    <glyph glyph-name="Gcircumflex.sc" unicode="&#xf67e;" horiz-adv-x="513" 
d="M423 226h30v-226c-22 -2 -43 -3 -64 -3c-226 0 -339 136 -339 273c0 138 112 274 339 274c21 0 42 -1 64 -3v-30c-20 2 -45 3 -64 3c-207 0 -309 -122 -309 -244s103 -243 309 -243c12 0 21 0 34 1v198zM405 626l-24 -18l-66 83l-65 -83l-24 18l89 115z" />
    <glyph glyph-name="Gcommaaccent" unicode="&#x122;" horiz-adv-x="547" 
d="M451 308h30v-308c-26 -2 -65 -3 -87 -3c-226 0 -339 176 -339 353c0 178 113 354 339 354c22 0 61 -2 87 -4v-31c-34 4 -73 5 -87 5c-206 0 -309 -162 -309 -324s103 -323 309 -323c14 0 40 0 57 1v280zM315 -50h60v-70c0 -17 0 -58 -47 -75l-10 28c27 9 27 34 27 47v15
h-30v55z" />
    <glyph glyph-name="Gcommaaccent.sc" unicode="&#xf67f;" horiz-adv-x="513" 
d="M423 226h30v-226c-22 -2 -43 -3 -64 -3c-226 0 -339 136 -339 273c0 138 112 274 339 274c21 0 42 -1 64 -3v-30c-20 2 -45 3 -64 3c-207 0 -309 -122 -309 -244s103 -243 309 -243c12 0 21 0 34 1v198zM315 -50h60v-70c0 -17 0 -58 -47 -75l-10 28c27 9 27 34 27 47v15
h-30v55z" />
    <glyph glyph-name="Gdotaccent" unicode="&#x120;" horiz-adv-x="547" 
d="M451 308h30v-308c-26 -2 -65 -3 -87 -3c-226 0 -339 176 -339 353c0 178 113 354 339 354c22 0 61 -2 87 -4v-31c-34 4 -73 5 -87 5c-206 0 -309 -162 -309 -324s103 -323 309 -323c14 0 40 0 57 1v280zM314 801v50h50v-50h-50z" />
    <glyph glyph-name="Gdotaccent.sc" unicode="&#xf680;" horiz-adv-x="513" 
d="M423 226h30v-226c-22 -2 -43 -3 -64 -3c-226 0 -339 136 -339 273c0 138 112 274 339 274c21 0 42 -1 64 -3v-30c-20 2 -45 3 -64 3c-207 0 -309 -122 -309 -244s103 -243 309 -243c12 0 21 0 34 1v198zM290 650v50h50v-50h-50z" />
    <glyph glyph-name="H" unicode="H" horiz-adv-x="546" 
d="M476 0h-30v376h-346v-376h-30v700h30v-294h346v294h30v-700z" />
    <glyph glyph-name="H.sc" unicode="&#xf768;" horiz-adv-x="528" 
d="M462 0h-30v294h-336v-294h-30v536h30v-212h336v212h30v-536z" />
    <glyph glyph-name="Hbar" unicode="&#x126;" horiz-adv-x="546" 
d="M100 406h346v130h-346v-130zM13 536v30h57v134h30v-134h346v134h30v-134h57v-30h-57v-536h-30v376h-346v-376h-30v536h-57z" />
    <glyph glyph-name="Hbar.sc" unicode="&#xf681;" horiz-adv-x="528" 
d="M96 324h336v122h-336v-122zM4 446v30h62v60h30v-60h336v60h30v-60h62v-30h-62v-446h-30v294h-336v-294h-30v446h-62z" />
    <glyph glyph-name="Hcircumflex" unicode="&#x124;" horiz-adv-x="546" 
d="M476 0h-30v376h-346v-376h-30v700h30v-294h346v294h30v-700zM363 777l-24 -18l-66 83l-65 -83l-24 18l89 115z" />
    <glyph glyph-name="Hcircumflex.sc" unicode="&#xf682;" horiz-adv-x="528" 
d="M462 0h-30v294h-336v-294h-30v536h30v-212h336v212h30v-536zM354 626l-24 -18l-66 83l-65 -83l-24 18l89 115z" />
    <glyph glyph-name="I" unicode="I" 
d="M70 700h30v-700h-30v700z" />
    <glyph glyph-name="I.sc" unicode="&#xf769;" 
d="M70 536h30v-536h-30v536z" />
    <glyph glyph-name="I_J" unicode="&#x132;" horiz-adv-x="629" 
d="M70 700h30v-700h-30v700zM533 232v468h30v-477c0 -130 -82 -233 -200 -233c-59 0 -109 29 -148 68l21 23c39 -36 79 -61 127 -61c85 0 141 63 160 134c7 25 10 60 10 78z" />
    <glyph glyph-name="I_J.sc" unicode="&#xf684;" horiz-adv-x="623" 
d="M70 536h30v-536h-30v536zM533 232v304h30v-313c0 -130 -82 -233 -200 -233c-59 0 -109 29 -148 68l21 23c39 -36 79 -61 127 -61c85 0 141 63 160 134c7 25 10 60 10 78z" />
    <glyph glyph-name="Iacute" unicode="&#xcd;" 
d="M70 700h30v-700h-30v700zM34 759l-18 24l151 109l18 -24z" />
    <glyph glyph-name="Iacute.sc" unicode="&#xf7ed;" 
d="M70 536h30v-536h-30v536zM34 608l-18 24l151 109l18 -24z" />
    <glyph glyph-name="Ibreve" unicode="&#x12c;" 
d="M70 700h30v-700h-30v700zM155 871h30c0 -50 -40 -90 -100 -90s-100 40 -100 90h30c0 -35 27 -60 70 -60s70 25 70 60z" />
    <glyph glyph-name="Ibreve.sc" unicode="&#xf683;" 
d="M70 536h30v-536h-30v536zM155 720h30c0 -50 -40 -90 -100 -90s-100 40 -100 90h30c0 -35 27 -60 70 -60s70 25 70 60z" />
    <glyph glyph-name="Icircumflex" unicode="&#xce;" 
d="M70 700h30v-700h-30v700zM175 777l-24 -18l-66 83l-65 -83l-24 18l89 115z" />
    <glyph glyph-name="Icircumflex.sc" unicode="&#xf7ee;" 
d="M70 536h30v-536h-30v536zM175 626l-24 -18l-66 83l-65 -83l-24 18l89 115z" />
    <glyph glyph-name="Idieresis" unicode="&#xcf;" 
d="M70 700h30v-700h-30v700zM-7 801v50h50v-50h-50zM128 801v50h50v-50h-50z" />
    <glyph glyph-name="Idieresis.sc" unicode="&#xf7ef;" 
d="M70 536h30v-536h-30v536zM-7 650v50h50v-50h-50zM128 650v50h50v-50h-50z" />
    <glyph glyph-name="Idotaccent" unicode="&#x130;" 
d="M70 700h30v-700h-30v700zM60 801v50h50v-50h-50z" />
    <glyph glyph-name="Idotaccent.sc" unicode="&#xf6ad;" 
d="M70 536h30v-536h-30v536zM60 650v50h50v-50h-50z" />
    <glyph glyph-name="Igrave" unicode="&#xcc;" 
d="M70 700h30v-700h-30v700zM170 783l-18 -24l-151 109l18 24z" />
    <glyph glyph-name="Igrave.sc" unicode="&#xf7ec;" 
d="M70 536h30v-536h-30v536zM170 632l-18 -24l-151 109l18 24z" />
    <glyph glyph-name="Imacron" unicode="&#x12a;" 
d="M70 700h30v-700h-30v700zM-45 811v30h260v-30h-260z" />
    <glyph glyph-name="Imacron.sc" unicode="&#xf685;" 
d="M70 536h30v-536h-30v536zM-45 660v30h260v-30h-260z" />
    <glyph glyph-name="Iogonek" unicode="&#x12e;" 
d="M103 -65l16 -26c-16 -10 -32 -15 -46 -15c-30 0 -51 19 -51 47c0 23 13 45 48 65v694h30v-700h-9l7 -12c-33 -17 -46 -33 -46 -47c0 -10 9 -17 21 -17c8 0 18 3 30 11z" />
    <glyph glyph-name="Iogonek.sc" unicode="&#xf686;" 
d="M103 -65l16 -26c-16 -10 -32 -15 -46 -15c-30 0 -51 19 -51 47c0 23 13 45 48 65v530h30v-536h-9l7 -12c-33 -17 -46 -33 -46 -47c0 -10 9 -17 21 -17c8 0 18 3 30 11z" />
    <glyph glyph-name="Itilde" unicode="&#x128;" 
d="M70 700h30v-700h-30v700zM179 857l24 -18c-18 -33 -47 -47 -71 -47c-18 0 -37 7 -56 21c-13 10 -26 16 -39 16c-15 0 -35 -11 -46 -35l-24 18c17 32 45 47 70 47c19 0 39 -8 57 -22c13 -10 26 -15 38 -15c14 0 35 10 47 35z" />
    <glyph glyph-name="Itilde.sc" unicode="&#xf687;" 
d="M70 536h30v-536h-30v536zM179 706l24 -18c-18 -33 -47 -47 -71 -47c-18 0 -37 7 -56 21c-13 10 -26 16 -39 16c-15 0 -35 -11 -46 -35l-24 18c17 32 45 47 70 47c19 0 39 -8 57 -22c13 -10 26 -15 38 -15c14 0 35 10 47 35z" />
    <glyph glyph-name="J" unicode="J" horiz-adv-x="459" 
d="M363 232v468h30v-477c0 -130 -82 -233 -200 -233c-59 0 -109 29 -148 68l21 23c39 -36 79 -61 127 -61c85 0 141 63 160 134c7 25 10 60 10 78z" />
    <glyph glyph-name="J.sc" unicode="&#xf76a;" horiz-adv-x="453" 
d="M363 232v304h30v-313c0 -130 -82 -233 -200 -233c-59 0 -109 29 -148 68l21 23c39 -36 79 -61 127 -61c85 0 141 63 160 134c7 25 10 60 10 78z" />
    <glyph glyph-name="Jcircumflex" unicode="&#x134;" horiz-adv-x="459" 
d="M363 232v468h30v-477c0 -130 -82 -233 -200 -233c-59 0 -109 29 -148 68l21 23c39 -36 79 -61 127 -61c85 0 141 63 160 134c7 25 10 60 10 78zM468 777l-24 -18l-66 83l-65 -83l-24 18l89 115z" />
    <glyph glyph-name="Jcircumflex.sc" unicode="&#xf688;" horiz-adv-x="458" 
d="M368 232v304h30v-313c0 -130 -82 -233 -200 -233c-59 0 -109 29 -148 68l21 23c39 -36 79 -61 127 -61c85 0 141 63 160 134c7 25 10 60 10 78zM473 626l-24 -18l-66 83l-65 -83l-24 18l89 115z" />
    <glyph glyph-name="K" unicode="K" horiz-adv-x="576" 
d="M526 10l-22 -20l-347 356l-57 -53v-293h-30v700h30v-366l405 377l20 -22l-347 -322z" />
    <glyph glyph-name="K.sc" unicode="&#xf76b;" horiz-adv-x="570" 
d="M520 13l-18 -24l-341 269l-65 -48v-210h-30v536h30v-288l406 299l18 -24l-334 -247z" />
    <glyph glyph-name="Kcommaaccent" unicode="&#x136;" horiz-adv-x="576" 
d="M526 10l-22 -20l-347 356l-57 -53v-293h-30v700h30v-366l405 377l20 -22l-347 -322zM268 -50h60v-70c0 -17 0 -58 -47 -75l-10 28c27 9 27 34 27 47v15h-30v55z" />
    <glyph glyph-name="Kcommaaccent.sc" unicode="&#xf689;" horiz-adv-x="570" 
d="M520 13l-18 -24l-341 269l-65 -48v-210h-30v536h30v-288l406 299l18 -24l-334 -247zM263 -50h60v-70c0 -17 0 -58 -47 -75l-10 28c27 9 27 34 27 47v15h-30v55z" />
    <glyph glyph-name="L" unicode="L" horiz-adv-x="493" 
d="M70 700h30v-670h338v-30h-368v700z" />
    <glyph glyph-name="L.sc" unicode="&#xf76c;" horiz-adv-x="474" 
d="M66 536h30v-506h328v-30h-358v536z" />
    <glyph glyph-name="Lacute" unicode="&#x139;" horiz-adv-x="493" 
d="M70 700h30v-670h338v-30h-368v700zM34 759l-18 24l151 109l18 -24z" />
    <glyph glyph-name="Lacute.sc" unicode="&#xf68a;" horiz-adv-x="474" 
d="M66 536h30v-506h328v-30h-358v536zM30 608l-18 24l151 109l18 -24z" />
    <glyph glyph-name="Lcaron" unicode="&#x13d;" horiz-adv-x="493" 
d="M70 700h30v-670h338v-30h-368v700zM170 700h60v-70c0 -17 0 -58 -47 -75l-10 28c27 9 27 34 27 47v15h-30v55z" />
    <glyph glyph-name="Lcaron.sc" unicode="&#xf68b;" horiz-adv-x="474" 
d="M66 536h30v-506h328v-30h-358v536zM156 536h60v-70c0 -17 0 -58 -47 -75l-10 28c27 9 27 34 27 47v15h-30v55z" />
    <glyph glyph-name="Lcommaaccent" unicode="&#x13b;" horiz-adv-x="493" 
d="M70 700h30v-670h338v-30h-368v700zM224 -50h60v-70c0 -17 0 -58 -47 -75l-10 28c27 9 27 34 27 47v15h-30v55z" />
    <glyph glyph-name="Lcommaaccent.sc" unicode="&#xf68c;" horiz-adv-x="474" 
d="M66 536h30v-506h328v-30h-358v536zM215 -50h60v-70c0 -17 0 -58 -47 -75l-10 28c27 9 27 34 27 47v15h-30v55z" />
    <glyph glyph-name="Ldot" unicode="&#x13f;" horiz-adv-x="493" 
d="M70 700h30v-670h338v-30h-368v700zM221 355v50h50v-50h-50z" />
    <glyph glyph-name="Ldot.sc" unicode="&#xf68d;" horiz-adv-x="474" 
d="M66 536h30v-506h328v-30h-358v536zM217 285v50h50v-50h-50z" />
    <glyph glyph-name="Lslash" unicode="&#x141;" horiz-adv-x="493" 
d="M21 403l-18 24l67 48v225h30v-203l71 51l18 -24l-89 -64v-430h338v-30h-368v438z" />
    <glyph glyph-name="Lslash.sc" unicode="&#xf6f9;" horiz-adv-x="474" 
d="M15 279l-18 24l69 50v183h30v-162l71 51l18 -24l-89 -64v-307h328v-30h-358v316z" />
    <glyph glyph-name="M" unicode="M" horiz-adv-x="656" 
d="M100 0h-30v724l258 -483l258 483v-724h-30v605l-228 -428l-228 428v-605z" />
    <glyph glyph-name="M.sc" unicode="&#xf76d;" horiz-adv-x="648" 
d="M96 0h-30v560l258 -483l258 483v-560h-30v441l-228 -428l-228 428v-441z" />
    <glyph glyph-name="N" unicode="N" horiz-adv-x="557" 
d="M100 0h-30v729l387 -648v619h30v-729l-387 648v-619z" />
    <glyph glyph-name="N.sc" unicode="&#xf76e;" horiz-adv-x="549" 
d="M96 0h-30v559l387 -496v473h30v-559l-387 496v-473z" />
    <glyph glyph-name="Nacute" unicode="&#x143;" horiz-adv-x="557" 
d="M100 0h-30v729l387 -648v619h30v-729l-387 648v-619zM212 759l-18 24l151 109l18 -24z" />
    <glyph glyph-name="Nacute.sc" unicode="&#xf68e;" horiz-adv-x="549" 
d="M96 0h-30v559l387 -496v473h30v-559l-387 496v-473zM208 608l-18 24l151 109l18 -24z" />
    <glyph glyph-name="Ncaron" unicode="&#x147;" horiz-adv-x="557" 
d="M100 0h-30v729l387 -648v619h30v-729l-387 648v-619zM344 892l24 -18l-90 -115l-89 115l24 18l65 -83z" />
    <glyph glyph-name="Ncaron.sc" unicode="&#xf68f;" horiz-adv-x="549" 
d="M96 0h-30v559l387 -496v473h30v-559l-387 496v-473zM340 741l24 -18l-90 -115l-89 115l24 18l65 -83z" />
    <glyph glyph-name="Ncommaaccent" unicode="&#x145;" horiz-adv-x="557" 
d="M100 0h-30v729l387 -648v619h30v-729l-387 648v-619zM248 -50h60v-70c0 -17 0 -58 -47 -75l-10 28c27 9 27 34 27 47v15h-30v55z" />
    <glyph glyph-name="Ncommaaccent.sc" unicode="&#xf690;" horiz-adv-x="549" 
d="M96 0h-30v559l387 -496v473h30v-559l-387 496v-473zM244 -50h60v-70c0 -17 0 -58 -47 -75l-10 28c27 9 27 34 27 47v15h-30v55z" />
    <glyph glyph-name="Ntilde" unicode="&#xd1;" horiz-adv-x="557" 
d="M100 0h-30v729l387 -648v619h30v-729l-387 648v-619zM372 857l24 -18c-18 -33 -47 -47 -71 -47c-18 0 -37 7 -56 21c-13 10 -26 16 -39 16c-15 0 -35 -11 -46 -35l-24 18c17 32 45 47 70 47c19 0 39 -8 57 -22c13 -10 26 -15 38 -15c14 0 35 10 47 35z" />
    <glyph glyph-name="Ntilde.sc" unicode="&#xf7f1;" horiz-adv-x="549" 
d="M96 0h-30v559l387 -496v473h30v-559l-387 496v-473zM368 706l24 -18c-18 -33 -47 -47 -71 -47c-18 0 -37 7 -56 21c-13 10 -26 16 -39 16c-15 0 -35 -11 -46 -35l-24 18c17 32 45 47 70 47c19 0 39 -8 57 -22c13 -10 26 -15 38 -15c14 0 35 10 47 35z" />
    <glyph glyph-name="O" unicode="O" horiz-adv-x="818" 
d="M50 350c0 198 161 359 359 359s359 -161 359 -359s-161 -359 -359 -359s-359 161 -359 359zM80 350c0 -182 147 -329 329 -329s329 147 329 329s-147 329 -329 329s-329 -147 -329 -329z" />
    <glyph glyph-name="O.sc" unicode="&#xf76f;" horiz-adv-x="656" 
d="M50 268c0 153 125 278 278 278s278 -125 278 -278s-125 -278 -278 -278s-278 125 -278 278zM80 268c0 -137 111 -248 248 -248s248 111 248 248s-111 248 -248 248s-248 -111 -248 -248z" />
    <glyph glyph-name="OE" unicode="&#x152;" horiz-adv-x="1191" 
d="M1134 0h-396v206c-56 -127 -181 -215 -329 -215c-198 0 -359 161 -359 359s161 359 359 359c148 0 273 -88 329 -216v207h396v-30h-366v-264h300v-30h-300v-346h366v-30zM80 350c0 -182 147 -329 329 -329s329 147 329 329s-147 329 -329 329s-329 -147 -329 -329z" />
    <glyph glyph-name="OE.sc" unicode="&#xf6fa;" horiz-adv-x="1030" 
d="M80 268c0 -140 113 -253 252 -253s252 113 252 253s-113 253 -252 253s-252 -113 -252 -253zM980 0h-396v141c-47 -93 -142 -156 -252 -156c-156 0 -282 127 -282 283s126 283 282 283c110 0 205 -64 252 -156v141h396v-30h-366v-182h300v-30h-300v-264h366v-30z" />
    <glyph glyph-name="Oacute" unicode="&#xd3;" horiz-adv-x="818" 
d="M50 350c0 198 161 359 359 359s359 -161 359 -359s-161 -359 -359 -359s-359 161 -359 359zM80 350c0 -182 147 -329 329 -329s329 147 329 329s-147 329 -329 329s-329 -147 -329 -329zM343 759l-18 24l151 109l18 -24z" />
    <glyph glyph-name="Oacute.sc" unicode="&#xf7f3;" horiz-adv-x="656" 
d="M50 268c0 153 125 278 278 278s278 -125 278 -278s-125 -278 -278 -278s-278 125 -278 278zM80 268c0 -137 111 -248 248 -248s248 111 248 248s-111 248 -248 248s-248 -111 -248 -248zM262 608l-18 24l151 109l18 -24z" />
    <glyph glyph-name="Obreve" unicode="&#x14e;" horiz-adv-x="818" 
d="M50 350c0 198 161 359 359 359s359 -161 359 -359s-161 -359 -359 -359s-359 161 -359 359zM80 350c0 -182 147 -329 329 -329s329 147 329 329s-147 329 -329 329s-329 -147 -329 -329zM479 871h30c0 -50 -40 -90 -100 -90s-100 40 -100 90h30c0 -35 27 -60 70 -60
s70 25 70 60z" />
    <glyph glyph-name="Obreve.sc" unicode="&#xf691;" horiz-adv-x="656" 
d="M50 268c0 153 125 278 278 278s278 -125 278 -278s-125 -278 -278 -278s-278 125 -278 278zM80 268c0 -137 111 -248 248 -248s248 111 248 248s-111 248 -248 248s-248 -111 -248 -248zM398 720h30c0 -50 -40 -90 -100 -90s-100 40 -100 90h30c0 -35 27 -60 70 -60
s70 25 70 60z" />
    <glyph glyph-name="Ocircumflex" unicode="&#xd4;" horiz-adv-x="818" 
d="M50 350c0 198 161 359 359 359s359 -161 359 -359s-161 -359 -359 -359s-359 161 -359 359zM80 350c0 -182 147 -329 329 -329s329 147 329 329s-147 329 -329 329s-329 -147 -329 -329zM499 777l-24 -18l-66 83l-65 -83l-24 18l89 115z" />
    <glyph glyph-name="Ocircumflex.sc" unicode="&#xf7f4;" horiz-adv-x="656" 
d="M50 268c0 153 125 278 278 278s278 -125 278 -278s-125 -278 -278 -278s-278 125 -278 278zM80 268c0 -137 111 -248 248 -248s248 111 248 248s-111 248 -248 248s-248 -111 -248 -248zM418 626l-24 -18l-66 83l-65 -83l-24 18l89 115z" />
    <glyph glyph-name="Odieresis" unicode="&#xd6;" horiz-adv-x="818" 
d="M50 350c0 198 161 359 359 359s359 -161 359 -359s-161 -359 -359 -359s-359 161 -359 359zM80 350c0 -182 147 -329 329 -329s329 147 329 329s-147 329 -329 329s-329 -147 -329 -329zM317 801v50h50v-50h-50zM452 801v50h50v-50h-50z" />
    <glyph glyph-name="Odieresis.sc" unicode="&#xf7f6;" horiz-adv-x="656" 
d="M50 268c0 153 125 278 278 278s278 -125 278 -278s-125 -278 -278 -278s-278 125 -278 278zM80 268c0 -137 111 -248 248 -248s248 111 248 248s-111 248 -248 248s-248 -111 -248 -248zM236 650v50h50v-50h-50zM371 650v50h50v-50h-50z" />
    <glyph glyph-name="Ograve" unicode="&#xd2;" horiz-adv-x="818" 
d="M50 350c0 198 161 359 359 359s359 -161 359 -359s-161 -359 -359 -359s-359 161 -359 359zM80 350c0 -182 147 -329 329 -329s329 147 329 329s-147 329 -329 329s-329 -147 -329 -329zM494 783l-18 -24l-151 109l18 24z" />
    <glyph glyph-name="Ograve.sc" unicode="&#xf7f2;" horiz-adv-x="656" 
d="M50 268c0 153 125 278 278 278s278 -125 278 -278s-125 -278 -278 -278s-278 125 -278 278zM80 268c0 -137 111 -248 248 -248s248 111 248 248s-111 248 -248 248s-248 -111 -248 -248zM413 632l-18 -24l-151 109l18 24z" />
    <glyph glyph-name="Ohungarumlaut" unicode="&#x150;" horiz-adv-x="818" 
d="M50 350c0 198 161 359 359 359s359 -161 359 -359s-161 -359 -359 -359s-359 161 -359 359zM80 350c0 -182 147 -329 329 -329s329 147 329 329s-147 329 -329 329s-329 -147 -329 -329zM428 759l-18 24l151 109l18 -24zM306 759l-18 24l151 109l18 -24z" />
    <glyph glyph-name="Ohungarumlaut.sc" unicode="&#xf692;" horiz-adv-x="656" 
d="M50 268c0 153 125 278 278 278s278 -125 278 -278s-125 -278 -278 -278s-278 125 -278 278zM80 268c0 -137 111 -248 248 -248s248 111 248 248s-111 248 -248 248s-248 -111 -248 -248zM347 608l-18 24l151 109l18 -24zM225 608l-18 24l151 109l18 -24z" />
    <glyph glyph-name="Omacron" unicode="&#x14c;" horiz-adv-x="818" 
d="M50 350c0 198 161 359 359 359s359 -161 359 -359s-161 -359 -359 -359s-359 161 -359 359zM80 350c0 -182 147 -329 329 -329s329 147 329 329s-147 329 -329 329s-329 -147 -329 -329zM279 811v30h260v-30h-260z" />
    <glyph glyph-name="Omacron.sc" unicode="&#xf693;" horiz-adv-x="656" 
d="M50 268c0 153 125 278 278 278s278 -125 278 -278s-125 -278 -278 -278s-278 125 -278 278zM80 268c0 -137 111 -248 248 -248s248 111 248 248s-111 248 -248 248s-248 -111 -248 -248zM198 660v30h260v-30h-260z" />
    <glyph glyph-name="Oslash" unicode="&#xd8;" horiz-adv-x="818" 
d="M72 -9l-22 22l94 94c-58 64 -94 149 -94 243c0 198 161 359 359 359c93 0 178 -36 242 -95l95 95l22 -22l-95 -95c59 -64 95 -149 95 -242c0 -198 -161 -359 -359 -359c-94 0 -179 36 -243 94zM738 350c0 85 -33 163 -86 221l-465 -465c59 -53 136 -85 222 -85
c182 0 329 147 329 329zM80 350c0 -86 32 -163 85 -222l465 465c-58 53 -136 86 -221 86c-182 0 -329 -147 -329 -329z" />
    <glyph glyph-name="Oslash.sc" unicode="&#xf7f8;" horiz-adv-x="656" 
d="M50 268c0 153 125 278 278 278c71 0 135 -27 184 -71l72 72l22 -22l-72 -72c45 -49 72 -114 72 -185c0 -153 -125 -278 -278 -278c-71 0 -136 26 -185 70l-71 -71l-22 22l71 71c-44 50 -71 114 -71 186zM80 268c0 -63 23 -121 62 -165l350 351c-44 39 -101 62 -164 62
c-137 0 -248 -111 -248 -248zM576 268c0 63 -24 120 -62 164l-350 -351c44 -38 101 -61 164 -61c137 0 248 111 248 248z" />
    <glyph glyph-name="Oslashacute" unicode="&#x1fe;" horiz-adv-x="818" 
d="M72 -9l-22 22l94 94c-58 64 -94 149 -94 243c0 198 161 359 359 359c93 0 178 -36 242 -95l95 95l22 -22l-95 -95c59 -64 95 -149 95 -242c0 -198 -161 -359 -359 -359c-94 0 -179 36 -243 94zM738 350c0 85 -33 163 -86 221l-465 -465c59 -53 136 -85 222 -85
c182 0 329 147 329 329zM80 350c0 -86 32 -163 85 -222l465 465c-58 53 -136 86 -221 86c-182 0 -329 -147 -329 -329zM343 759l-18 24l151 109l18 -24z" />
    <glyph glyph-name="Oslashacute.sc" unicode="&#xf694;" horiz-adv-x="656" 
d="M50 268c0 153 125 278 278 278c71 0 135 -27 184 -71l72 72l22 -22l-72 -72c45 -49 72 -114 72 -185c0 -153 -125 -278 -278 -278c-71 0 -136 26 -185 70l-71 -71l-22 22l71 71c-44 50 -71 114 -71 186zM80 268c0 -63 23 -121 62 -165l350 351c-44 39 -101 62 -164 62
c-137 0 -248 -111 -248 -248zM576 268c0 63 -24 120 -62 164l-350 -351c44 -38 101 -61 164 -61c137 0 248 111 248 248zM262 608l-18 24l151 109l18 -24z" />
    <glyph glyph-name="Otilde" unicode="&#xd5;" horiz-adv-x="818" 
d="M50 350c0 198 161 359 359 359s359 -161 359 -359s-161 -359 -359 -359s-359 161 -359 359zM80 350c0 -182 147 -329 329 -329s329 147 329 329s-147 329 -329 329s-329 -147 -329 -329zM503 857l24 -18c-18 -33 -47 -47 -71 -47c-18 0 -37 7 -56 21
c-13 10 -26 16 -39 16c-15 0 -35 -11 -46 -35l-24 18c17 32 45 47 70 47c19 0 39 -8 57 -22c13 -10 26 -15 38 -15c14 0 35 10 47 35z" />
    <glyph glyph-name="Otilde.sc" unicode="&#xf7f5;" horiz-adv-x="656" 
d="M50 268c0 153 125 278 278 278s278 -125 278 -278s-125 -278 -278 -278s-278 125 -278 278zM80 268c0 -137 111 -248 248 -248s248 111 248 248s-111 248 -248 248s-248 -111 -248 -248zM422 706l24 -18c-18 -33 -47 -47 -71 -47c-18 0 -37 7 -56 21
c-13 10 -26 16 -39 16c-15 0 -35 -11 -46 -35l-24 18c17 32 45 47 70 47c19 0 39 -8 57 -22c13 -10 26 -15 38 -15c14 0 35 10 47 35z" />
    <glyph glyph-name="P" unicode="P" horiz-adv-x="536" 
d="M100 0h-30v700c26 2 55 3 77 3c226 0 339 -118 339 -234c0 -117 -113 -233 -339 -233c-15 0 -30 1 -47 2v-238zM147 673c-14 0 -30 0 -47 -1v-404c16 -1 33 -2 47 -2c206 0 309 101 309 203s-103 204 -309 204z" />
    <glyph glyph-name="P.sc" unicode="&#xf770;" horiz-adv-x="412" 
d="M119 204c-8 0 -15 0 -23 1v-205h-30v537c15 2 41 3 53 3c158 0 243 -75 243 -169s-85 -167 -243 -167zM96 509v-274c7 -1 14 -1 23 -1c105 0 213 41 213 137c0 75 -68 139 -213 139c-7 0 -16 0 -23 -1z" />
    <glyph glyph-name="Q" unicode="Q" horiz-adv-x="818" 
d="M768 13l-22 -22l-95 94c-64 -58 -149 -94 -242 -94c-198 0 -359 161 -359 359s161 359 359 359s359 -161 359 -359c0 -94 -36 -179 -95 -243zM80 350c0 -182 147 -329 329 -329c85 0 163 32 221 85l-94 95l22 22l94 -95c53 59 86 136 86 222c0 182 -147 329 -329 329
s-329 -147 -329 -329z" />
    <glyph glyph-name="Q.sc" unicode="&#xf771;" horiz-adv-x="656" 
d="M50 268c0 153 125 278 278 278s278 -125 278 -278c0 -73 -28 -139 -74 -188l69 -69c-8 -7 -15 -13 -22 -20l-68 68c-49 -43 -113 -69 -183 -69c-153 0 -278 125 -278 278zM80 268c0 -137 111 -248 248 -248c62 0 118 22 162 60l-66 66l22 20l65 -65c40 44 65 102 65 167
c0 137 -111 248 -248 248s-248 -111 -248 -248z" />
    <glyph glyph-name="R" unicode="R" horiz-adv-x="546" 
d="M100 0h-30v700c26 2 55 3 77 3c226 0 339 -118 339 -234c0 -85 -59 -169 -176 -209l191 -251l-24 -18l-198 260c-38 -10 -83 -15 -132 -15c-15 0 -30 1 -47 2v-238zM147 673c-14 0 -30 0 -47 -1v-404c16 -1 33 -2 47 -2c206 0 309 101 309 203s-103 204 -309 204z" />
    <glyph glyph-name="R.sc" unicode="&#xf772;" horiz-adv-x="428" 
d="M119 204c-8 0 -15 0 -23 1v-205h-30v537c15 2 41 3 53 3c158 0 243 -75 243 -169c0 -95 -85 -141 -137 -154l158 -208l-25 -16l-166 217c-26 -4 -45 -6 -73 -6zM96 509v-274c7 -1 14 -1 23 -1c105 0 213 41 213 137c0 75 -68 139 -213 139c-7 0 -16 0 -23 -1z" />
    <glyph glyph-name="Racute" unicode="&#x154;" horiz-adv-x="546" 
d="M100 0h-30v700c26 2 55 3 77 3c226 0 339 -118 339 -234c0 -85 -59 -169 -176 -209l191 -251l-24 -18l-198 260c-38 -10 -83 -15 -132 -15c-15 0 -30 1 -47 2v-238zM147 673c-14 0 -30 0 -47 -1v-404c16 -1 33 -2 47 -2c206 0 309 101 309 203s-103 204 -309 204z
M156 759l-18 24l151 109l18 -24z" />
    <glyph glyph-name="Racute.sc" unicode="&#xf695;" horiz-adv-x="428" 
d="M119 204c-8 0 -15 0 -23 1v-205h-30v537c15 2 41 3 53 3c158 0 243 -75 243 -169c0 -95 -85 -141 -137 -154l158 -208l-25 -16l-166 217c-26 -4 -45 -6 -73 -6zM96 509v-274c7 -1 14 -1 23 -1c105 0 213 41 213 137c0 75 -68 139 -213 139c-7 0 -16 0 -23 -1zM132 608
l-18 24l151 109l18 -24z" />
    <glyph glyph-name="Rcaron" unicode="&#x158;" horiz-adv-x="546" 
d="M100 0h-30v700c26 2 55 3 77 3c226 0 339 -118 339 -234c0 -85 -59 -169 -176 -209l191 -251l-24 -18l-198 260c-38 -10 -83 -15 -132 -15c-15 0 -30 1 -47 2v-238zM147 673c-14 0 -30 0 -47 -1v-404c16 -1 33 -2 47 -2c206 0 309 101 309 203s-103 204 -309 204z
M274 892l24 -18l-90 -115l-89 115l24 18l65 -83z" />
    <glyph glyph-name="Rcaron.sc" unicode="&#xf696;" horiz-adv-x="428" 
d="M119 204c-8 0 -15 0 -23 1v-205h-30v537c15 2 41 3 53 3c158 0 243 -75 243 -169c0 -95 -85 -141 -137 -154l158 -208l-25 -16l-166 217c-26 -4 -45 -6 -73 -6zM96 509v-274c7 -1 14 -1 23 -1c105 0 213 41 213 137c0 75 -68 139 -213 139c-7 0 -16 0 -23 -1zM237 741
l24 -18l-90 -115l-89 115l24 18l65 -83z" />
    <glyph glyph-name="Rcommaaccent" unicode="&#x156;" horiz-adv-x="546" 
d="M100 0h-30v700c26 2 55 3 77 3c226 0 339 -118 339 -234c0 -85 -59 -169 -176 -209l191 -251l-24 -18l-198 260c-38 -10 -83 -15 -132 -15c-15 0 -30 1 -47 2v-238zM147 673c-14 0 -30 0 -47 -1v-404c16 -1 33 -2 47 -2c206 0 309 101 309 203s-103 204 -309 204z
M255 -50h60v-70c0 -17 0 -58 -47 -75l-10 28c27 9 27 34 27 47v15h-30v55z" />
    <glyph glyph-name="Rcommaaccent.sc" unicode="&#xf697;" horiz-adv-x="428" 
d="M119 204c-8 0 -15 0 -23 1v-205h-30v537c15 2 41 3 53 3c158 0 243 -75 243 -169c0 -95 -85 -141 -137 -154l158 -208l-25 -16l-166 217c-26 -4 -45 -6 -73 -6zM96 509v-274c7 -1 14 -1 23 -1c105 0 213 41 213 137c0 75 -68 139 -213 139c-7 0 -16 0 -23 -1zM194 -50h60
v-70c0 -17 0 -58 -47 -75l-10 28c27 9 27 34 27 47v15h-30v55z" />
    <glyph glyph-name="S" unicode="S" horiz-adv-x="516" 
d="M59 106l28 12c30 -68 94 -100 166 -100c101 0 178 67 178 162c0 84 -98 128 -178 156c-90 31 -198 81 -198 184c0 113 91 192 208 192c84 0 160 -38 194 -118l-28 -12c-30 68 -94 100 -166 100c-101 0 -178 -67 -178 -162c0 -84 98 -128 178 -156
c90 -31 198 -81 198 -184c0 -113 -91 -192 -208 -192c-85 0 -160 38 -194 118z" />
    <glyph glyph-name="S.sc" unicode="&#xf773;" horiz-adv-x="510" 
d="M57 105l28 13c31 -68 93 -95 165 -95c97 0 178 46 178 133c0 75 -103 85 -174 97c-78 13 -202 25 -202 127c0 111 100 163 208 163c82 0 165 -36 194 -115l-27 -12c-28 66 -95 97 -167 97c-100 0 -178 -44 -178 -133c0 -70 87 -84 173 -97c91 -14 203 -25 203 -127
c0 -111 -94 -163 -208 -163c-91 0 -158 33 -193 112z" />
    <glyph glyph-name="Sacute" unicode="&#x15a;" horiz-adv-x="516" 
d="M59 106l28 12c30 -68 94 -100 166 -100c101 0 178 67 178 162c0 84 -98 128 -178 156c-90 31 -198 81 -198 184c0 113 91 192 208 192c84 0 160 -38 194 -118l-28 -12c-30 68 -94 100 -166 100c-101 0 -178 -67 -178 -162c0 -84 98 -128 178 -156
c90 -31 198 -81 198 -184c0 -113 -91 -192 -208 -192c-85 0 -160 38 -194 118zM192 759l-18 24l151 109l18 -24z" />
    <glyph glyph-name="Sacute.sc" unicode="&#xf698;" horiz-adv-x="510" 
d="M57 105l28 13c31 -68 93 -95 165 -95c97 0 178 46 178 133c0 75 -103 85 -174 97c-78 13 -202 25 -202 127c0 111 100 163 208 163c82 0 165 -36 194 -115l-27 -12c-28 66 -95 97 -167 97c-100 0 -178 -44 -178 -133c0 -70 87 -84 173 -97c91 -14 203 -25 203 -127
c0 -111 -94 -163 -208 -163c-91 0 -158 33 -193 112zM189 608l-18 24l151 109l18 -24z" />
    <glyph glyph-name="Scaron" unicode="&#x160;" horiz-adv-x="516" 
d="M59 106l28 12c30 -68 94 -100 166 -100c101 0 178 67 178 162c0 84 -98 128 -178 156c-90 31 -198 81 -198 184c0 113 91 192 208 192c84 0 160 -38 194 -118l-28 -12c-30 68 -94 100 -166 100c-101 0 -178 -67 -178 -162c0 -84 98 -128 178 -156
c90 -31 198 -81 198 -184c0 -113 -91 -192 -208 -192c-85 0 -160 38 -194 118zM324 892l24 -18l-90 -115l-89 115l24 18l65 -83z" />
    <glyph glyph-name="Scaron.sc" unicode="&#xf6fd;" horiz-adv-x="510" 
d="M57 105l28 13c31 -68 93 -95 165 -95c97 0 178 46 178 133c0 75 -103 85 -174 97c-78 13 -202 25 -202 127c0 111 100 163 208 163c82 0 165 -36 194 -115l-27 -12c-28 66 -95 97 -167 97c-100 0 -178 -44 -178 -133c0 -70 87 -84 173 -97c91 -14 203 -25 203 -127
c0 -111 -94 -163 -208 -163c-91 0 -158 33 -193 112zM321 741l24 -18l-90 -115l-89 115l24 18l65 -83z" />
    <glyph glyph-name="Scedilla" unicode="&#x15e;" horiz-adv-x="516" 
d="M214 -106l10 28c7 -3 15 -4 23 -4c16 0 30 5 30 20c0 7 -15 10 -32 10h-13l10 40c-80 3 -151 41 -183 118l28 12c30 -68 94 -100 166 -100c101 0 178 67 178 162c0 84 -98 128 -178 156c-90 31 -198 81 -198 184c0 113 91 192 208 192c84 0 160 -38 194 -118l-28 -12
c-30 68 -94 100 -166 100c-101 0 -178 -67 -178 -162c0 -84 98 -128 178 -156c90 -31 198 -81 198 -184c0 -106 -80 -182 -187 -191l-3 -10c21 -4 36 -18 36 -41c0 -35 -31 -50 -61 -50c-11 0 -22 2 -32 6z" />
    <glyph glyph-name="Scedilla.sc" unicode="&#xf699;" horiz-adv-x="510" 
d="M214 -108l10 28c7 -3 15 -4 23 -4c16 0 30 5 30 20c0 7 -15 10 -32 10h-13l11 47c-87 2 -152 35 -186 112l28 13c31 -68 93 -95 165 -95c97 0 178 46 178 133c0 75 -103 85 -174 97c-78 13 -202 25 -202 127c0 111 100 163 208 163c82 0 165 -36 194 -115l-27 -12
c-28 66 -95 97 -167 97c-100 0 -178 -44 -178 -133c0 -70 87 -84 173 -97c91 -14 203 -25 203 -127c0 -103 -80 -154 -183 -162l-4 -17c21 -4 36 -18 36 -41c0 -35 -31 -50 -61 -50c-11 0 -22 2 -32 6z" />
    <glyph glyph-name="Scircumflex" unicode="&#x15c;" horiz-adv-x="516" 
d="M59 106l28 12c30 -68 94 -100 166 -100c101 0 178 67 178 162c0 84 -98 128 -178 156c-90 31 -198 81 -198 184c0 113 91 192 208 192c84 0 160 -38 194 -118l-28 -12c-30 68 -94 100 -166 100c-101 0 -178 -67 -178 -162c0 -84 98 -128 178 -156
c90 -31 198 -81 198 -184c0 -113 -91 -192 -208 -192c-85 0 -160 38 -194 118zM348 777l-24 -18l-66 83l-65 -83l-24 18l89 115z" />
    <glyph glyph-name="Scircumflex.sc" unicode="&#xf69a;" horiz-adv-x="510" 
d="M57 105l28 13c31 -68 93 -95 165 -95c97 0 178 46 178 133c0 75 -103 85 -174 97c-78 13 -202 25 -202 127c0 111 100 163 208 163c82 0 165 -36 194 -115l-27 -12c-28 66 -95 97 -167 97c-100 0 -178 -44 -178 -133c0 -70 87 -84 173 -97c91 -14 203 -25 203 -127
c0 -111 -94 -163 -208 -163c-91 0 -158 33 -193 112zM345 626l-24 -18l-66 83l-65 -83l-24 18l89 115z" />
    <glyph glyph-name="Scommaaccent" unicode="&#x218;" horiz-adv-x="516" 
d="M59 106l28 12c30 -68 94 -100 166 -100c101 0 178 67 178 162c0 84 -98 128 -178 156c-90 31 -198 81 -198 184c0 113 91 192 208 192c84 0 160 -38 194 -118l-28 -12c-30 68 -94 100 -166 100c-101 0 -178 -67 -178 -162c0 -84 98 -128 178 -156
c90 -31 198 -81 198 -184c0 -113 -91 -192 -208 -192c-85 0 -160 38 -194 118zM228 -50h60v-70c0 -17 0 -58 -47 -75l-10 28c27 9 27 34 27 47v15h-30v55z" />
    <glyph glyph-name="Scommaaccent.sc" unicode="&#xf69b;" horiz-adv-x="510" 
d="M57 105l28 13c31 -68 93 -95 165 -95c97 0 178 46 178 133c0 75 -103 85 -174 97c-78 13 -202 25 -202 127c0 111 100 163 208 163c82 0 165 -36 194 -115l-27 -12c-28 66 -95 97 -167 97c-100 0 -178 -44 -178 -133c0 -70 87 -84 173 -97c91 -14 203 -25 203 -127
c0 -111 -94 -163 -208 -163c-91 0 -158 33 -193 112zM225 -50h60v-70c0 -17 0 -58 -47 -75l-10 28c27 9 27 34 27 47v15h-30v55z" />
    <glyph glyph-name="T" unicode="T" horiz-adv-x="566" 
d="M298 0h-30v670h-218v30h466v-30h-218v-670z" />
    <glyph glyph-name="T.sc" unicode="&#xf774;" horiz-adv-x="526" 
d="M278 0h-30v506h-198v30h426v-30h-198v-506z" />
    <glyph glyph-name="Tbar" unicode="&#x166;" horiz-adv-x="566" 
d="M153 446v30h115v194h-218v30h466v-30h-218v-194h115v-30h-115v-446h-30v446h-115z" />
    <glyph glyph-name="Tbar.sc" unicode="&#xf69c;" horiz-adv-x="526" 
d="M133 295v30h115v181h-198v30h426v-30h-198v-181h115v-30h-115v-295h-30v295h-115z" />
    <glyph glyph-name="Tcaron" unicode="&#x164;" horiz-adv-x="566" 
d="M298 0h-30v670h-218v30h466v-30h-218v-670zM349 892l24 -18l-90 -115l-89 115l24 18l65 -83z" />
    <glyph glyph-name="Tcaron.sc" unicode="&#xf69d;" horiz-adv-x="526" 
d="M278 0h-30v506h-198v30h426v-30h-198v-506zM329 741l24 -18l-90 -115l-89 115l24 18l65 -83z" />
    <glyph glyph-name="Tcommaaccent" unicode="&#x162;" horiz-adv-x="566" 
d="M298 0h-30v670h-218v30h466v-30h-218v-670zM253 -50h60v-70c0 -17 0 -58 -47 -75l-10 28c27 9 27 34 27 47v15h-30v55z" />
    <glyph glyph-name="Tcommaaccent.sc" unicode="&#xf69e;" horiz-adv-x="526" 
d="M278 0h-30v506h-198v30h426v-30h-198v-506zM233 -50h60v-70c0 -17 0 -58 -47 -75l-10 28c27 9 27 34 27 47v15h-30v55z" />
    <glyph glyph-name="Thorn" unicode="&#xde;" horiz-adv-x="467" 
d="M100 700v-136c14 1 29 2 44 2c177 0 273 -105 273 -215c0 -111 -96 -215 -273 -215c-15 0 -30 0 -44 2v-138h-30v700h30zM144 536c-14 0 -28 -1 -44 -3v-365c16 -2 30 -2 44 -2c157 0 243 89 243 185c0 95 -86 185 -243 185z" />
    <glyph glyph-name="Thorn.sc" unicode="&#xf7fe;" horiz-adv-x="392" 
d="M96 536v-101c12 1 24 2 35 2c141 0 211 -83 211 -168c0 -83 -70 -168 -210 -168c-12 0 -24 0 -36 1v-102h-30v536h30zM131 407c-11 0 -23 -1 -35 -2v-273c13 -1 24 -1 36 -1c120 0 180 69 180 138s-60 138 -181 138z" />
    <glyph glyph-name="U" unicode="U" horiz-adv-x="558" 
d="M66 700h30v-507c0 -103 85 -173 183 -173s183 70 183 173v507h30v-507c0 -121 -99 -203 -213 -203s-213 82 -213 203v507z" />
    <glyph glyph-name="U.sc" unicode="&#xf775;" horiz-adv-x="538" 
d="M60 536h30v-343c0 -101 80 -173 179 -173s179 72 179 173v343h30v-343c0 -124 -96 -203 -209 -203s-209 82 -209 203v343z" />
    <glyph glyph-name="Uacute" unicode="&#xda;" horiz-adv-x="558" 
d="M66 700h30v-507c0 -103 85 -173 183 -173s183 70 183 173v507h30v-507c0 -121 -99 -203 -213 -203s-213 82 -213 203v507zM213 759l-18 24l151 109l18 -24z" />
    <glyph glyph-name="Uacute.sc" unicode="&#xf7fa;" horiz-adv-x="538" 
d="M60 536h30v-343c0 -101 80 -173 179 -173s179 72 179 173v343h30v-343c0 -124 -96 -203 -209 -203s-209 82 -209 203v343zM203 608l-18 24l151 109l18 -24z" />
    <glyph glyph-name="Ubreve" unicode="&#x16c;" horiz-adv-x="558" 
d="M66 700h30v-507c0 -103 85 -173 183 -173s183 70 183 173v507h30v-507c0 -121 -99 -203 -213 -203s-213 82 -213 203v507zM349 871h30c0 -50 -40 -90 -100 -90s-100 40 -100 90h30c0 -35 27 -60 70 -60s70 25 70 60z" />
    <glyph glyph-name="Ubreve.sc" unicode="&#xf69f;" horiz-adv-x="538" 
d="M60 536h30v-343c0 -101 80 -173 179 -173s179 72 179 173v343h30v-343c0 -124 -96 -203 -209 -203s-209 82 -209 203v343zM339 720h30c0 -50 -40 -90 -100 -90s-100 40 -100 90h30c0 -35 27 -60 70 -60s70 25 70 60z" />
    <glyph glyph-name="Ucircumflex" unicode="&#xdb;" horiz-adv-x="558" 
d="M66 700h30v-507c0 -103 85 -173 183 -173s183 70 183 173v507h30v-507c0 -121 -99 -203 -213 -203s-213 82 -213 203v507zM369 777l-24 -18l-66 83l-65 -83l-24 18l89 115z" />
    <glyph glyph-name="Ucircumflex.sc" unicode="&#xf7fb;" horiz-adv-x="538" 
d="M60 536h30v-343c0 -101 80 -173 179 -173s179 72 179 173v343h30v-343c0 -124 -96 -203 -209 -203s-209 82 -209 203v343zM359 626l-24 -18l-66 83l-65 -83l-24 18l89 115z" />
    <glyph glyph-name="Udieresis" unicode="&#xdc;" horiz-adv-x="558" 
d="M66 700h30v-507c0 -103 85 -173 183 -173s183 70 183 173v507h30v-507c0 -121 -99 -203 -213 -203s-213 82 -213 203v507zM187 801v50h50v-50h-50zM322 801v50h50v-50h-50z" />
    <glyph glyph-name="Udieresis.sc" unicode="&#xf7fc;" horiz-adv-x="538" 
d="M60 536h30v-343c0 -101 80 -173 179 -173s179 72 179 173v343h30v-343c0 -124 -96 -203 -209 -203s-209 82 -209 203v343zM177 650v50h50v-50h-50zM312 650v50h50v-50h-50z" />
    <glyph glyph-name="Ugrave" unicode="&#xd9;" horiz-adv-x="558" 
d="M66 700h30v-507c0 -103 85 -173 183 -173s183 70 183 173v507h30v-507c0 -121 -99 -203 -213 -203s-213 82 -213 203v507zM364 783l-18 -24l-151 109l18 24z" />
    <glyph glyph-name="Ugrave.sc" unicode="&#xf7f9;" horiz-adv-x="538" 
d="M60 536h30v-343c0 -101 80 -173 179 -173s179 72 179 173v343h30v-343c0 -124 -96 -203 -209 -203s-209 82 -209 203v343zM354 632l-18 -24l-151 109l18 24z" />
    <glyph glyph-name="Uhungarumlaut" unicode="&#x170;" horiz-adv-x="558" 
d="M66 700h30v-507c0 -103 85 -173 183 -173s183 70 183 173v507h30v-507c0 -121 -99 -203 -213 -203s-213 82 -213 203v507zM315 759l-18 24l151 109l18 -24zM193 759l-18 24l151 109l18 -24z" />
    <glyph glyph-name="Uhungarumlaut.sc" unicode="&#xf6a0;" horiz-adv-x="538" 
d="M60 536h30v-343c0 -101 80 -173 179 -173s179 72 179 173v343h30v-343c0 -124 -96 -203 -209 -203s-209 82 -209 203v343zM294 608l-18 24l151 109l18 -24zM172 608l-18 24l151 109l18 -24z" />
    <glyph glyph-name="Umacron" unicode="&#x16a;" horiz-adv-x="558" 
d="M66 700h30v-507c0 -103 85 -173 183 -173s183 70 183 173v507h30v-507c0 -121 -99 -203 -213 -203s-213 82 -213 203v507zM149 811v30h260v-30h-260z" />
    <glyph glyph-name="Umacron.sc" unicode="&#xf6a1;" horiz-adv-x="538" 
d="M60 536h30v-343c0 -101 80 -173 179 -173s179 72 179 173v343h30v-343c0 -124 -96 -203 -209 -203s-209 82 -209 203v343zM139 660v30h260v-30h-260z" />
    <glyph glyph-name="Uogonek" unicode="&#x172;" horiz-adv-x="558" 
d="M311 -78l16 -26c-16 -10 -32 -15 -46 -15c-30 0 -51 19 -51 47c0 22 12 43 42 62c-111 3 -206 84 -206 203v507h30v-507c0 -103 85 -173 183 -173s183 70 183 173v507h30v-507c0 -115 -89 -194 -195 -202l9 -16c-33 -17 -46 -33 -46 -47c0 -10 9 -17 21 -17
c8 0 18 3 30 11z" />
    <glyph glyph-name="Uogonek.sc" unicode="&#xf6a2;" horiz-adv-x="538" 
d="M301 -78l16 -26c-16 -10 -32 -15 -46 -15c-30 0 -51 19 -51 47c0 22 12 43 42 62c-110 3 -202 84 -202 203v343h30v-343c0 -101 80 -173 179 -173s179 72 179 173v343h30v-343c0 -117 -86 -194 -191 -202l9 -16c-33 -17 -46 -33 -46 -47c0 -10 9 -17 21 -17
c8 0 18 3 30 11z" />
    <glyph glyph-name="Uring" unicode="&#x16e;" horiz-adv-x="558" 
d="M66 700h30v-507c0 -103 85 -173 183 -173s183 70 183 173v507h30v-507c0 -121 -99 -203 -213 -203s-213 82 -213 203v507zM212 826c0 37 30 67 67 67s67 -30 67 -67s-30 -67 -67 -67s-67 30 -67 67zM242 826c0 -20 17 -37 37 -37s37 17 37 37s-17 37 -37 37
s-37 -17 -37 -37z" />
    <glyph glyph-name="Uring.sc" unicode="&#xf6a3;" horiz-adv-x="538" 
d="M60 536h30v-343c0 -101 80 -173 179 -173s179 72 179 173v343h30v-343c0 -124 -96 -203 -209 -203s-209 82 -209 203v343zM202 675c0 37 30 67 67 67s67 -30 67 -67s-30 -67 -67 -67s-67 30 -67 67zM232 675c0 -20 17 -37 37 -37s37 17 37 37s-17 37 -37 37
s-37 -17 -37 -37z" />
    <glyph glyph-name="Utilde" unicode="&#x168;" horiz-adv-x="558" 
d="M66 700h30v-507c0 -103 85 -173 183 -173s183 70 183 173v507h30v-507c0 -121 -99 -203 -213 -203s-213 82 -213 203v507zM373 857l24 -18c-18 -33 -47 -47 -71 -47c-18 0 -37 7 -56 21c-13 10 -26 16 -39 16c-15 0 -35 -11 -46 -35l-24 18c17 32 45 47 70 47
c19 0 39 -8 57 -22c13 -10 26 -15 38 -15c14 0 35 10 47 35z" />
    <glyph glyph-name="Utilde.sc" unicode="&#xf6a4;" horiz-adv-x="538" 
d="M60 536h30v-343c0 -101 80 -173 179 -173s179 72 179 173v343h30v-343c0 -124 -96 -203 -209 -203s-209 82 -209 203v343zM363 706l24 -18c-18 -33 -47 -47 -71 -47c-18 0 -37 7 -56 21c-13 10 -26 16 -39 16c-15 0 -35 -11 -46 -35l-24 18c17 32 45 47 70 47
c19 0 39 -8 57 -22c13 -10 26 -15 38 -15c14 0 35 10 47 35z" />
    <glyph glyph-name="V" unicode="V" horiz-adv-x="634" 
d="M49 695l28 9l240 -646l240 646l28 -9l-268 -723z" />
    <glyph glyph-name="V.sc" unicode="&#xf776;" horiz-adv-x="526" 
d="M50 531l28 10l185 -479l185 479l28 -10l-213 -551z" />
    <glyph glyph-name="W" unicode="W" horiz-adv-x="773" 
d="M299 696l28 8l59 -204l60 204l28 -8l-73 -248l110 -374l184 630l28 -8l-212 -726l-125 427l-124 -427l-212 726l28 8l184 -630l109 374z" />
    <glyph glyph-name="W.sc" unicode="&#xf777;" horiz-adv-x="778" 
d="M302 531l28 10l59 -153l59 153l28 -10l-71 -184l110 -285l185 479l28 -10l-213 -551l-126 326l-126 -326l-213 551l28 10l185 -479l110 285z" />
    <glyph glyph-name="Wacute" unicode="&#x1e82;" horiz-adv-x="773" 
d="M299 696l28 8l59 -204l60 204l28 -8l-73 -248l110 -374l184 630l28 -8l-212 -726l-125 427l-124 -427l-212 726l28 8l184 -630l109 374zM320 759l-18 24l151 109l18 -24z" />
    <glyph glyph-name="Wacute.sc" unicode="&#xf6a5;" horiz-adv-x="778" 
d="M323 608l-18 24l151 109l18 -24zM302 531l28 10l59 -153l59 153l28 -10l-71 -184l110 -285l185 479l28 -10l-213 -551l-126 326l-126 -326l-213 551l28 10l185 -479l110 285z" />
    <glyph glyph-name="Wcircumflex" unicode="&#x174;" horiz-adv-x="773" 
d="M299 696l28 8l59 -204l60 204l28 -8l-73 -248l110 -374l184 630l28 -8l-212 -726l-125 427l-124 -427l-212 726l28 8l184 -630l109 374zM476 777l-24 -18l-66 83l-65 -83l-24 18l89 115z" />
    <glyph glyph-name="Wcircumflex.sc" unicode="&#xf6a6;" horiz-adv-x="778" 
d="M479 626l-24 -18l-66 83l-65 -83l-24 18l89 115zM302 531l28 10l59 -153l59 153l28 -10l-71 -184l110 -285l185 479l28 -10l-213 -551l-126 326l-126 -326l-213 551l28 10l185 -479l110 285z" />
    <glyph glyph-name="Wdieresis" unicode="&#x1e84;" horiz-adv-x="773" 
d="M299 696l28 8l59 -204l60 204l28 -8l-73 -248l110 -374l184 630l28 -8l-212 -726l-125 427l-124 -427l-212 726l28 8l184 -630l109 374zM294 801v50h50v-50h-50zM429 801v50h50v-50h-50z" />
    <glyph glyph-name="Wdieresis.sc" unicode="&#xf6a7;" horiz-adv-x="778" 
d="M297 650v50h50v-50h-50zM432 650v50h50v-50h-50zM302 531l28 10l59 -153l59 153l28 -10l-71 -184l110 -285l185 479l28 -10l-213 -551l-126 326l-126 -326l-213 551l28 10l185 -479l110 285z" />
    <glyph glyph-name="Wgrave" unicode="&#x1e80;" horiz-adv-x="773" 
d="M299 696l28 8l59 -204l60 204l28 -8l-73 -248l110 -374l184 630l28 -8l-212 -726l-125 427l-124 -427l-212 726l28 8l184 -630l109 374zM471 783l-18 -24l-151 109l18 24z" />
    <glyph glyph-name="Wgrave.sc" unicode="&#xf6a8;" horiz-adv-x="778" 
d="M474 632l-18 -24l-151 109l18 24zM302 531l28 10l59 -153l59 153l28 -10l-71 -184l110 -285l185 479l28 -10l-213 -551l-126 326l-126 -326l-213 551l28 10l185 -479l110 285z" />
    <glyph glyph-name="X" unicode="X" horiz-adv-x="558" 
d="M482 -8l-203 329l-203 -329l-26 16l211 342l-211 342l26 16l203 -329l203 329l26 -16l-211 -342l211 -342z" />
    <glyph glyph-name="X.sc" unicode="&#xf778;" horiz-adv-x="554" 
d="M74 -9l-24 18l208 259l-208 259l24 18l203 -253l203 253l24 -18l-208 -259l208 -259l-24 -18l-203 252z" />
    <glyph glyph-name="Y" unicode="Y" horiz-adv-x="558" 
d="M294 0h-30v345l-214 347l26 16l203 -329l203 329l26 -16l-214 -347v-345z" />
    <glyph glyph-name="Y.sc" unicode="&#xf779;" horiz-adv-x="553" 
d="M290 0h-30v263l-210 263l22 19l203 -253l206 255l22 -21l-213 -263v-263z" />
    <glyph glyph-name="Yacute" unicode="&#xdd;" horiz-adv-x="558" 
d="M294 0h-30v345l-214 347l26 16l203 -329l203 329l26 -16l-214 -347v-345zM213 759l-18 24l151 109l18 -24z" />
    <glyph glyph-name="Yacute.sc" unicode="&#xf7fd;" horiz-adv-x="553" 
d="M290 0h-30v263l-210 263l22 19l203 -253l206 255l22 -21l-213 -263v-263zM209 608l-18 24l151 109l18 -24z" />
    <glyph glyph-name="Ycircumflex" unicode="&#x176;" horiz-adv-x="558" 
d="M294 0h-30v345l-214 347l26 16l203 -329l203 329l26 -16l-214 -347v-345zM369 777l-24 -18l-66 83l-65 -83l-24 18l89 115z" />
    <glyph glyph-name="Ycircumflex.sc" unicode="&#xf6a9;" horiz-adv-x="553" 
d="M290 0h-30v263l-210 263l22 19l203 -253l206 255l22 -21l-213 -263v-263zM365 626l-24 -18l-66 83l-65 -83l-24 18l89 115z" />
    <glyph glyph-name="Ydieresis" unicode="&#x178;" horiz-adv-x="558" 
d="M294 0h-30v345l-214 347l26 16l203 -329l203 329l26 -16l-214 -347v-345zM187 801v50h50v-50h-50zM322 801v50h50v-50h-50z" />
    <glyph glyph-name="Ydieresis.sc" unicode="&#xf7ff;" horiz-adv-x="553" 
d="M290 0h-30v263l-210 263l22 19l203 -253l206 255l22 -21l-213 -263v-263zM183 650v50h50v-50h-50zM318 650v50h50v-50h-50z" />
    <glyph glyph-name="Ygrave" unicode="&#x1ef2;" horiz-adv-x="558" 
d="M294 0h-30v345l-214 347l26 16l203 -329l203 329l26 -16l-214 -347v-345zM364 783l-18 -24l-151 109l18 24z" />
    <glyph glyph-name="Ygrave.sc" unicode="&#xf6aa;" horiz-adv-x="553" 
d="M290 0h-30v263l-210 263l22 19l203 -253l206 255l22 -21l-213 -263v-263zM360 632l-18 -24l-151 109l18 24z" />
    <glyph glyph-name="Z" unicode="Z" horiz-adv-x="550" 
d="M58 670v30h437l-388 -670h385v-30h-437l388 670h-385z" />
    <glyph glyph-name="Z.sc" unicode="&#xf77a;" horiz-adv-x="534" 
d="M50 506v30h438l-381 -506h377v-30h-438l381 506h-377z" />
    <glyph glyph-name="Zacute" unicode="&#x179;" horiz-adv-x="550" 
d="M58 670v30h437l-388 -670h385v-30h-437l388 670h-385zM209 759l-18 24l151 109l18 -24z" />
    <glyph glyph-name="Zacute.sc" unicode="&#xf6ab;" horiz-adv-x="534" 
d="M50 506v30h438l-381 -506h377v-30h-438l381 506h-377zM201 608l-18 24l151 109l18 -24z" />
    <glyph glyph-name="Zcaron" unicode="&#x17d;" horiz-adv-x="550" 
d="M55 670v30h437l-388 -670h385v-30h-437l388 670h-385zM338 892l24 -18l-90 -115l-89 115l24 18l65 -83z" />
    <glyph glyph-name="Zcaron.sc" unicode="&#xf6ff;" horiz-adv-x="534" 
d="M50 506v30h438l-381 -506h377v-30h-438l381 506h-377zM333 741l24 -18l-90 -115l-89 115l24 18l65 -83z" />
    <glyph glyph-name="Zdotaccent" unicode="&#x17b;" horiz-adv-x="550" 
d="M55 670v30h437l-388 -670h385v-30h-437l388 670h-385zM247 801v50h50v-50h-50z" />
    <glyph glyph-name="Zdotaccent.sc" unicode="&#xf6ac;" horiz-adv-x="534" 
d="M50 506v30h438l-381 -506h377v-30h-438l381 506h-377zM242 650v50h50v-50h-50z" />
    <glyph glyph-name="a" unicode="a" horiz-adv-x="532" 
d="M130 452l-22 20c49 47 109 74 184 74c77 0 180 -49 180 -205v-341h-30v52c-48 -44 -112 -62 -175 -62c-112 0 -212 77 -212 197s99 195 212 195c74 0 133 -29 175 -69v28c0 134 -85 175 -150 175c-68 0 -121 -24 -162 -64zM267 20c65 0 131 22 175 76v174
c-44 54 -105 82 -175 82c-97 0 -182 -63 -182 -165s86 -167 182 -167z" />
    <glyph glyph-name="aacute" unicode="&#xe1;" horiz-adv-x="532" 
d="M130 452l-22 20c49 47 109 74 184 74c77 0 180 -49 180 -205v-341h-30v52c-48 -44 -112 -62 -175 -62c-112 0 -212 77 -212 197s99 195 212 195c74 0 133 -29 175 -69v28c0 134 -85 175 -150 175c-68 0 -121 -24 -162 -64zM267 20c65 0 131 22 175 76v174
c-44 54 -105 82 -175 82c-97 0 -182 -63 -182 -165s86 -167 182 -167zM232 608l-18 24l151 109l18 -24z" />
    <glyph glyph-name="abreve" unicode="&#x103;" horiz-adv-x="532" 
d="M130 452l-22 20c49 47 109 74 184 74c77 0 180 -49 180 -205v-341h-30v52c-48 -44 -112 -62 -175 -62c-112 0 -212 77 -212 197s99 195 212 195c74 0 133 -29 175 -69v28c0 134 -85 175 -150 175c-68 0 -121 -24 -162 -64zM267 20c65 0 131 22 175 76v174
c-44 54 -105 82 -175 82c-97 0 -182 -63 -182 -165s86 -167 182 -167zM347 720h30c0 -50 -40 -90 -100 -90s-100 40 -100 90h30c0 -35 27 -60 70 -60s70 25 70 60z" />
    <glyph glyph-name="acircumflex" unicode="&#xe2;" horiz-adv-x="532" 
d="M130 452l-22 20c49 47 109 74 184 74c77 0 180 -49 180 -205v-341h-30v52c-48 -44 -112 -62 -175 -62c-112 0 -212 77 -212 197s99 195 212 195c74 0 133 -29 175 -69v28c0 134 -85 175 -150 175c-68 0 -121 -24 -162 -64zM267 20c65 0 131 22 175 76v174
c-44 54 -105 82 -175 82c-97 0 -182 -63 -182 -165s86 -167 182 -167zM381 626l-24 -18l-66 83l-65 -83l-24 18l89 115z" />
    <glyph glyph-name="acute" unicode="&#xb4;" horiz-adv-x="309" 
d="M88 608l-18 24l151 109l18 -24z" />
    <glyph glyph-name="adieresis" unicode="&#xe4;" horiz-adv-x="532" 
d="M130 452l-22 20c49 47 109 74 184 74c77 0 180 -49 180 -205v-341h-30v52c-48 -44 -112 -62 -175 -62c-112 0 -212 77 -212 197s99 195 212 195c74 0 133 -29 175 -69v28c0 134 -85 175 -150 175c-68 0 -121 -24 -162 -64zM267 20c65 0 131 22 175 76v174
c-44 54 -105 82 -175 82c-97 0 -182 -63 -182 -165s86 -167 182 -167zM194 650v50h50v-50h-50zM329 650v50h50v-50h-50z" />
    <glyph glyph-name="ae" unicode="&#xe6;" horiz-adv-x="934" 
d="M834 30v-30c-22 -2 -44 -4 -64 -4c-154 0 -253 65 -298 151v-147h-30v52c-48 -44 -112 -62 -175 -62c-112 0 -212 77 -212 197s99 195 212 195c74 0 133 -29 175 -69v27c0 135 -85 176 -150 176c-68 0 -121 -24 -162 -64l-22 20c49 47 109 74 184 74
c77 0 156 -47 174 -146c46 108 146 146 214 146c142 0 204 -110 204 -252h-411c-1 -8 -1 -16 -1 -24v-9c4 -116 95 -234 301 -234c19 0 40 1 61 3zM267 20c65 0 131 22 175 76v174c-44 54 -105 82 -175 82c-97 0 -182 -63 -182 -165s86 -167 182 -167zM680 516
c-86 0 -183 -62 -204 -192h376c0 84 -46 192 -172 192z" />
    <glyph glyph-name="aeacute" unicode="&#x1fd;" horiz-adv-x="924" 
d="M425 608l-18 24l151 109l18 -24zM834 30v-30c-22 -2 -44 -4 -64 -4c-154 0 -253 65 -298 151v-147h-30v52c-48 -44 -112 -62 -175 -62c-112 0 -212 77 -212 197s99 195 212 195c74 0 133 -29 175 -69v27c0 135 -85 176 -150 176c-68 0 -121 -24 -162 -64l-22 20
c49 47 109 74 184 74c77 0 156 -47 174 -146c46 108 146 146 214 146c142 0 204 -110 204 -252h-411c-1 -8 -1 -16 -1 -24v-9c4 -116 95 -234 301 -234c19 0 40 1 61 3zM267 20c65 0 131 22 175 76v174c-44 54 -105 82 -175 82c-97 0 -182 -63 -182 -165s86 -167 182 -167z
M680 516c-86 0 -183 -62 -204 -192h376c0 84 -46 192 -172 192z" />
    <glyph glyph-name="agrave" unicode="&#xe0;" horiz-adv-x="532" 
d="M130 452l-22 20c49 47 109 74 184 74c77 0 180 -49 180 -205v-341h-30v52c-48 -44 -112 -62 -175 -62c-112 0 -212 77 -212 197s99 195 212 195c74 0 133 -29 175 -69v28c0 134 -85 175 -150 175c-68 0 -121 -24 -162 -64zM267 20c65 0 131 22 175 76v174
c-44 54 -105 82 -175 82c-97 0 -182 -63 -182 -165s86 -167 182 -167zM369 632l-18 -24l-151 109l18 24z" />
    <glyph glyph-name="amacron" unicode="&#x101;" horiz-adv-x="532" 
d="M130 452l-22 20c49 47 109 74 184 74c77 0 180 -49 180 -205v-341h-30v52c-48 -44 -112 -62 -175 -62c-112 0 -212 77 -212 197s99 195 212 195c74 0 133 -29 175 -69v28c0 134 -85 175 -150 175c-68 0 -121 -24 -162 -64zM267 20c65 0 131 22 175 76v174
c-44 54 -105 82 -175 82c-97 0 -182 -63 -182 -165s86 -167 182 -167zM148 660v30h260v-30h-260z" />
    <glyph glyph-name="ampersand" unicode="&#x26;" horiz-adv-x="487" 
d="M306 392h58v47h30v-47h48v-30h-48v-361c-21 -2 -44 -3 -62 -3c-156 0 -277 75 -277 196c0 83 61 156 158 185c-67 27 -105 83 -105 153c0 108 89 173 200 173c12 0 24 -1 35 -2l-2 -30c-11 1 -23 2 -33 2c-95 0 -170 -53 -170 -143c0 -80 64 -140 168 -140zM364 362h-58
c-131 0 -221 -77 -221 -168c0 -103 107 -166 247 -166c10 0 20 0 32 1v333z" />
    <glyph glyph-name="ampersand.sc" unicode="&#xf726;" horiz-adv-x="451" 
d="M401 310v-30h-48v-279c-21 -2 -47 -3 -62 -3c-158 0 -236 77 -236 155c0 58 44 117 132 143c-53 24 -79 67 -79 113c0 65 57 132 170 132c12 0 24 -1 36 -2l-2 -30c-12 1 -24 2 -34 2c-93 0 -140 -51 -140 -102c0 -49 46 -99 133 -99h52v47h30v-47h48zM323 280h-41
c-130 0 -197 -69 -197 -127c0 -63 68 -125 206 -125c10 0 22 0 32 1v251z" />
    <glyph glyph-name="aogonek" unicode="&#x105;" horiz-adv-x="532" 
d="M469 -65l16 -26c-16 -10 -32 -15 -46 -15c-30 0 -51 19 -51 47c0 25 15 48 54 69v42c-48 -44 -112 -62 -175 -62c-112 0 -212 77 -212 197s99 195 212 195c74 0 133 -29 175 -69v28c0 134 -85 175 -150 175c-68 0 -121 -24 -162 -64l-22 20c49 47 109 74 184 74
c77 0 180 -49 180 -205v-341h-15l7 -12c-33 -17 -46 -33 -46 -47c0 -10 9 -17 21 -17c8 0 18 3 30 11zM267 20c65 0 131 22 175 76v174c-44 54 -105 82 -175 82c-97 0 -182 -63 -182 -165s86 -167 182 -167z" />
    <glyph glyph-name="aring" unicode="&#xe5;" horiz-adv-x="532" 
d="M130 452l-22 20c49 47 109 74 184 74c77 0 180 -49 180 -205v-341h-30v52c-48 -44 -112 -62 -175 -62c-112 0 -212 77 -212 197s99 195 212 195c74 0 133 -29 175 -69v28c0 134 -85 175 -150 175c-68 0 -121 -24 -162 -64zM267 20c65 0 131 22 175 76v174
c-44 54 -105 82 -175 82c-97 0 -182 -63 -182 -165s86 -167 182 -167zM209 675c0 37 30 67 67 67s67 -30 67 -67s-30 -67 -67 -67s-67 30 -67 67zM239 675c0 -20 17 -37 37 -37s37 17 37 37s-17 37 -37 37s-37 -17 -37 -37z" />
    <glyph glyph-name="asciicircum" unicode="^" horiz-adv-x="325" 
d="M275 555l-24 -18l-88 113l-89 -113l-24 18l113 145z" />
    <glyph glyph-name="asciitilde" unicode="~" horiz-adv-x="511" 
d="M437 336l24 -18c-32 -41 -69 -61 -110 -61c-33 0 -73 17 -105 41c-29 21 -57 34 -85 34c-30 0 -60 -15 -87 -49l-24 18c33 42 72 61 111 61c34 0 68 -14 103 -40c29 -23 59 -35 87 -35c31 0 60 16 86 49z" />
    <glyph glyph-name="asterisk" unicode="*" horiz-adv-x="394" 
d="M212 674v-130l124 40l8 -28l-124 -40l77 -104l-24 -18l-77 104l-75 -103l-24 18l75 103l-122 40l10 28l122 -40v130h30z" />
    <glyph glyph-name="at" unicode="@" horiz-adv-x="840" 
d="M409 419c-59 0 -124 -42 -124 -116s65 -117 124 -117c32 0 80 6 119 51v127c-40 45 -88 55 -119 55zM575 53l12 -28c-53 -26 -101 -40 -167 -40c-201 0 -365 164 -365 365s164 365 365 365s365 -164 365 -365c0 -91 -54 -190 -162 -190c-35 0 -67 20 -84 44
c-44 -41 -95 -48 -130 -48c-73 0 -154 53 -154 147s81 146 154 146c32 0 78 -8 119 -41v1c0 75 -44 119 -101 119c-32 0 -72 -6 -112 -46l-22 22c46 46 96 54 134 54c75 0 131 -56 131 -149v-171c0 -21 31 -48 65 -48c88 0 132 83 132 160c0 185 -150 335 -335 335
s-335 -150 -335 -335s150 -335 335 -335c60 0 104 14 155 38z" />
    <glyph glyph-name="atilde" unicode="&#xe3;" horiz-adv-x="532" 
d="M130 452l-22 20c49 47 109 74 184 74c77 0 180 -49 180 -205v-341h-30v52c-48 -44 -112 -62 -175 -62c-112 0 -212 77 -212 197s99 195 212 195c74 0 133 -29 175 -69v28c0 134 -85 175 -150 175c-68 0 -121 -24 -162 -64zM267 20c65 0 131 22 175 76v174
c-44 54 -105 82 -175 82c-97 0 -182 -63 -182 -165s86 -167 182 -167zM378 706l24 -18c-18 -33 -47 -47 -71 -47c-18 0 -37 7 -56 21c-13 10 -26 16 -39 16c-15 0 -35 -11 -46 -35l-24 18c17 32 45 47 70 47c19 0 39 -8 57 -22c13 -10 26 -15 38 -15c14 0 35 10 47 35z" />
    <glyph glyph-name="b" unicode="b" horiz-adv-x="532" 
d="M143 27c206 0 309 121 309 243s-103 244 -310 244c-14 0 -30 -1 -46 -2v-484c17 -1 33 -1 47 -1zM66 893h30v-351c17 1 31 2 46 2c227 0 340 -136 340 -274c0 -137 -113 -273 -339 -273c-22 0 -51 1 -77 3v893z" />
    <glyph glyph-name="backslash" unicode="\" horiz-adv-x="455" 
d="M435 -34l-28 -12l-387 829l28 12z" />
    <glyph glyph-name="bar" unicode="|" horiz-adv-x="184" 
d="M77 893h30v-1013h-30v1013z" />
    <glyph glyph-name="braceleft" unicode="{" horiz-adv-x="250" 
d="M250 810v-30c-81 0 -120 -49 -120 -95c0 -68 30 -160 30 -243c0 -42 -30 -73 -64 -92c34 -19 64 -49 64 -92c0 -84 -30 -176 -30 -243c0 -46 39 -95 120 -95v-30c-101 0 -150 65 -150 125c0 80 30 170 30 243c0 39 -53 73 -83 80v24c30 7 83 41 83 80
c0 73 -30 163 -30 243c0 60 49 125 150 125z" />
    <glyph glyph-name="braceright" unicode="}" horiz-adv-x="250" 
d="M0 780v30c101 0 150 -65 150 -125c0 -80 -30 -170 -30 -243c0 -39 53 -73 83 -80v-24c-30 -7 -83 -41 -83 -80c0 -73 30 -163 30 -243c0 -60 -49 -125 -150 -125v30c81 0 120 49 120 95c0 67 -30 159 -30 243c0 43 30 73 64 92c-34 19 -64 50 -64 92c0 83 30 175 30 243
c0 46 -39 95 -120 95z" />
    <glyph glyph-name="bracketleft" unicode="[" horiz-adv-x="240" 
d="M70 810h170v-30h-140v-860h140v-30h-170v920z" />
    <glyph glyph-name="bracketright" unicode="]" horiz-adv-x="240" 
d="M0 810h170v-920h-170v30h140v860h-140v30z" />
    <glyph glyph-name="breve" unicode="&#x2d8;" horiz-adv-x="340" 
d="M240 720h30c0 -50 -40 -90 -100 -90s-100 40 -100 90h30c0 -35 27 -60 70 -60s70 25 70 60z" />
    <glyph glyph-name="brokenbar" unicode="&#xa6;" horiz-adv-x="230" 
d="M100 893h30v-440h-30v440zM100 320h30v-440h-30v440z" />
    <glyph glyph-name="bullet" unicode="&#x2022;" horiz-adv-x="260" 
d="M50 300c0 44 36 80 80 80s80 -36 80 -80s-36 -80 -80 -80s-80 36 -80 80z" />
    <glyph glyph-name="c" unicode="c" horiz-adv-x="503" 
d="M451 26l2 -30c-22 -2 -43 -3 -64 -3c-226 0 -339 137 -339 275s113 276 339 276c21 0 42 -1 64 -3l-2 -30c-22 2 -43 3 -62 3c-206 0 -309 -124 -309 -246s103 -245 309 -245c19 0 40 1 62 3z" />
    <glyph glyph-name="cacute" unicode="&#x107;" horiz-adv-x="503" 
d="M451 26l2 -30c-22 -2 -43 -3 -64 -3c-226 0 -339 137 -339 275s113 276 339 276c21 0 42 -1 64 -3l-2 -30c-22 2 -43 3 -62 3c-206 0 -309 -124 -309 -246s103 -245 309 -245c19 0 40 1 62 3zM239 608l-18 24l151 109l18 -24z" />
    <glyph glyph-name="caron" unicode="&#x2c7;" horiz-adv-x="319" 
d="M225 741l24 -18l-90 -115l-89 115l24 18l65 -83z" />
    <glyph glyph-name="ccaron" unicode="&#x10d;" horiz-adv-x="503" 
d="M451 26l2 -30c-22 -2 -43 -3 -64 -3c-226 0 -339 137 -339 275s113 276 339 276c21 0 42 -1 64 -3l-2 -30c-22 2 -43 3 -62 3c-206 0 -309 -124 -309 -246s103 -245 309 -245c19 0 40 1 62 3zM363 741l24 -18l-90 -115l-89 115l24 18l65 -83z" />
    <glyph glyph-name="ccedilla" unicode="&#xe7;" horiz-adv-x="503" 
d="M255 -105l10 28c7 -3 15 -4 23 -4c16 0 30 5 30 20c0 7 -15 10 -32 10h-13l14 54c-158 35 -237 150 -237 265c0 138 113 276 340 276c21 0 41 -1 63 -3l-2 -30c-22 2 -42 3 -61 3c-207 0 -310 -124 -310 -246s103 -245 309 -245c19 0 40 1 62 3l2 -30
c-22 -2 -43 -3 -64 -3c-25 0 -49 2 -72 5l-5 -18c21 -4 36 -18 36 -41c0 -35 -31 -50 -61 -50c-11 0 -22 2 -32 6z" />
    <glyph glyph-name="ccircumflex" unicode="&#x109;" horiz-adv-x="503" 
d="M451 26l2 -30c-22 -2 -43 -3 -64 -3c-226 0 -339 137 -339 275s113 276 339 276c21 0 42 -1 64 -3l-2 -30c-22 2 -43 3 -62 3c-206 0 -309 -124 -309 -246s103 -245 309 -245c19 0 40 1 62 3zM385 626l-24 -18l-66 83l-65 -83l-24 18l89 115z" />
    <glyph glyph-name="cdotaccent" unicode="&#x10b;" horiz-adv-x="503" 
d="M451 26l2 -30c-22 -2 -43 -3 -64 -3c-226 0 -339 137 -339 275s113 276 339 276c21 0 42 -1 64 -3l-2 -30c-22 2 -43 3 -62 3c-206 0 -309 -124 -309 -246s103 -245 309 -245c19 0 40 1 62 3zM282 650v50h50v-50h-50z" />
    <glyph glyph-name="cedilla" unicode="&#xb8;" horiz-adv-x="270" 
d="M107 -109l10 28c7 -3 15 -4 23 -4c16 0 30 5 30 20c0 7 -15 10 -32 10h-13l15 58l30 -8l-6 -19c21 -4 36 -18 36 -41c0 -35 -31 -50 -61 -50c-11 0 -22 2 -32 6z" />
    <glyph glyph-name="cent" unicode="&#xa2;" horiz-adv-x="512" 
d="M451 26l2 -30c-22 -2 -43 -3 -64 -3c-25 0 -49 2 -71 5v-90h-30v95c-159 34 -238 149 -238 265c0 115 79 232 238 266v92h30v-87c22 3 46 5 71 5c21 0 42 -1 64 -3l-2 -30c-22 2 -43 3 -62 3c-206 0 -309 -124 -309 -246s103 -245 309 -245c19 0 40 1 62 3z" />
    <glyph glyph-name="cent.sc" horiz-adv-x="412" 
d="M232 -85v91c-115 28 -182 111 -182 207c0 95 67 179 182 206v92h30v-86c17 2 35 4 54 4c13 0 27 -1 41 -2l-2 -30c-14 1 -26 2 -39 2c-147 0 -236 -85 -236 -186s89 -186 236 -186c13 0 25 1 39 2l2 -30c-14 -1 -28 -2 -41 -2c-19 0 -37 2 -54 4v-86h-30z" />
    <glyph glyph-name="circumflex" unicode="&#x2c6;" horiz-adv-x="319" 
d="M249 626l-24 -18l-66 83l-65 -83l-24 18l89 115z" />
    <glyph glyph-name="colon" unicode=":" horiz-adv-x="184" 
d="M62 476v60h60v-60h-60zM62 0v60h60v-60h-60z" />
    <glyph glyph-name="comma" unicode="," horiz-adv-x="184" 
d="M62 60h60v-85c0 -17 0 -71 -47 -88l-10 28c27 9 27 47 27 60v25h-30v60z" />
    <glyph glyph-name="commaaccent" unicode="&#xf6c3;" horiz-adv-x="180" 
d="M60 -50h60v-70c0 -17 0 -58 -47 -75l-10 28c27 9 27 34 27 47v15h-30v55z" />
    <glyph glyph-name="copyright" unicode="&#xa9;" horiz-adv-x="840" 
d="M527 185l4 -30c-16 -2 -32 -2 -47 -2c-162 0 -243 98 -243 197c0 100 81 198 244 198c15 0 31 0 46 -2l-4 -30c-15 2 -29 2 -42 2c-143 0 -214 -84 -214 -168s71 -167 213 -167c13 0 27 0 43 2zM55 350c0 201 164 365 365 365s365 -164 365 -365s-164 -365 -365 -365
s-365 164 -365 365zM85 350c0 -185 150 -335 335 -335s335 150 335 335s-150 335 -335 335s-335 -150 -335 -335z" />
    <glyph glyph-name="croat" horiz-adv-x="400" 
d="M70 625v30h260v-30h-260z" />
    <glyph glyph-name="d" unicode="d" horiz-adv-x="532" 
d="M436 893h30v-893c-26 -2 -55 -3 -77 -3c-226 0 -339 136 -339 273c0 138 113 274 340 274c15 0 29 -1 46 -2v351zM389 27c14 0 30 0 47 1v484c-16 1 -32 2 -46 2c-207 0 -310 -122 -310 -244s103 -243 309 -243z" />
    <glyph glyph-name="dagger" unicode="&#x2020;" horiz-adv-x="553" 
d="M55 685v30h205v178h30v-178h208v-30h-208v-805h-30v805h-205z" />
    <glyph glyph-name="daggerdbl" unicode="&#x2021;" horiz-adv-x="553" 
d="M55 685v30h205v178h30v-178h208v-30h-208v-597h208v-30h-208v-178h-30v178h-205v30h205v597h-205z" />
    <glyph glyph-name="dcaron" unicode="&#x10f;" horiz-adv-x="600" 
d="M436 893h30v-893c-26 -2 -55 -3 -77 -3c-226 0 -339 136 -339 273c0 138 113 274 340 274c15 0 29 -1 46 -2v351zM389 27c14 0 30 0 47 1v484c-16 1 -32 2 -46 2c-207 0 -310 -122 -310 -244s103 -243 309 -243zM536 893h60v-70c0 -17 0 -58 -47 -75l-10 28
c27 9 27 34 27 47v15h-30v55z" />
    <glyph glyph-name="dcroat" unicode="&#x111;" horiz-adv-x="547" 
d="M321 730v30h115v133h30v-133h115v-30h-115v-730c-26 -2 -55 -3 -77 -3c-226 0 -339 136 -339 273c0 138 113 274 340 274c15 0 29 -1 46 -2v188h-115zM389 27c14 0 30 0 47 1v484c-16 1 -32 2 -46 2c-207 0 -310 -122 -310 -244s103 -243 309 -243z" />
    <glyph glyph-name="degree" unicode="&#xb0;" horiz-adv-x="274" 
d="M55 536c0 45 37 82 82 82s82 -37 82 -82s-37 -82 -82 -82s-82 37 -82 82zM85 536c0 -29 23 -52 52 -52s52 23 52 52s-23 52 -52 52s-52 -23 -52 -52z" />
    <glyph glyph-name="dieresis" unicode="&#xa8;" horiz-adv-x="325" 
d="M70 650v50h50v-50h-50zM205 650v50h50v-50h-50z" />
    <glyph glyph-name="divide" unicode="&#xf7;" horiz-adv-x="480" 
d="M55 294v30h370v-30h-370zM210 129v60h60v-60h-60zM210 429v60h60v-60h-60z" />
    <glyph glyph-name="dollar" unicode="$" horiz-adv-x="506" 
d="M238 805h30v-90c80 -3 151 -42 184 -119l-28 -12c-29 65 -88 98 -156 101v-325c88 -31 188 -82 188 -181c0 -107 -81 -184 -188 -193v-91h-30v90c-81 3 -152 42 -184 119l28 12c28 -65 88 -98 156 -101v324c-88 32 -188 82 -188 182c0 106 80 184 188 193v91zM80 521
c0 -77 82 -122 158 -150v313c-91 -9 -158 -75 -158 -163zM426 179c0 77 -83 121 -158 150v-313c91 8 158 74 158 163z" />
    <glyph glyph-name="dollar.sc" unicode="&#xf653;" horiz-adv-x="472" 
d="M199 652h30v-113c11 1 23 2 36 2c19 0 37 -2 55 -4l-4 -30c-18 2 -36 4 -51 4c-109 0 -175 -52 -175 -113c0 -50 45 -83 120 -94l39 -5c103 -13 163 -69 163 -144c0 -69 -70 -133 -183 -154v-112h-30v108c-16 -2 -34 -3 -51 -3c-29 0 -59 2 -90 7l4 30c31 -5 59 -7 86 -7
c142 0 234 63 234 131c0 57 -54 104 -136 114l-40 5c-98 12 -146 58 -146 124c0 62 51 117 139 136v118z" />
    <glyph glyph-name="dotaccent" unicode="&#x2d9;" horiz-adv-x="190" 
d="M70 650v50h50v-50h-50z" />
    <glyph glyph-name="dotlessi" unicode="&#x131;" 
d="M70 536h30v-536h-30v536z" />
    <glyph glyph-name="dotlessj" unicode="&#xf6be;" 
d="M-122 -232l26 14c16 -28 41 -45 72 -45c52 0 94 47 94 129v670h30v-670c0 -100 -56 -159 -124 -159c-43 0 -77 23 -98 61z" />
    <glyph glyph-name="e" unicode="e" horiz-adv-x="562" 
d="M452 30v-30c-22 -2 -44 -4 -64 -4c-222 0 -338 135 -338 274c0 208 147 276 238 276c142 0 224 -110 224 -252h-431c-1 -8 -1 -16 -1 -24c0 -119 100 -243 311 -243c19 0 40 1 61 3zM288 516c-86 0 -183 -62 -204 -192h396c0 84 -66 192 -192 192z" />
    <glyph glyph-name="e.alt" horiz-adv-x="562" 
d="M433 70l20 -22c-46 -40 -102 -58 -158 -58c-156 0 -245 132 -245 288c0 189 141 268 235 268c159 0 227 -130 227 -268v-15h-431c5 -145 94 -243 214 -243c49 0 98 16 138 50zM285 516c-82 0 -197 -69 -204 -223h400c-4 115 -62 223 -196 223z" />
    <glyph glyph-name="eacute" unicode="&#xe9;" horiz-adv-x="562" 
d="M452 30v-30c-22 -2 -44 -4 -64 -4c-222 0 -338 135 -338 274c0 208 147 276 238 276c142 0 224 -110 224 -252h-431c-1 -8 -1 -16 -1 -24c0 -119 100 -243 311 -243c19 0 40 1 61 3zM288 516c-86 0 -183 -62 -204 -192h396c0 84 -66 192 -192 192zM228 608l-18 24
l151 109l18 -24z" />
    <glyph glyph-name="ebreve" unicode="&#x115;" horiz-adv-x="562" 
d="M452 30v-30c-22 -2 -44 -4 -64 -4c-222 0 -338 135 -338 274c0 208 147 276 238 276c142 0 224 -110 224 -252h-431c-1 -8 -1 -16 -1 -24c0 -119 100 -243 311 -243c19 0 40 1 61 3zM288 516c-86 0 -183 -62 -204 -192h396c0 84 -66 192 -192 192zM351 720h30
c0 -50 -40 -90 -100 -90s-100 40 -100 90h30c0 -35 27 -60 70 -60s70 25 70 60z" />
    <glyph glyph-name="ecaron" unicode="&#x11b;" horiz-adv-x="562" 
d="M452 30v-30c-22 -2 -44 -4 -64 -4c-222 0 -338 135 -338 274c0 208 147 276 238 276c142 0 224 -110 224 -252h-431c-1 -8 -1 -16 -1 -24c0 -119 100 -243 311 -243c19 0 40 1 61 3zM288 516c-86 0 -183 -62 -204 -192h396c0 84 -66 192 -192 192zM356 741l24 -18
l-90 -115l-89 115l24 18l65 -83z" />
    <glyph glyph-name="ecircumflex" unicode="&#xea;" horiz-adv-x="562" 
d="M452 30v-30c-22 -2 -44 -4 -64 -4c-222 0 -338 135 -338 274c0 208 147 276 238 276c142 0 224 -110 224 -252h-431c-1 -8 -1 -16 -1 -24c0 -119 100 -243 311 -243c19 0 40 1 61 3zM288 516c-86 0 -183 -62 -204 -192h396c0 84 -66 192 -192 192zM381 626l-24 -18
l-66 83l-65 -83l-24 18l89 115z" />
    <glyph glyph-name="edieresis" unicode="&#xeb;" horiz-adv-x="562" 
d="M452 30v-30c-22 -2 -44 -4 -64 -4c-222 0 -338 135 -338 274c0 208 147 276 238 276c142 0 224 -110 224 -252h-431c-1 -8 -1 -16 -1 -24c0 -119 100 -243 311 -243c19 0 40 1 61 3zM288 516c-86 0 -183 -62 -204 -192h396c0 84 -66 192 -192 192zM199 650v50h50v-50h-50
zM334 650v50h50v-50h-50z" />
    <glyph glyph-name="edotaccent" unicode="&#x117;" horiz-adv-x="562" 
d="M452 30v-30c-22 -2 -44 -4 -64 -4c-222 0 -338 135 -338 274c0 208 147 276 238 276c142 0 224 -110 224 -252h-431c-1 -8 -1 -16 -1 -24c0 -119 100 -243 311 -243c19 0 40 1 61 3zM288 516c-86 0 -183 -62 -204 -192h396c0 84 -66 192 -192 192zM256 650v50h50v-50h-50
z" />
    <glyph glyph-name="egrave" unicode="&#xe8;" horiz-adv-x="562" 
d="M452 30v-30c-22 -2 -44 -4 -64 -4c-222 0 -338 135 -338 274c0 208 147 276 238 276c142 0 224 -110 224 -252h-431c-1 -8 -1 -16 -1 -24c0 -119 100 -243 311 -243c19 0 40 1 61 3zM288 516c-86 0 -183 -62 -204 -192h396c0 84 -66 192 -192 192zM371 632l-18 -24
l-151 109l18 24z" />
    <glyph glyph-name="eight" unicode="8" horiz-adv-x="526" 
d="M91 542c0 95 77 172 172 172s172 -77 172 -172c0 -68 -40 -127 -97 -155c78 -30 133 -106 133 -194c0 -115 -93 -208 -208 -208s-208 93 -208 208c0 88 55 164 133 194c-58 28 -97 87 -97 155zM121 542c0 -78 64 -142 142 -142s142 64 142 142s-64 142 -142 142
s-142 -64 -142 -142zM85 193c0 -98 80 -178 178 -178s178 80 178 178s-80 178 -178 178s-178 -80 -178 -178z" />
    <glyph glyph-name="ellipsis" unicode="&#x2026;" horiz-adv-x="612" 
d="M480 0v60h60v-60h-60zM276 0v60h60v-60h-60zM72 0v60h60v-60h-60z" />
    <glyph glyph-name="emacron" unicode="&#x113;" horiz-adv-x="562" 
d="M452 30v-30c-22 -2 -44 -4 -64 -4c-222 0 -338 135 -338 274c0 208 147 276 238 276c142 0 224 -110 224 -252h-431c-1 -8 -1 -16 -1 -24c0 -119 100 -243 311 -243c19 0 40 1 61 3zM288 516c-86 0 -183 -62 -204 -192h396c0 84 -66 192 -192 192zM151 660v30h260v-30
h-260z" />
    <glyph glyph-name="emdash" unicode="&#x2014;" horiz-adv-x="946" 
d="M50 294v30h846v-30h-846z" />
    <glyph glyph-name="endash" unicode="&#x2013;" horiz-adv-x="717" 
d="M50 294v30h617v-30h-617z" />
    <glyph glyph-name="eogonek" unicode="&#x119;" horiz-adv-x="562" 
d="M345 -62l16 -26c-16 -10 -32 -15 -46 -15c-30 0 -51 19 -51 47c0 21 11 41 38 59c-166 30 -252 147 -252 267c0 208 147 276 238 276c142 0 224 -110 224 -252h-431c-1 -8 -1 -16 -1 -24c0 -119 100 -243 311 -243c19 0 40 1 61 3v-30c-22 -2 -44 -4 -64 -4
c-18 0 -36 1 -52 3l4 -8c-33 -17 -46 -33 -46 -47c0 -10 9 -17 21 -17c8 0 18 3 30 11zM288 516c-86 0 -183 -62 -204 -192h396c0 84 -66 192 -192 192z" />
    <glyph glyph-name="equal" unicode="=" horiz-adv-x="460" 
d="M50 341v30h360v-30h-360zM50 247v30h360v-30h-360z" />
    <glyph glyph-name="exclam" unicode="!" horiz-adv-x="184" 
d="M77 164v536h30v-536h-30zM62 0v60h60v-60h-60z" />
    <glyph glyph-name="exclam.sc" unicode="&#xf721;" 
d="M70 164v372h30v-372h-30zM55 0v60h60v-60h-60z" />
    <glyph glyph-name="exclamdown" unicode="&#xa1;" horiz-adv-x="184" 
d="M77 -164v536h30v-536h-30zM62 476v60h60v-60h-60z" />
    <glyph glyph-name="exclamdown.sc" unicode="&#xf7a1;" 
d="M100 372v-372h-30v372h30zM115 536v-60h-60v60h60z" />
    <glyph glyph-name="exclamdownbase" unicode="&#xf6b4;" 
d="M70 0v536h30v-536h-30zM55 640v60h60v-60h-60z" />
    <glyph glyph-name="f" unicode="f" horiz-adv-x="259" 
d="M21 506v30h45v115c0 127 83 203 181 203c68 0 105 -22 149 -63l-20 -22c-42 39 -73 55 -129 55c-82 0 -151 -64 -151 -173v-115h158v-30h-158v-799h-30v799h-45z" />
    <glyph glyph-name="f_t" horiz-adv-x="555" 
d="M325 536v174c0 53 -42 114 -109 114s-120 -62 -120 -173v-115h158v-30h-158v-799h-30v799h-45v30h45v115c0 131 67 203 150 203s139 -79 139 -144v-174h158v-30h-158v-318c0 -109 67 -159 153 -159c6 0 14 0 23 1l4 -30c-9 -1 -19 -1 -27 -1c-102 0 -183 60 -183 189v318
h-45v30h45z" />
    <glyph glyph-name="five" unicode="5" horiz-adv-x="526" 
d="M55 -1l5 30c24 -4 43 -5 68 -5c164 0 299 74 299 187c0 68 -58 132 -143 161c-39 13 -88 22 -133 22c-22 0 -24 0 -61 -2v308h273v-30h-243v-247c18 1 24 1 31 1c56 0 106 -11 143 -23c85 -29 163 -103 163 -190c0 -153 -183 -217 -329 -217c-24 0 -49 1 -73 5z" />
    <glyph glyph-name="florin" unicode="&#x192;" horiz-adv-x="302" 
d="M21 436v30h115v176c0 130 90 202 192 202v-30c-86 0 -162 -59 -162 -174v-174h115v-30h-115v-467c0 -130 -90 -202 -192 -202v30c86 0 162 59 162 174v465h-115z" />
    <glyph glyph-name="four" unicode="4" horiz-adv-x="526" 
d="M475 159v-30h-84v-129h-30v129h-318l348 608v-578h84zM95 159h266v465z" />
    <glyph glyph-name="g" unicode="g" horiz-adv-x="532" 
d="M436 -60v59c-17 -2 -31 -3 -46 -3c-227 0 -340 136 -340 274c0 137 113 273 339 273c22 0 51 -1 77 -3v-600c0 -120 -78 -233 -199 -233c-57 0 -107 28 -148 68l20 22c37 -36 79 -60 128 -60c103 0 169 99 169 203zM389 513c-206 0 -309 -121 -309 -243
s103 -244 310 -244c14 0 30 1 46 2v484c-17 1 -33 1 -47 1z" />
    <glyph glyph-name="gbreve" unicode="&#x11f;" horiz-adv-x="532" 
d="M436 -60v59c-17 -2 -31 -3 -46 -3c-227 0 -340 136 -340 274c0 137 113 273 339 273c22 0 51 -1 77 -3v-600c0 -120 -78 -233 -199 -233c-57 0 -107 28 -148 68l20 22c37 -36 79 -60 128 -60c103 0 169 99 169 203zM389 513c-206 0 -309 -121 -309 -243
s103 -244 310 -244c14 0 30 1 46 2v484c-17 1 -33 1 -47 1zM376 720h30c0 -50 -40 -90 -100 -90s-100 40 -100 90h30c0 -35 27 -60 70 -60s70 25 70 60z" />
    <glyph glyph-name="gcircumflex" unicode="&#x11d;" horiz-adv-x="532" 
d="M436 -60v59c-17 -2 -31 -3 -46 -3c-227 0 -340 136 -340 274c0 137 113 273 339 273c22 0 51 -1 77 -3v-600c0 -120 -78 -233 -199 -233c-57 0 -107 28 -148 68l20 22c37 -36 79 -60 128 -60c103 0 169 99 169 203zM389 513c-206 0 -309 -121 -309 -243
s103 -244 310 -244c14 0 30 1 46 2v484c-17 1 -33 1 -47 1zM385 626l-24 -18l-66 83l-65 -83l-24 18l89 115z" />
    <glyph glyph-name="gcommaaccent" unicode="&#x123;" horiz-adv-x="532" 
d="M436 -60v59c-17 -2 -31 -3 -46 -3c-227 0 -340 136 -340 274c0 137 113 273 339 273c22 0 51 -1 77 -3v-600c0 -120 -78 -233 -199 -233c-57 0 -107 28 -148 68l20 22c37 -36 79 -60 128 -60c103 0 169 99 169 203zM389 513c-206 0 -309 -121 -309 -243
s103 -244 310 -244c14 0 30 1 46 2v484c-17 1 -33 1 -47 1zM339 602h-60v70c0 17 0 58 47 75l10 -28c-27 -9 -27 -34 -27 -47v-15h30v-55z" />
    <glyph glyph-name="gdotaccent" unicode="&#x121;" horiz-adv-x="532" 
d="M436 -60v59c-17 -2 -31 -3 -46 -3c-227 0 -340 136 -340 274c0 137 113 273 339 273c22 0 51 -1 77 -3v-600c0 -120 -78 -233 -199 -233c-57 0 -107 28 -148 68l20 22c37 -36 79 -60 128 -60c103 0 169 99 169 203zM389 513c-206 0 -309 -121 -309 -243
s103 -244 310 -244c14 0 30 1 46 2v484c-17 1 -33 1 -47 1zM284 650v50h50v-50h-50z" />
    <glyph glyph-name="germandbls" unicode="&#xdf;" horiz-adv-x="541" 
d="M96 0h-30v611c0 88 76 149 153 149v-30c-62 0 -123 -49 -123 -119v-75h350l-161 -240c104 -18 201 -106 201 -212c0 -134 -108 -250 -296 -250v30c168 0 266 102 266 220c0 99 -108 184 -224 184l158 238h-294v-506z" />
    <glyph glyph-name="grave" unicode="`" horiz-adv-x="289" 
d="M229 632l-18 -24l-151 109l18 24z" />
    <glyph glyph-name="greater" unicode="&#x3e;" horiz-adv-x="550" 
d="M60 118l-10 28l367 142l-367 142l10 28l440 -170z" />
    <glyph glyph-name="guillemotleft" unicode="&#xab;" horiz-adv-x="417" 
d="M367 163l-18 -24l-169 131l169 132l18 -24l-137 -108zM237 163l-18 -24l-169 131l169 132l18 -24l-137 -108z" />
    <glyph glyph-name="guillemotright" unicode="&#xbb;" horiz-adv-x="417" 
d="M198 139l-18 24l137 107l-137 108l18 24l169 -132zM68 139l-18 24l137 107l-137 108l18 24l169 -132z" />
    <glyph glyph-name="guilsinglleft" unicode="&#x2039;" horiz-adv-x="287" 
d="M237 163l-18 -24l-169 131l169 132l18 -24l-137 -108z" />
    <glyph glyph-name="guilsinglright" unicode="&#x203a;" horiz-adv-x="287" 
d="M68 139l-18 24l137 107l-137 108l18 24l169 -132z" />
    <glyph glyph-name="h" unicode="h" horiz-adv-x="543" 
d="M66 893h30v-400c47 34 108 53 167 53c88 0 173 -42 207 -134c9 -23 13 -45 13 -70v-342h-30v340c0 23 -3 40 -11 61c-29 79 -103 115 -180 115c-61 0 -122 -22 -166 -61v-455h-30v893z" />
    <glyph glyph-name="hbar" unicode="&#x127;" horiz-adv-x="558" 
d="M-34 700v30h115v163h30v-163h115v-30h-115v-207c47 34 108 53 167 53c88 0 173 -42 207 -134c9 -23 13 -45 13 -70v-342h-30v340c0 23 -3 40 -11 61c-29 79 -103 115 -180 115c-61 0 -122 -22 -166 -61v-455h-30v700h-115z" />
    <glyph glyph-name="hcircumflex" unicode="&#x125;" horiz-adv-x="543" 
d="M66 893h30v-400c47 34 108 53 167 53c88 0 173 -42 207 -134c9 -23 13 -45 13 -70v-342h-30v340c0 23 -3 40 -11 61c-29 79 -103 115 -180 115c-61 0 -122 -22 -166 -61v-455h-30v893zM171 983l-24 -18l-66 83l-65 -83l-24 18l89 115z" />
    <glyph glyph-name="hungarumlaut" unicode="&#x2dd;" horiz-adv-x="411" 
d="M210 608l-18 24l151 109l18 -24zM88 608l-18 24l151 109l18 -24z" />
    <glyph glyph-name="hyphen" unicode="-" horiz-adv-x="360" 
d="M50 294v30h260v-30h-260z" />
    <glyph glyph-name="i" unicode="i" 
d="M70 536h30v-536h-30v536zM60 650v50h50v-50h-50z" />
    <glyph glyph-name="i_j" unicode="&#x133;" horiz-adv-x="340" 
d="M70 536h30v-536h-30v536zM60 650v50h50v-50h-50zM230 651v49h50v-49h-50zM48 -232l26 14c16 -28 41 -45 72 -45c52 0 94 47 94 129v670h30v-670c0 -100 -56 -159 -124 -159c-43 0 -77 23 -98 61z" />
    <glyph glyph-name="iacute" unicode="&#xed;" 
d="M70 536h30v-536h-30v536zM34 608l-18 24l151 109l18 -24z" />
    <glyph glyph-name="ibreve" unicode="&#x12d;" 
d="M70 536h30v-536h-30v536zM155 720h30c0 -50 -40 -90 -100 -90s-100 40 -100 90h30c0 -35 27 -60 70 -60s70 25 70 60z" />
    <glyph glyph-name="icircumflex" unicode="&#xee;" 
d="M70 536h30v-536h-30v536zM175 626l-24 -18l-66 83l-65 -83l-24 18l89 115z" />
    <glyph glyph-name="idieresis" unicode="&#xef;" 
d="M70 536h30v-536h-30v536zM-7 650v50h50v-50h-50zM128 650v50h50v-50h-50z" />
    <glyph glyph-name="igrave" unicode="&#xec;" 
d="M70 536h30v-536h-30v536zM170 632l-18 -24l-151 109l18 24z" />
    <glyph glyph-name="imacron" unicode="&#x12b;" 
d="M70 536h30v-536h-30v536zM-45 660v30h260v-30h-260z" />
    <glyph glyph-name="iogonek" unicode="&#x12f;" 
d="M103 -65l16 -26c-16 -10 -32 -15 -46 -15c-30 0 -51 19 -51 47c0 23 13 45 48 65v530h30v-536h-9l7 -12c-33 -17 -46 -33 -46 -47c0 -10 9 -17 21 -17c8 0 18 3 30 11z" />
    <glyph glyph-name="itilde" unicode="&#x129;" 
d="M70 536h30v-536h-30v536zM179 706l24 -18c-18 -33 -47 -47 -71 -47c-18 0 -37 7 -56 21c-13 10 -26 16 -39 16c-15 0 -35 -11 -46 -35l-24 18c17 32 45 47 70 47c19 0 39 -8 57 -22c13 -10 26 -15 38 -15c14 0 35 10 47 35z" />
    <glyph glyph-name="j" unicode="j" 
d="M60 651v49h50v-49h-50zM-122 -232l26 14c16 -28 41 -45 72 -45c52 0 94 47 94 129v670h30v-670c0 -100 -56 -159 -124 -159c-43 0 -77 23 -98 61z" />
    <glyph glyph-name="j.alt" 
d="M70 -51v587h30v-596c0 -130 -82 -233 -200 -233c-59 0 -109 29 -148 68l21 23c39 -36 80 -60 127 -60c84 0 140 62 159 133c7 25 11 60 11 78zM60 651v49h50v-49h-50z" />
    <glyph glyph-name="jcircumflex" unicode="&#x135;" 
d="M-122 -232l26 14c16 -28 41 -45 72 -45c52 0 94 47 94 129v670h30v-670c0 -100 -56 -159 -124 -159c-43 0 -77 23 -98 61zM175 626l-24 -18l-66 83l-65 -83l-24 18l89 115z" />
    <glyph glyph-name="k" unicode="k" horiz-adv-x="570" 
d="M520 13l-18 -24l-341 269l-65 -48v-210h-30v893h30v-645l406 299l18 -24l-334 -247z" />
    <glyph glyph-name="kcommaaccent" unicode="&#x137;" horiz-adv-x="570" 
d="M520 13l-18 -24l-341 269l-65 -48v-210h-30v893h30v-645l406 299l18 -24l-334 -247zM245 -50h60v-70c0 -17 0 -58 -47 -75l-10 28c27 9 27 34 27 47v15h-30v55z" />
    <glyph glyph-name="l" unicode="l" horiz-adv-x="162" 
d="M66 893h30v-893h-30v893z" />
    <glyph glyph-name="lacute" unicode="&#x13a;" horiz-adv-x="150" 
d="M60 893h30v-893h-30v893zM24 965l-18 24l151 109l18 -24z" />
    <glyph glyph-name="lcaron" unicode="&#x13e;" horiz-adv-x="150" 
d="M60 893h30v-893h-30v893zM141 1098l24 -18l-90 -115l-89 115l24 18l65 -83z" />
    <glyph glyph-name="lcommaaccent" unicode="&#x13c;" horiz-adv-x="150" 
d="M60 893h30v-893h-30v893zM45 -50h60v-70c0 -17 0 -58 -47 -75l-10 28c27 9 27 34 27 47v15h-30v55z" />
    <glyph glyph-name="ldot" unicode="&#x140;" horiz-adv-x="150" 
d="M60 893h30v-893h-30v893zM50 960v50h50v-50h-50z" />
    <glyph glyph-name="less" unicode="&#x3c;" horiz-adv-x="550" 
d="M500 146l-10 -28l-440 170l440 170l10 -28l-367 -142z" />
    <glyph glyph-name="longs" unicode="&#x17f;" horiz-adv-x="150" 
d="M90 0h-30v611c0 88 76 149 153 149v-30c-62 0 -123 -49 -123 -119v-611z" />
    <glyph glyph-name="lslash" unicode="&#x142;" horiz-adv-x="162" 
d="M14 481l-18 24l70 50v338h30v-316l71 51l18 -24l-89 -64v-540h-30v518z" />
    <glyph glyph-name="m" unicode="m" horiz-adv-x="832" 
d="M66 536h30v-44c41 34 91 54 153 54c82 0 145 -45 170 -122c25 77 86 122 168 122c104 0 185 -77 185 -205v-341h-30v341c0 39 -23 175 -155 175c-110 0 -153 -99 -153 -172v-344h-30v344c0 73 -45 172 -155 172c-61 0 -114 -25 -153 -62v-454h-30v536z" />
    <glyph glyph-name="m.alt" horiz-adv-x="826" 
d="M428 0h-30v344c0 114 -77 172 -154 172s-154 -58 -154 -172v-344h-30v344c0 134 91 202 184 202c69 0 139 -39 169 -116c30 77 100 116 169 116c91 0 184 -68 184 -202v-344h-30v344c0 114 -77 172 -154 172s-154 -58 -154 -172v-344z" />
    <glyph glyph-name="macron" unicode="&#xaf;" horiz-adv-x="400" 
d="M70 660v30h260v-30h-260z" />
    <glyph glyph-name="minus" unicode="&#x2212;" horiz-adv-x="460" 
d="M50 294v30h360v-30h-360z" />
    <glyph glyph-name="multiply" unicode="&#xd7;" horiz-adv-x="480" 
d="M82 129l-22 22l158 158l-158 158l22 22l158 -158l158 158l22 -22l-158 -158l158 -158l-22 -22l-158 158z" />
    <glyph glyph-name="n" unicode="n" horiz-adv-x="544" 
d="M66 536h30v-44c47 35 110 54 169 54c89 0 174 -45 207 -134c6 -16 12 -33 12 -70v-342h-30v342c0 114 -99 174 -189 174c-61 0 -126 -22 -169 -61v-455h-30v536z" />
    <glyph glyph-name="n.alt" horiz-adv-x="538" 
d="M90 0h-30v343c0 121 95 203 209 203s209 -82 209 -203v-343h-30v343c0 103 -81 173 -179 173s-179 -70 -179 -173v-343z" />
    <glyph glyph-name="nacute" unicode="&#x144;" horiz-adv-x="544" 
d="M66 536h30v-44c47 35 110 54 169 54c89 0 174 -45 207 -134c6 -16 12 -33 12 -70v-342h-30v342c0 114 -99 174 -189 174c-61 0 -126 -22 -169 -61v-455h-30v536zM203 608l-18 24l151 109l18 -24z" />
    <glyph glyph-name="napostrophe" unicode="&#x149;" horiz-adv-x="544" 
d="M66 536h30v-44c47 35 110 54 169 54c89 0 174 -45 207 -134c6 -16 12 -33 12 -70v-342h-30v342c0 114 -99 174 -189 174c-61 0 -126 -22 -169 -61v-455h-30v536zM51 717h60v-70c0 -17 0 -58 -47 -75l-10 28c27 9 27 34 27 47v15h-30v55z" />
    <glyph glyph-name="ncaron" unicode="&#x148;" horiz-adv-x="544" 
d="M66 536h30v-44c47 35 110 54 169 54c89 0 174 -45 207 -134c6 -16 12 -33 12 -70v-342h-30v342c0 114 -99 174 -189 174c-61 0 -126 -22 -169 -61v-455h-30v536zM332 741l24 -18l-90 -115l-89 115l24 18l65 -83z" />
    <glyph glyph-name="ncommaaccent" unicode="&#x146;" horiz-adv-x="544" 
d="M66 536h30v-44c47 35 110 54 169 54c89 0 174 -45 207 -134c6 -16 12 -33 12 -70v-342h-30v342c0 114 -99 174 -189 174c-61 0 -126 -22 -169 -61v-455h-30v536zM245 -50h60v-70c0 -17 0 -58 -47 -75l-10 28c27 9 27 34 27 47v15h-30v55z" />
    <glyph glyph-name="nine" unicode="9" horiz-adv-x="526" 
d="M164 -2v30c14 -1 30 -2 44 -2c187 0 228 137 228 265v109c-36 -60 -102 -101 -178 -101c-115 0 -208 93 -208 208s93 208 208 208s208 -93 208 -208v-216c0 -144 -56 -295 -257 -295c-15 0 -31 1 -45 2zM436 507c0 98 -80 178 -178 178s-178 -80 -178 -178
s80 -178 178 -178s178 80 178 178z" />
    <glyph glyph-name="ntilde" unicode="&#xf1;" horiz-adv-x="544" 
d="M66 536h30v-44c47 35 110 54 169 54c89 0 174 -45 207 -134c6 -16 12 -33 12 -70v-342h-30v342c0 114 -99 174 -189 174c-61 0 -126 -22 -169 -61v-455h-30v536zM360 706l24 -18c-18 -33 -47 -47 -71 -47c-18 0 -37 7 -56 21c-13 10 -26 16 -39 16c-15 0 -35 -11 -46 -35
l-24 18c17 32 45 47 70 47c19 0 39 -8 57 -22c13 -10 26 -15 38 -15c14 0 35 10 47 35z" />
    <glyph glyph-name="numbersign" unicode="#" horiz-adv-x="535" 
d="M517 495l-5 -30h-105l-37 -245h106l-5 -30h-105l-29 -190h-30l28 190h-172l-29 -190h-30l28 190h-104l5 30h104l37 245h-105l5 30h104l31 205h31l-31 -205h172l31 205h31l-31 -205h105zM204 465l-37 -245h173l37 245h-173z" />
    <glyph glyph-name="o" unicode="o" horiz-adv-x="656" 
d="M50 268c0 153 125 278 278 278s278 -125 278 -278s-125 -278 -278 -278s-278 125 -278 278zM80 268c0 -137 111 -248 248 -248s248 111 248 248s-111 248 -248 248s-248 -111 -248 -248z" />
    <glyph glyph-name="oacute" unicode="&#xf3;" horiz-adv-x="656" 
d="M50 268c0 153 125 278 278 278s278 -125 278 -278s-125 -278 -278 -278s-278 125 -278 278zM80 268c0 -137 111 -248 248 -248s248 111 248 248s-111 248 -248 248s-248 -111 -248 -248zM274 608l-18 24l151 109l18 -24z" />
    <glyph glyph-name="obreve" unicode="&#x14f;" horiz-adv-x="656" 
d="M50 268c0 153 125 278 278 278s278 -125 278 -278s-125 -278 -278 -278s-278 125 -278 278zM80 268c0 -137 111 -248 248 -248s248 111 248 248s-111 248 -248 248s-248 -111 -248 -248zM398 720h30c0 -50 -40 -90 -100 -90s-100 40 -100 90h30c0 -35 27 -60 70 -60
s70 25 70 60z" />
    <glyph glyph-name="ocircumflex" unicode="&#xf4;" horiz-adv-x="656" 
d="M50 268c0 153 125 278 278 278s278 -125 278 -278s-125 -278 -278 -278s-278 125 -278 278zM80 268c0 -137 111 -248 248 -248s248 111 248 248s-111 248 -248 248s-248 -111 -248 -248zM418 626l-24 -18l-66 83l-65 -83l-24 18l89 115z" />
    <glyph glyph-name="odieresis" unicode="&#xf6;" horiz-adv-x="656" 
d="M50 268c0 153 125 278 278 278s278 -125 278 -278s-125 -278 -278 -278s-278 125 -278 278zM80 268c0 -137 111 -248 248 -248s248 111 248 248s-111 248 -248 248s-248 -111 -248 -248zM236 650v50h50v-50h-50zM371 650v50h50v-50h-50z" />
    <glyph glyph-name="oe" unicode="&#x153;" horiz-adv-x="1088" 
d="M50 268c0 153 125 278 278 278c118 0 220 -75 260 -180c37 135 151 180 226 180c142 0 224 -110 224 -252h-431c-1 -5 -1 -10 -1 -15v-9c0 -119 100 -243 311 -243c19 0 40 1 61 3v-30c-22 -2 -44 -4 -64 -4c-174 0 -283 83 -322 185c-37 -111 -142 -191 -264 -191
c-153 0 -278 125 -278 278zM80 268c0 -137 111 -248 248 -248s248 111 248 248s-111 248 -248 248s-248 -111 -248 -248zM814 516c-86 0 -183 -62 -204 -192h396c0 84 -66 192 -192 192z" />
    <glyph glyph-name="ogonek" unicode="&#x2db;" horiz-adv-x="313" 
d="M212 -83l16 -26c-16 -10 -32 -15 -46 -15c-30 0 -51 19 -51 47c0 26 17 50 62 73l14 -26c-33 -17 -46 -33 -46 -47c0 -10 9 -17 21 -17c8 0 18 3 30 11z" />
    <glyph glyph-name="ograve" unicode="&#xf2;" horiz-adv-x="656" 
d="M50 268c0 153 125 278 278 278s278 -125 278 -278s-125 -278 -278 -278s-278 125 -278 278zM80 268c0 -137 111 -248 248 -248s248 111 248 248s-111 248 -248 248s-248 -111 -248 -248zM413 632l-18 -24l-151 109l18 24z" />
    <glyph glyph-name="ohungarumlaut" unicode="&#x151;" horiz-adv-x="656" 
d="M50 268c0 153 125 278 278 278s278 -125 278 -278s-125 -278 -278 -278s-278 125 -278 278zM80 268c0 -137 111 -248 248 -248s248 111 248 248s-111 248 -248 248s-248 -111 -248 -248zM344 608l-18 24l151 109l18 -24zM222 608l-18 24l151 109l18 -24z" />
    <glyph glyph-name="omacron" unicode="&#x14d;" horiz-adv-x="656" 
d="M50 268c0 153 125 278 278 278s278 -125 278 -278s-125 -278 -278 -278s-278 125 -278 278zM80 268c0 -137 111 -248 248 -248s248 111 248 248s-111 248 -248 248s-248 -111 -248 -248zM198 660v30h260v-30h-260z" />
    <glyph glyph-name="one" unicode="1" horiz-adv-x="526" 
d="M320 0h-30v646l-168 -211l-24 18l222 279v-732z" />
    <glyph glyph-name="onesuperior" unicode="&#xb9;" horiz-adv-x="223" 
d="M163 481h-30v260l-59 -73l-24 18l113 143v-348z" />
    <glyph glyph-name="oslash" unicode="&#xf8;" horiz-adv-x="656" 
d="M50 268c0 153 125 278 278 278c71 0 135 -27 184 -71l72 72l22 -22l-72 -72c45 -49 72 -114 72 -185c0 -153 -125 -278 -278 -278c-71 0 -136 26 -185 70l-71 -71l-22 22l71 71c-44 50 -71 114 -71 186zM80 268c0 -63 23 -121 62 -165l350 351c-44 39 -101 62 -164 62
c-137 0 -248 -111 -248 -248zM576 268c0 63 -24 120 -62 164l-350 -351c44 -38 101 -61 164 -61c137 0 248 111 248 248z" />
    <glyph glyph-name="oslashacute" unicode="&#x1ff;" horiz-adv-x="656" 
d="M50 268c0 153 125 278 278 278c71 0 135 -27 184 -71l72 72l22 -22l-72 -72c45 -49 72 -114 72 -185c0 -153 -125 -278 -278 -278c-71 0 -136 26 -185 70l-71 -71l-22 22l71 71c-44 50 -71 114 -71 186zM80 268c0 -63 23 -121 62 -165l350 351c-44 39 -101 62 -164 62
c-137 0 -248 -111 -248 -248zM576 268c0 63 -24 120 -62 164l-350 -351c44 -38 101 -61 164 -61c137 0 248 111 248 248zM265 608l-18 24l151 109l18 -24z" />
    <glyph glyph-name="otilde" unicode="&#xf5;" horiz-adv-x="656" 
d="M50 268c0 153 125 278 278 278s278 -125 278 -278s-125 -278 -278 -278s-278 125 -278 278zM80 268c0 -137 111 -248 248 -248s248 111 248 248s-111 248 -248 248s-248 -111 -248 -248zM422 706l24 -18c-18 -33 -47 -47 -71 -47c-18 0 -37 7 -56 21
c-13 10 -26 16 -39 16c-15 0 -35 -11 -46 -35l-24 18c17 32 45 47 70 47c19 0 39 -8 57 -22c13 -10 26 -15 38 -15c14 0 35 10 47 35z" />
    <glyph glyph-name="p" unicode="p" horiz-adv-x="532" 
d="M96 -293h-30v833c26 2 55 3 77 3c226 0 339 -136 339 -273c0 -138 -113 -274 -340 -274c-15 0 -29 1 -46 2v-291zM143 513c-14 0 -30 0 -47 -1v-484c16 -1 32 -2 46 -2c207 0 310 122 310 244s-103 243 -309 243z" />
    <glyph glyph-name="paragraph" unicode="&#xb6;" horiz-adv-x="416" 
d="M246 0h-30v428h-30c-75 0 -136 61 -136 136s61 136 136 136h220v-30h-50v-670h-30v670h-80v-670zM186 670c-59 0 -106 -47 -106 -106s47 -106 106 -106h30v212h-30z" />
    <glyph glyph-name="parenleft" unicode="(" horiz-adv-x="263" 
d="M263 -90l-22 -20c-125 132 -186 296 -186 460c0 163 61 328 186 460l22 -20c-119 -126 -178 -284 -178 -440c0 -157 59 -314 178 -440z" />
    <glyph glyph-name="parenright" unicode=")" horiz-adv-x="263" 
d="M22 -110l-22 20c119 126 178 283 178 440c0 156 -59 314 -178 440l22 20c125 -132 186 -297 186 -460c0 -164 -61 -328 -186 -460z" />
    <glyph glyph-name="percent" unicode="%" horiz-adv-x="507" 
d="M283 76c0 45 37 82 82 82s82 -37 82 -82s-37 -82 -82 -82s-82 37 -82 82zM60 623c0 45 37 82 82 82s82 -37 82 -82s-37 -82 -82 -82s-82 37 -82 82zM60 7l361 700l26 -14l-361 -700zM90 623c0 -29 23 -52 52 -52s52 23 52 52s-23 52 -52 52s-52 -23 -52 -52zM313 76
c0 -29 23 -52 52 -52s52 23 52 52s-23 52 -52 52s-52 -23 -52 -52z" />
    <glyph glyph-name="percent.sc" unicode="&#xf642;" horiz-adv-x="487" 
d="M263 76c0 45 37 82 82 82s82 -37 82 -82s-37 -82 -82 -82s-82 37 -82 82zM60 459c0 45 37 82 82 82s82 -37 82 -82s-37 -82 -82 -82s-82 37 -82 82zM62 8l337 536l26 -16l-337 -536zM90 459c0 -29 23 -52 52 -52s52 23 52 52s-23 52 -52 52s-52 -23 -52 -52zM293 76
c0 -29 23 -52 52 -52s52 23 52 52s-23 52 -52 52s-52 -23 -52 -52z" />
    <glyph glyph-name="period" unicode="." horiz-adv-x="184" 
d="M62 0v60h60v-60h-60z" />
    <glyph glyph-name="periodcentered" unicode="&#xb7;" horiz-adv-x="160" 
d="M50 278v60h60v-60h-60z" />
    <glyph glyph-name="perthousand" unicode="&#x2030;" horiz-adv-x="701" 
d="M487 76c0 45 37 82 82 82s82 -37 82 -82s-37 -82 -82 -82s-82 37 -82 82zM60 623c0 45 37 82 82 82s82 -37 82 -82s-37 -82 -82 -82s-82 37 -82 82zM90 623c0 -29 23 -52 52 -52s52 23 52 52s-23 52 -52 52s-52 -23 -52 -52zM517 76c0 -29 23 -52 52 -52s52 23 52 52
s-23 52 -52 52s-52 -23 -52 -52zM283 76c0 45 37 82 82 82s82 -37 82 -82s-37 -82 -82 -82s-82 37 -82 82zM313 76c0 -29 23 -52 52 -52s52 23 52 52s-23 52 -52 52s-52 -23 -52 -52zM60 7l361 700l26 -14l-361 -700z" />
    <glyph glyph-name="perthousand.sc" unicode="&#xf628;" horiz-adv-x="681" 
d="M467 76c0 45 37 82 82 82s82 -37 82 -82s-37 -82 -82 -82s-82 37 -82 82zM60 459c0 45 37 82 82 82s82 -37 82 -82s-37 -82 -82 -82s-82 37 -82 82zM62 8l337 536l26 -16l-337 -536zM90 459c0 -29 23 -52 52 -52s52 23 52 52s-23 52 -52 52s-52 -23 -52 -52zM497 76
c0 -29 23 -52 52 -52s52 23 52 52s-23 52 -52 52s-52 -23 -52 -52zM263 76c0 45 37 82 82 82s82 -37 82 -82s-37 -82 -82 -82s-82 37 -82 82zM293 76c0 -29 23 -52 52 -52s52 23 52 52s-23 52 -52 52s-52 -23 -52 -52z" />
    <glyph glyph-name="phonorecord" unicode="&#x2117;" horiz-adv-x="850" 
d="M60 350c0 201 164 365 365 365s365 -164 365 -365s-164 -365 -365 -365s-365 164 -365 365zM90 350c0 -185 150 -335 335 -335s335 150 335 335s-150 335 -335 335s-335 -150 -335 -335zM367 300h-1v-140h-30v385c11 1 21 1 31 1c128 0 188 -59 188 -123
s-60 -123 -188 -123zM366 516v-186h14c95 0 145 47 145 93s-50 93 -145 93h-14z" />
    <glyph glyph-name="plus" unicode="+" horiz-adv-x="460" 
d="M50 294v30h165v165h30v-165h165v-30h-165v-165h-30v165h-165z" />
    <glyph glyph-name="plusminus" unicode="&#xb1;" horiz-adv-x="480" 
d="M60 324v30h165v164h30v-164h165v-30h-165v-164h-30v164h-165zM60 100v30h360v-30h-360z" />
    <glyph glyph-name="q" unicode="q" horiz-adv-x="532" 
d="M389 513c-206 0 -309 -121 -309 -243s103 -244 310 -244c14 0 30 1 46 2v484c-17 1 -33 1 -47 1zM466 -293h-30v291c-17 -1 -31 -2 -46 -2c-227 0 -340 136 -340 274c0 137 113 273 339 273c22 0 51 -1 77 -3v-833z" />
    <glyph glyph-name="question" unicode="?" horiz-adv-x="502" 
d="M253 164h-30v81c0 65 37 104 97 137c58 32 102 72 102 146c0 103 -93 157 -180 157c-77 0 -132 -33 -165 -100l-26 14c39 77 102 116 191 116c101 0 210 -64 210 -187c0 -90 -49 -134 -118 -172c-51 -28 -81 -58 -81 -111v-81zM208 0v60h60v-60h-60z" />
    <glyph glyph-name="question.sc" unicode="&#xf73f;" horiz-adv-x="387" 
d="M154 0v60h60v-60h-60zM199 164h-30v56c0 47 26 75 70 100c39 22 68 47 68 97c0 68 -62 104 -120 104c-52 0 -89 -22 -111 -67l-26 14c27 55 73 83 137 83c72 0 150 -46 150 -134c0 -65 -35 -96 -84 -123c-34 -19 -54 -40 -54 -74v-56z" />
    <glyph glyph-name="questiondown" unicode="&#xbf;" horiz-adv-x="425" 
d="M249 372h30v-81c0 -60 -31 -104 -96 -137c-53 -31 -103 -61 -103 -146c0 -100 91 -157 179 -157c74 0 132 32 166 99l27 -12c-38 -77 -102 -117 -192 -117c-99 0 -210 62 -210 187c0 81 41 133 116 172c48 25 83 54 83 111v81zM294 536v-60h-60v60h60z" />
    <glyph glyph-name="questiondown.sc" unicode="&#xf7bf;" horiz-adv-x="387" 
d="M232 536v-60h-60v60h60zM187 372h30v-56c0 -47 -26 -75 -70 -100c-39 -22 -68 -47 -68 -97c0 -68 62 -104 120 -104c52 0 89 22 111 67l26 -14c-27 -55 -73 -83 -137 -83c-72 0 -150 46 -150 134c0 65 35 96 84 123c34 19 54 40 54 74v56z" />
    <glyph glyph-name="questiondownbase" unicode="&#xf6b5;" horiz-adv-x="502" 
d="M249 536h30v-81c0 -60 -31 -104 -96 -137c-53 -31 -103 -61 -103 -146c0 -100 91 -157 179 -157c74 0 132 32 166 99l27 -12c-38 -77 -102 -117 -192 -117c-99 0 -210 62 -210 187c0 81 41 133 116 172c48 25 83 54 83 111v81zM294 700v-60h-60v60h60z" />
    <glyph glyph-name="quotedbl" unicode="&#x22;" horiz-adv-x="244" 
d="M152 560v140h30v-140h-30zM62 560v140h30v-140h-30z" />
    <glyph glyph-name="quotedblbase" unicode="&#x201e;" horiz-adv-x="304" 
d="M62 130h60v-85c0 -17 0 -71 -47 -88l-10 28c27 9 27 47 27 60v25h-30v60zM182 130h60v-85c0 -17 0 -71 -47 -88l-10 28c27 9 27 47 27 60v25h-30v60z" />
    <glyph glyph-name="quotedblleft" unicode="&#x201c;" horiz-adv-x="304" 
d="M122 524h-60v85c0 17 0 71 47 88l10 -28c-27 -9 -27 -47 -27 -60v-25h30v-60zM242 524h-60v85c0 17 0 71 47 88l10 -28c-27 -9 -27 -47 -27 -60v-25h30v-60z" />
    <glyph glyph-name="quotedblright" unicode="&#x201d;" horiz-adv-x="304" 
d="M182 700h60v-85c0 -17 0 -71 -47 -88l-10 28c27 9 27 47 27 60v25h-30v60zM62 700h60v-85c0 -17 0 -71 -47 -88l-10 28c27 9 27 47 27 60v25h-30v60z" />
    <glyph glyph-name="quoteleft" unicode="&#x2018;" horiz-adv-x="184" 
d="M122 524h-60v85c0 17 0 71 47 88l10 -28c-27 -9 -27 -47 -27 -60v-25h30v-60z" />
    <glyph glyph-name="quoteright" unicode="&#x2019;" horiz-adv-x="184" 
d="M62 700h60v-85c0 -17 0 -71 -47 -88l-10 28c27 9 27 47 27 60v25h-30v60z" />
    <glyph glyph-name="quotesinglbase" unicode="&#x201a;" horiz-adv-x="184" 
d="M62 130h60v-85c0 -17 0 -71 -47 -88l-10 28c27 9 27 47 27 60v25h-30v60z" />
    <glyph glyph-name="quotesingle" unicode="'" horiz-adv-x="130" 
d="M50 560v140h30v-140h-30z" />
    <glyph glyph-name="r" unicode="r" horiz-adv-x="300" 
d="M265 546v-30c-61 0 -126 -22 -169 -61v-455h-30v536h30v-44c47 35 110 54 169 54z" />
    <glyph glyph-name="r.alt" horiz-adv-x="304" 
d="M90 0h-30v348c0 121 95 203 209 203v-30c-98 0 -179 -70 -179 -173v-348z" />
    <glyph glyph-name="racute" unicode="&#x155;" horiz-adv-x="300" 
d="M265 546v-30c-61 0 -126 -22 -169 -61v-455h-30v536h30v-44c47 35 110 54 169 54zM99 608l-18 24l151 109l18 -24z" />
    <glyph glyph-name="rcaron" unicode="&#x159;" horiz-adv-x="300" 
d="M265 546v-30c-61 0 -126 -22 -169 -61v-455h-30v536h30v-44c47 35 110 54 169 54zM231 741l24 -18l-90 -115l-89 115l24 18l65 -83z" />
    <glyph glyph-name="rcommaaccent" unicode="&#x157;" horiz-adv-x="300" 
d="M265 546v-30c-61 0 -126 -22 -169 -61v-455h-30v536h30v-44c47 35 110 54 169 54zM125 -50h60v-70c0 -17 0 -58 -47 -75l-10 28c27 9 27 34 27 47v15h-30v55z" />
    <glyph glyph-name="registered" unicode="&#xae;" horiz-adv-x="500" 
d="M250 715c105 0 190 -85 190 -190s-85 -190 -190 -190s-190 85 -190 190s85 190 190 190zM250 685c-89 0 -160 -71 -160 -160s71 -160 160 -160s160 71 160 160s-71 160 -160 160zM223 435h-30v201h29c63 0 95 -34 95 -70c0 -24 -14 -47 -43 -59l48 -63l-24 -18l-56 73
c-6 -1 -13 -1 -19 -1v-63zM223 606v-78c43 0 64 19 64 38c0 20 -21 40 -64 40z" />
    <glyph glyph-name="registered.alt" horiz-adv-x="850" 
d="M60 350c0 201 164 365 365 365s365 -164 365 -365s-164 -365 -365 -365s-365 164 -365 365zM90 350c0 -185 150 -335 335 -335s335 150 335 335s-150 335 -335 335s-335 -150 -335 -335zM372 300h-16v-140h-30v385c11 1 21 1 31 1c128 0 188 -59 188 -123
c0 -44 -33 -91 -96 -112l109 -142l-24 -18l-116 152c-14 -2 -30 -3 -46 -3zM356 516v-186h14c95 0 145 47 145 93s-50 93 -145 93h-14z" />
    <glyph glyph-name="ring" unicode="&#x2da;" horiz-adv-x="304" 
d="M85 675c0 37 30 67 67 67s67 -30 67 -67s-30 -67 -67 -67s-67 30 -67 67zM115 675c0 -20 17 -37 37 -37s37 17 37 37s-17 37 -37 37s-37 -17 -37 -37z" />
    <glyph glyph-name="s" unicode="s" horiz-adv-x="464" 
d="M79 14l12 28c26 -10 70 -19 98 -19c119 0 195 55 195 125c0 52 -55 88 -154 105c-115 19 -180 67 -180 135c0 86 88 155 225 155c32 0 81 -9 110 -21l-12 -28c-26 10 -70 19 -98 19c-119 0 -195 -55 -195 -125c0 -52 55 -88 154 -105c115 -19 180 -67 180 -135
c0 -86 -88 -155 -225 -155c-32 0 -81 9 -110 21z" />
    <glyph glyph-name="s.alt" horiz-adv-x="484" 
d="M90 30h194c65 0 120 46 120 111s-55 112 -120 112h-84c-81 0 -150 61 -150 142s69 141 150 141h194v-30h-194c-65 0 -120 -46 -120 -111s55 -112 120 -112h84c81 0 150 -61 150 -142s-69 -141 -150 -141h-194v30z" />
    <glyph glyph-name="sacute" unicode="&#x15b;" horiz-adv-x="464" 
d="M79 14l12 28c26 -10 70 -19 98 -19c119 0 195 55 195 125c0 52 -55 88 -154 105c-115 19 -180 67 -180 135c0 86 88 155 225 155c32 0 81 -9 110 -21l-12 -28c-26 10 -70 19 -98 19c-119 0 -195 -55 -195 -125c0 -52 55 -88 154 -105c115 -19 180 -67 180 -135
c0 -86 -88 -155 -225 -155c-32 0 -81 9 -110 21zM172 608l-18 24l151 109l18 -24z" />
    <glyph glyph-name="scaron" unicode="&#x161;" horiz-adv-x="464" 
d="M79 14l12 28c26 -10 70 -19 98 -19c119 0 195 55 195 125c0 52 -55 88 -154 105c-115 19 -180 67 -180 135c0 86 88 155 225 155c32 0 81 -9 110 -21l-12 -28c-26 10 -70 19 -98 19c-119 0 -195 -55 -195 -125c0 -52 55 -88 154 -105c115 -19 180 -67 180 -135
c0 -86 -88 -155 -225 -155c-32 0 -81 9 -110 21zM298 741l24 -18l-90 -115l-89 115l24 18l65 -83z" />
    <glyph glyph-name="scedilla" unicode="&#x15f;" horiz-adv-x="464" 
d="M186 -106l10 28c7 -3 15 -4 23 -4c16 0 30 5 30 20c0 7 -15 10 -32 10h-13l12 46c-11 -1 -18 -1 -27 -1c-32 0 -81 9 -110 21l12 28c26 -10 70 -19 98 -19c119 0 195 55 195 125c0 52 -55 88 -154 105c-115 19 -180 67 -180 135c0 86 88 155 225 155c32 0 81 -9 110 -21
l-12 -28c-26 10 -70 19 -98 19c-119 0 -195 -55 -195 -125c0 -52 55 -88 154 -105c115 -19 180 -67 180 -135c0 -73 -63 -134 -165 -150l-6 -19c21 -4 36 -18 36 -41c0 -35 -31 -50 -61 -50c-11 0 -22 2 -32 6z" />
    <glyph glyph-name="schwa" unicode="&#x259;" horiz-adv-x="562" 
d="M129 466l-20 22c46 40 102 58 158 58c156 0 245 -132 245 -288c0 -189 -141 -268 -235 -268c-159 0 -227 130 -227 268v15h431c-5 145 -94 243 -214 243c-49 0 -98 -16 -138 -50zM277 20c82 0 197 69 204 223h-400c4 -115 62 -223 196 -223z" />
    <glyph glyph-name="scircumflex" unicode="&#x15d;" horiz-adv-x="464" 
d="M79 14l12 28c26 -10 70 -19 98 -19c119 0 195 55 195 125c0 52 -55 88 -154 105c-115 19 -180 67 -180 135c0 86 88 155 225 155c32 0 81 -9 110 -21l-12 -28c-26 10 -70 19 -98 19c-119 0 -195 -55 -195 -125c0 -52 55 -88 154 -105c115 -19 180 -67 180 -135
c0 -86 -88 -155 -225 -155c-32 0 -81 9 -110 21zM322 626l-24 -18l-66 83l-65 -83l-24 18l89 115z" />
    <glyph glyph-name="scommaaccent" unicode="&#x219;" horiz-adv-x="464" 
d="M79 14l12 28c26 -10 70 -19 98 -19c119 0 195 55 195 125c0 52 -55 88 -154 105c-115 19 -180 67 -180 135c0 86 88 155 225 155c32 0 81 -9 110 -21l-12 -28c-26 10 -70 19 -98 19c-119 0 -195 -55 -195 -125c0 -52 55 -88 154 -105c115 -19 180 -67 180 -135
c0 -86 -88 -155 -225 -155c-32 0 -81 9 -110 21zM203 -50h60v-70c0 -17 0 -58 -47 -75l-10 28c27 9 27 34 27 47v15h-30v55z" />
    <glyph glyph-name="section" unicode="&#xa7;" horiz-adv-x="513" 
d="M274 151l-41 5c-113 14 -173 94 -173 163c0 57 45 104 110 129c-55 21 -82 55 -82 105c0 77 78 147 215 147c24 0 59 -4 79 -8l-4 -30c-20 4 -55 8 -75 8c-119 0 -185 -56 -185 -117c0 -48 44 -79 120 -90l39 -5c115 -15 176 -95 176 -164c0 -59 -46 -105 -110 -129
c55 -21 82 -55 82 -104c0 -77 -78 -147 -215 -147c-24 0 -59 4 -79 8l4 30c20 -4 55 -8 75 -8c119 0 185 56 185 117c0 46 -46 79 -121 90zM423 294c0 62 -60 121 -147 133c-13 2 -24 3 -35 3c-89 0 -151 -55 -151 -111c0 -63 60 -121 149 -133c13 -2 23 -3 34 -3
c89 0 150 54 150 111z" />
    <glyph glyph-name="semicolon" unicode=";" horiz-adv-x="184" 
d="M62 476v60h60v-60h-60zM62 60h60v-85c0 -17 0 -71 -47 -88l-10 28c27 9 27 47 27 60v25h-30v60z" />
    <glyph glyph-name="seven" unicode="7" horiz-adv-x="526" 
d="M60 670v30h409l-237 -705l-29 7l224 668h-367z" />
    <glyph glyph-name="six" unicode="6" horiz-adv-x="526" 
d="M362 702v-30c-14 1 -30 2 -44 2c-187 0 -228 -137 -228 -265v-109c36 60 102 101 178 101c115 0 208 -93 208 -208s-93 -208 -208 -208s-208 93 -208 208v216c0 144 56 295 257 295c15 0 31 -1 45 -2zM90 193c0 -98 80 -178 178 -178s178 80 178 178s-80 178 -178 178
s-178 -80 -178 -178z" />
    <glyph glyph-name="slash" unicode="/" horiz-adv-x="455" 
d="M48 -46l-28 12l387 829l28 -12z" />
    <glyph glyph-name="space" unicode=" " horiz-adv-x="325" 
 />
    <glyph glyph-name="sterling" unicode="&#xa3;" horiz-adv-x="493" 
d="M20 375h65c-7 32 -12 66 -12 101c0 128 89 224 271 224v-30c-162 0 -241 -84 -241 -194c0 -35 5 -68 12 -101h105v-30h-98c14 -58 31 -115 31 -173c0 -32 -14 -78 -34 -106c9 4 24 5 29 5c37 0 73 -10 105 -25c27 -12 63 -23 93 -23c32 0 66 9 92 34l20 -22
c-33 -31 -73 -42 -112 -42c-37 0 -75 12 -105 25s-64 23 -93 23c-16 0 -43 -12 -60 -21s-35 -18 -50 -20l-5 30c36 8 90 73 90 142c0 56 -17 113 -32 173h-71v30z" />
    <glyph glyph-name="sterling.sc" horiz-adv-x="453" 
d="M111 383c0 -29 5 -65 12 -101h78v-30h-72c6 -35 12 -70 12 -103c0 -32 -7 -58 -18 -79c7 1 10 1 15 1c37 0 63 -10 95 -25c27 -12 53 -23 83 -23c32 0 56 9 82 34l20 -22c-33 -31 -63 -42 -102 -42c-37 0 -65 12 -95 25s-54 23 -83 23c-16 0 -36 -11 -52 -21
c-15 -9 -33 -18 -48 -20l-5 30c36 8 78 50 78 119c0 26 -7 68 -13 103h-77v30h71c-6 34 -11 68 -11 101c0 88 62 153 180 153v-30c-102 0 -150 -53 -150 -123z" />
    <glyph glyph-name="t" unicode="t" horiz-adv-x="296" 
d="M254 536v-30h-158v-318c0 -109 67 -159 153 -159c6 0 14 0 23 1l4 -30c-9 -1 -19 -1 -27 -1c-102 0 -183 60 -183 189v318h-45v30h45v174h30v-174h158z" />
    <glyph glyph-name="t.alt" horiz-adv-x="452" 
d="M21 506v30h45v173h30v-173h157v-30h-157v-318c0 -99 56 -173 157 -173c68 0 113 24 155 61l18 -24c-46 -41 -100 -67 -170 -67c-123 0 -190 90 -190 205v316h-45z" />
    <glyph glyph-name="tbar" unicode="&#x167;" horiz-adv-x="311" 
d="M-34 355v30h115v121h-45v30h45v174h30v-174h158v-30h-158v-121h115v-30h-115v-167c0 -109 67 -159 153 -159c6 0 14 0 23 1l4 -30c-9 -1 -19 -1 -27 -1c-102 0 -183 60 -183 189v167h-115z" />
    <glyph glyph-name="tcaron" unicode="&#x165;" horiz-adv-x="296" 
d="M254 536v-30h-158v-318c0 -109 67 -159 153 -159c6 0 14 0 23 1l4 -30c-9 -1 -19 -1 -27 -1c-102 0 -183 60 -183 189v318h-45v30h45v174h30v-174h158zM166 750h60v-70c0 -17 0 -58 -47 -75l-10 28c27 9 27 34 27 47v15h-30v55z" />
    <glyph glyph-name="tcommaaccent" unicode="&#x163;" horiz-adv-x="296" 
d="M254 536v-30h-158v-318c0 -109 67 -159 153 -159c6 0 14 0 23 1l4 -30c-9 -1 -19 -1 -27 -1c-102 0 -183 60 -183 189v318h-45v30h45v174h30v-174h158zM139 -50h60v-70c0 -17 0 -58 -47 -75l-10 28c27 9 27 34 27 47v15h-30v55z" />
    <glyph glyph-name="thorn" unicode="&#xfe;" horiz-adv-x="514" 
d="M60 778h30v-235c12 1 23 1 35 1c226 0 339 -136 339 -273c0 -138 -113 -273 -340 -273h-34v-233h-30v1013zM125 514c-11 0 -23 0 -35 -1v-484c12 -1 23 -1 34 -1c207 0 310 121 310 243s-103 243 -309 243z" />
    <glyph glyph-name="three" unicode="3" horiz-adv-x="526" 
d="M56 -1l5 30c24 -4 43 -5 68 -5c164 0 299 74 299 187c0 68 -58 132 -143 161c-58 20 -121 23 -175 23l195 275h-224v30h282l-196 -277c42 -2 86 -8 128 -22c85 -29 163 -103 163 -190c0 -153 -183 -217 -329 -217c-24 0 -49 1 -73 5z" />
    <glyph glyph-name="threesuperior" unicode="&#xb3;" horiz-adv-x="291" 
d="M52 482l6 30c11 -2 20 -2 29 -2c62 0 124 25 124 75c0 27 -27 53 -58 64c-19 6 -55 9 -90 11l85 121h-88v30h147l-88 -124c13 -2 30 -5 44 -10c44 -15 78 -51 78 -92c0 -70 -78 -105 -154 -105c-13 0 -24 0 -35 2z" />
    <glyph glyph-name="tilde" unicode="&#x2dc;" horiz-adv-x="358" 
d="M273 706l24 -18c-18 -33 -47 -47 -71 -47c-18 0 -37 7 -56 21c-13 10 -26 16 -39 16c-15 0 -35 -11 -46 -35l-24 18c17 32 45 47 70 47c19 0 39 -8 57 -22c13 -10 26 -15 38 -15c14 0 35 10 47 35z" />
    <glyph glyph-name="trademark" unicode="&#x2122;" horiz-adv-x="617" 
d="M188 470h-30v200h-98v30h229v-30h-101v-200zM423 470l-72 135v-135h-30v254l102 -190l102 190v-254h-30v135z" />
    <glyph glyph-name="two" unicode="2" horiz-adv-x="526" 
d="M474 30v-30h-438l287 331c46 53 102 118 102 191c0 107 -93 163 -179 163c-72 0 -132 -33 -166 -100l-27 12c40 80 110 118 193 118c102 0 209 -65 209 -188c0 -89 -59 -158 -113 -220l-242 -277h374z" />
    <glyph glyph-name="twosuperior" unicode="&#xb2;" horiz-adv-x="318" 
d="M263 511v-30h-213l139 160c21 24 44 51 44 81c0 41 -36 63 -71 63c-29 0 -54 -13 -67 -40l-26 14c19 37 52 56 93 56c49 0 101 -32 101 -93c0 -39 -28 -74 -52 -101l-96 -110h148z" />
    <glyph glyph-name="u" unicode="u" horiz-adv-x="538" 
d="M60 536h30v-343c0 -103 81 -173 179 -173s179 70 179 173v343h30v-343c0 -121 -95 -203 -209 -203s-209 82 -209 203v343z" />
    <glyph glyph-name="uacute" unicode="&#xfa;" horiz-adv-x="538" 
d="M60 536h30v-343c0 -103 81 -173 179 -173s179 70 179 173v343h30v-343c0 -121 -95 -203 -209 -203s-209 82 -209 203v343zM209 608l-18 24l151 109l18 -24z" />
    <glyph glyph-name="ubreve" unicode="&#x16d;" horiz-adv-x="538" 
d="M60 536h30v-343c0 -103 81 -173 179 -173s179 70 179 173v343h30v-343c0 -121 -95 -203 -209 -203s-209 82 -209 203v343zM343 720h30c0 -50 -40 -90 -100 -90s-100 40 -100 90h30c0 -35 27 -60 70 -60s70 25 70 60z" />
    <glyph glyph-name="ucircumflex" unicode="&#xfb;" horiz-adv-x="538" 
d="M60 536h30v-343c0 -103 81 -173 179 -173s179 70 179 173v343h30v-343c0 -121 -95 -203 -209 -203s-209 82 -209 203v343zM362 626l-24 -18l-66 83l-65 -83l-24 18l89 115z" />
    <glyph glyph-name="udieresis" unicode="&#xfc;" horiz-adv-x="538" 
d="M60 536h30v-343c0 -103 81 -173 179 -173s179 70 179 173v343h30v-343c0 -121 -95 -203 -209 -203s-209 82 -209 203v343zM180 650v50h50v-50h-50zM315 650v50h50v-50h-50z" />
    <glyph glyph-name="ugrave" unicode="&#xf9;" horiz-adv-x="538" 
d="M60 536h30v-343c0 -103 81 -173 179 -173s179 70 179 173v343h30v-343c0 -121 -95 -203 -209 -203s-209 82 -209 203v343zM340 632l-18 -24l-151 109l18 24z" />
    <glyph glyph-name="uhungarumlaut" unicode="&#x171;" horiz-adv-x="538" 
d="M60 536h30v-343c0 -103 81 -173 179 -173s179 70 179 173v343h30v-343c0 -121 -95 -203 -209 -203s-209 82 -209 203v343zM294 608l-18 24l151 109l18 -24zM172 608l-18 24l151 109l18 -24z" />
    <glyph glyph-name="umacron" unicode="&#x16b;" horiz-adv-x="538" 
d="M60 536h30v-343c0 -103 81 -173 179 -173s179 70 179 173v343h30v-343c0 -121 -95 -203 -209 -203s-209 82 -209 203v343zM143 660v30h260v-30h-260z" />
    <glyph glyph-name="underscore" unicode="_" horiz-adv-x="511" 
d="M0 0v30h511v-30h-511z" />
    <glyph glyph-name="uogonek" unicode="&#x173;" horiz-adv-x="538" 
d="M305 -78l16 -26c-16 -10 -32 -15 -46 -15c-30 0 -51 19 -51 47c0 22 12 43 42 62c-112 1 -206 83 -206 203v343h30v-343c0 -103 81 -173 179 -173s179 70 179 173v343h30v-343c0 -116 -84 -192 -187 -202l9 -16c-33 -17 -46 -33 -46 -47c0 -10 9 -17 21 -17
c8 0 18 3 30 11z" />
    <glyph glyph-name="uring" unicode="&#x16f;" horiz-adv-x="538" 
d="M60 536h30v-343c0 -103 81 -173 179 -173s179 70 179 173v343h30v-343c0 -121 -95 -203 -209 -203s-209 82 -209 203v343zM206 675c0 37 30 67 67 67s67 -30 67 -67s-30 -67 -67 -67s-67 30 -67 67zM236 675c0 -20 17 -37 37 -37s37 17 37 37s-17 37 -37 37
s-37 -17 -37 -37z" />
    <glyph glyph-name="utilde" unicode="&#x169;" horiz-adv-x="538" 
d="M60 536h30v-343c0 -103 81 -173 179 -173s179 70 179 173v343h30v-343c0 -121 -95 -203 -209 -203s-209 82 -209 203v343zM367 706l24 -18c-18 -33 -47 -47 -71 -47c-18 0 -37 7 -56 21c-13 10 -26 16 -39 16c-15 0 -35 -11 -46 -35l-24 18c17 32 45 47 70 47
c19 0 39 -8 57 -22c13 -10 26 -15 38 -15c14 0 35 10 47 35z" />
    <glyph glyph-name="v" unicode="v" horiz-adv-x="526" 
d="M50 531l28 10l185 -479l185 479l28 -10l-213 -551z" />
    <glyph glyph-name="w" unicode="w" horiz-adv-x="778" 
d="M302 531l28 10l59 -153l59 153l28 -10l-71 -184l110 -285l185 479l28 -10l-213 -551l-126 326l-126 -326l-213 551l28 10l185 -479l110 285z" />
    <glyph glyph-name="w.alt" horiz-adv-x="826" 
d="M398 536h30v-344c0 -114 77 -172 154 -172s154 58 154 172v344h30v-344c0 -134 -91 -202 -184 -202c-69 0 -139 39 -169 116c-30 -77 -100 -116 -169 -116c-91 0 -184 68 -184 202v344h30v-344c0 -114 77 -172 154 -172s154 58 154 172v344z" />
    <glyph glyph-name="wacute" unicode="&#x1e83;" horiz-adv-x="778" 
d="M302 531l28 10l59 -153l59 153l28 -10l-71 -184l110 -285l185 479l28 -10l-213 -551l-126 326l-126 -326l-213 551l28 10l185 -479l110 285zM324 608l-18 24l151 109l18 -24z" />
    <glyph glyph-name="wcircumflex" unicode="&#x175;" horiz-adv-x="778" 
d="M302 531l28 10l59 -153l59 153l28 -10l-71 -184l110 -285l185 479l28 -10l-213 -551l-126 326l-126 -326l-213 551l28 10l185 -479l110 285zM480 626l-24 -18l-66 83l-65 -83l-24 18l89 115z" />
    <glyph glyph-name="wdieresis" unicode="&#x1e85;" horiz-adv-x="778" 
d="M302 531l28 10l59 -153l59 153l28 -10l-71 -184l110 -285l185 479l28 -10l-213 -551l-126 326l-126 -326l-213 551l28 10l185 -479l110 285zM298 650v50h50v-50h-50zM433 650v50h50v-50h-50z" />
    <glyph glyph-name="wgrave" unicode="&#x1e81;" horiz-adv-x="778" 
d="M302 531l28 10l59 -153l59 153l28 -10l-71 -184l110 -285l185 479l28 -10l-213 -551l-126 326l-126 -326l-213 551l28 10l185 -479l110 285zM475 632l-18 -24l-151 109l18 24z" />
    <glyph glyph-name="x" unicode="x" horiz-adv-x="554" 
d="M74 -9l-24 18l208 259l-208 259l24 18l203 -253l203 253l24 -18l-208 -259l208 -259l-24 -18l-203 252z" />
    <glyph glyph-name="y" unicode="y" horiz-adv-x="542" 
d="M446 536h30v-596c0 -120 -78 -233 -199 -233c-57 0 -107 28 -148 68l20 22c37 -36 79 -60 128 -60c103 0 169 99 169 203v107c-52 -46 -107 -67 -168 -67c-99 0 -218 71 -218 206v350h30v-352c0 -108 93 -174 187 -174c71 0 116 28 169 79v447z" />
    <glyph glyph-name="yacute" unicode="&#xfd;" horiz-adv-x="542" 
d="M446 536h30v-596c0 -120 -78 -233 -199 -233c-57 0 -107 28 -148 68l20 22c37 -36 79 -60 128 -60c103 0 169 99 169 203v107c-52 -46 -107 -67 -168 -67c-99 0 -218 71 -218 206v350h30v-352c0 -108 93 -174 187 -174c71 0 116 28 169 79v447zM202 608l-18 24l151 109
l18 -24z" />
    <glyph glyph-name="ycircumflex" unicode="&#x177;" horiz-adv-x="542" 
d="M446 536h30v-596c0 -120 -78 -233 -199 -233c-57 0 -107 28 -148 68l20 22c37 -36 79 -60 128 -60c103 0 169 99 169 203v107c-52 -46 -107 -67 -168 -67c-99 0 -218 71 -218 206v350h30v-352c0 -108 93 -174 187 -174c71 0 116 28 169 79v447zM358 626l-24 -18l-66 83
l-65 -83l-24 18l89 115z" />
    <glyph glyph-name="ydieresis" unicode="&#xff;" horiz-adv-x="542" 
d="M446 536h30v-596c0 -120 -78 -233 -199 -233c-57 0 -107 28 -148 68l20 22c37 -36 79 -60 128 -60c103 0 169 99 169 203v107c-52 -46 -107 -67 -168 -67c-99 0 -218 71 -218 206v350h30v-352c0 -108 93 -174 187 -174c71 0 116 28 169 79v447zM176 650v50h50v-50h-50z
M311 650v50h50v-50h-50z" />
    <glyph glyph-name="yen" unicode="&#xa5;" horiz-adv-x="558" 
d="M119 260v30h145v55l-214 347l26 16l203 -329l203 329l26 -16l-214 -347v-55h145v-30h-145v-58h145v-30h-145v-172h-30v172h-145v30h145v58h-145z" />
    <glyph glyph-name="yen.sc" unicode="&#xf652;" horiz-adv-x="553" 
d="M115 203v30h145v30l-210 263l22 19l203 -253l206 255l22 -21l-213 -263v-30h145v-30h-145v-58h145v-30h-145v-115h-30v115h-145v30h145v58h-145z" />
    <glyph glyph-name="ygrave" unicode="&#x1ef3;" horiz-adv-x="542" 
d="M446 536h30v-596c0 -120 -78 -233 -199 -233c-57 0 -107 28 -148 68l20 22c37 -36 79 -60 128 -60c103 0 169 99 169 203v107c-52 -46 -107 -67 -168 -67c-99 0 -218 71 -218 206v350h30v-352c0 -108 93 -174 187 -174c71 0 116 28 169 79v447zM353 632l-18 -24l-151 109
l18 24z" />
    <glyph glyph-name="z" unicode="z" horiz-adv-x="534" 
d="M50 506v30h438l-381 -506h377v-30h-438l381 506h-377z" />
    <glyph glyph-name="zacute" unicode="&#x17a;" horiz-adv-x="534" 
d="M50 506v30h438l-381 -506h377v-30h-438l381 506h-377zM211 608l-18 24l151 109l18 -24z" />
    <glyph glyph-name="zcaron" unicode="&#x17e;" horiz-adv-x="534" 
d="M50 506v30h438l-381 -506h377v-30h-438l381 506h-377zM333 741l24 -18l-90 -115l-89 115l24 18l65 -83z" />
    <glyph glyph-name="zdotaccent" unicode="&#x17c;" horiz-adv-x="534" 
d="M50 506v30h438l-381 -506h377v-30h-438l381 506h-377zM242 650v50h50v-50h-50z" />
    <glyph glyph-name="zero" unicode="0" horiz-adv-x="536" 
d="M268 715c138 0 208 -183 208 -365c0 -183 -70 -365 -208 -365c-139 0 -208 182 -208 365c0 182 69 365 208 365zM268 685c-119 0 -178 -168 -178 -335c0 -168 59 -335 178 -335c118 0 178 167 178 335c0 167 -60 335 -178 335z" />
    </font>
</defs>
</svg>
