<?xml version="1.0" encoding="utf-8"?>
<!-- Generator: Adobe Illustrator 17.0.0, SVG Export Plug-In . SVG Version: 6.00 Build 0)  -->
<!DOCTYPE svg PUBLIC "-//W3C//DTD SVG 1.1//EN" "http://www.w3.org/Graphics/SVG/1.1/DTD/svg11.dtd">
<svg version="1.1" id="Calque_1" xmlns="http://www.w3.org/2000/svg" xmlns:xlink="http://www.w3.org/1999/xlink" x="0px" y="0px"
	 width="306.041px" height="202.961px" viewBox="0 0 306.041 202.961" enable-background="new 0 0 306.041 202.961"
	 xml:space="preserve">
<ellipse cx="54.089" cy="125.413" rx="44.132" ry="40.129"/>
<g>
	<path fill="#FBBA00" d="M140.902,148.29c-3.388,0-6.999,1.221-9.388,3.388v25.275h-1.667V147.18h1.667v2.442
		c2.61-1.943,6.111-2.999,9.388-2.999V148.29z"/>
	<path fill="#FBBA00" d="M158.574,146.623c8.501,0,15.444,6.943,15.444,15.442s-6.943,15.444-15.444,15.444
		c-8.499,0-15.442-6.945-15.442-15.444S150.075,146.623,158.574,146.623z M158.574,175.842c7.612,0,13.777-6.167,13.777-13.777
		c0-7.61-6.165-13.775-13.777-13.775c-7.61,0-13.775,6.165-13.775,13.775C144.799,169.675,150.964,175.842,158.574,175.842z"/>
	<path fill="#FBBA00" d="M195.034,146.623c8.499,0,15.442,6.943,15.442,15.442s-6.943,15.444-15.442,15.444
		c-8.501,0-15.444-6.945-15.444-15.444S186.533,146.623,195.034,146.623z M195.034,175.842c7.61,0,13.775-6.167,13.775-13.777
		c0-7.61-6.165-13.775-13.775-13.775c-7.612,0-13.777,6.165-13.777,13.775C181.257,169.675,187.422,175.842,195.034,175.842z"/>
	<path fill="#FBBA00" d="M218.606,147.18v2.442c2.277-1.888,5.055-2.999,8.499-2.999c4.555,0,8.056,2.499,9.444,6.776
		c1.389-4.277,4.776-6.776,9.331-6.776c5.778,0,10.276,4.277,10.276,11.387v18.943h-1.667V158.01c0-2.167-1.278-9.72-8.61-9.72
		c-6.111,0-8.499,5.498-8.499,9.555v19.108h-1.667v-19.108c0-4.057-2.499-9.555-8.61-9.555c-3.388,0-6.332,1.389-8.499,3.444v25.218
		h-1.667V147.18H218.606z"/>
</g>
<g>
	<path fill="#FFCC00" d="M61.08,137.448c-2.752,0-5.504,1.077-5.504,3.948c0,2.035,2.035,2.991,3.948,2.991
		c2.035,0,4.427-1.316,6.7-5.264c0.24-0.12,0.719-0.12,1.316-0.12c0.479,0,0.957,0.12,1.316,0.12h0.599l-2.991-0.717
		C64.669,138.047,62.876,137.568,61.08,137.448z"/>
	<path fill="#FFCC00" d="M98.185,80.893v-1.966h-0.157c-1.306-10.036-9.867-17.792-20.258-17.792c-7.403,0-9.575,1.533-12.259,2.634
		c-2.684,1.101-8.048,4.241-12.868,4.241c-11.956,0-21.648-9.692-21.648-21.648c0-10.654,7.698-19.503,17.833-21.306
		c-0.046-0.24-0.075-6.487-0.075-6.741c0-2.148,1.742-3.89,3.89-3.89s3.89,1.742,3.89,3.89c0,0.254-0.028,6.501-0.075,6.741
		c8.605,1.531,15.433,8.148,17.305,16.629l0.5,1.4c0.695,5.633,6.29,10.433,12.11,10.433c6.286,0,11.382-6.067,11.402-12.348
		l-0.069-0.93C94.988,17.571,75.692,0,52.293,0S5.907,13.869,5.907,40.517c0,21.662,0.057,38.41,0.057,38.41v31.021v36.989
		c0,0-0.003,4.847-0.003,7.35c0,25.467,20.645,46.112,46.113,46.113c24.323,0,44.233-18.836,45.974-42.715h0.138V82.276
		c0.008-0.231,0.035-0.458,0.035-0.691S98.193,81.125,98.185,80.893z M93.264,119.503c0-0.028-0.008-0.056-0.023-0.086
		c-0.328,0.668-2.513,13.605-12.419,13.605c-1.795,0-3.471-0.479-4.905-2.273c-0.479,1.316-1.198,2.392-1.676,3.469
		c5.742,1.316,10.409,2.153,14.595,2.153c0.838,0,1.436,0,1.795-0.12c0,3.231-2.033,6.58-5.862,6.58
		c-3.351,0-8.615-1.794-13.4-3.229c-3.23,5.622-6.94,7.417-10.767,7.417c-1.198,0-7.419-0.12-7.419-6.221
		c0-6.221,7.537-7.179,9.452-7.179c1.316,0,2.273,0.12,3.349,0.12c3.231,0,3.111-1.555,4.068-3.948
		c-1.794,1.795-4.068,3.231-6.58,3.231c-2.87,0-6.221-2.991-6.221-8.733c0-0.048,0.005-0.098,0.005-0.146
		c-1.891,3.917-5.207,8.879-9.582,8.879c-2.991,0-6.222-2.991-6.222-8.733c0-4.188,1.556-9.212,3.112-13.519
		c-3.469,6.221-9.571,18.424-9.81,19.62c-0.839,2.512-2.872,2.752-3.471,2.752c-3.828,0-4.905-3.111-4.905-7.896
		c0-3.349,0.719-7.059,1.795-10.528c-4.785,10.169-7.418,18.304-10.649,18.304c-3.709,0-4.785-2.632-4.785-7.537
		c0-11.964,8.137-26.08,8.614-26.08c1.316,0,2.992,0.719,4.547,1.556c0.837,0.359,1.794,0.837,2.75,1.436
		c-2.512,5.024-10.408,16.509-10.408,24.405c7.537-13.759,12.802-21.773,14.716-23.688c0.479-0.837,0.957-1.555,1.316-2.392
		c0.719-1.316,1.196-2.512,1.556-3.589c0.359,0,5.504,3.229,5.504,5.981c0,4.547-8.973,14.236-9.333,23.808
		c13.399-24.166,17.108-23.089,18.664-29.789c0.12,0,5.384,3.229,5.384,5.742c0,4.547-8.973,15.552-8.974,23.448
		c0,1.795,0.24,3.111,1.556,3.111c2.273,0,5.862-3.111,9.093-10.408c0,0,0.067-0.016,0.145-0.06
		c1.281-6.225,4.247-12.816,5.723-15.493l2.632-6.221c0.479,0,5.624,3.11,5.623,5.861c0,3.47-8.973,15.433-8.974,23.209
		c0,2.033,0.358,3.589,2.273,3.589c2.752,0,6.938-3.708,10.17-13.877c2.872-9.57,4.426-11.006,4.785-13.04
		c2.273,1.078,5.384,3.111,5.384,6.34c0,0.838-0.24,1.795-0.837,2.872c-2.872,5.144-5.145,8.853-5.145,14.236
		c0,1.913,0.238,2.991,2.033,2.991c2.752,0,7.298-3.111,10.529-10.408c0,0,0.12,0,0.24-0.12c0.12,0,0.358,0,0.478,0.12
		c0.274,0.183,0.408,0.296,0.456,0.392c0.009-0.018,0.023-0.032,0.023-0.032v0.118H93.264z"/>
</g>
<path fill="#453B36" d="M139.988,67.409c0-2.716,1.731-6.052,5.061-6.052c2.596,0,3.713,1.977,3.713,4.2
	c0,2.842-1.982,5.805-5.061,5.805C141.105,71.363,139.988,69.512,139.988,67.409z"/>
<g>
	<path d="M143.626,71.363c3.079,0,5.061-2.963,5.061-5.805c0-2.224-1.117-4.201-3.712-4.201c-3.33,0-5.061,3.335-5.061,6.052
		C139.914,69.512,141.03,71.363,143.626,71.363z"/>
	<path d="M300.861,106.949c-4.326,11.123-10.383,19.156-16.44,25.827c3.833-21.375,8.401-46.955,9.88-52.388h-6.419l-1.489,6.917
		c-0.734-4.573-2.837-7.661-7.043-7.661c-8.04,0-14.983,13.636-18.212,27.728c-5.372,14.003-10.382,24.665-14.426,24.665
		c-1.73,0-2.958-1.237-2.958-4.573c0-10.131,8.653-29.288,8.653-39.666c0-5.066-2.354-7.908-6.308-7.908
		c-7.415,0-11.983,8.406-16.43,17.672l2.958-17.174h-6.66c-0.828,6.774-2.468,16.74-4.216,26.878
		c-5.996,15.864-10.54,24.771-14.337,24.771c-1.238,0-2.223-1.363-2.223-5.066c0-10.137,3.833-27.678,7.777-46.583h-6.54
		c-1.571,7.625-3.906,17.602-5.51,27.058c-5.965,15.509-10.728,24.711-14.889,24.711c-2.344,0-3.702-3.209-3.702-10.378
		c0-4.573,0.493-10.378,1.237-16.807c0,0,0.932-7.658,3.209-20.63h3.089h2.958h5.191l0.745-3.954h-4.447h-2.958h-3.964
		c0.695-4.036,1.207-7.317,1.63-9.958l-5.338-0.472c-0.755,2.852-1.535,6.289-2.348,10.43h-4.688l-0.745,3.954h4.699
		c0,0.367-0.131,0.614-0.131,0.986c-1.396,7.793-2.454,15.093-3.107,21.655c-6.051,15.795-10.866,25.174-15.068,25.174
		c-2.344,0-3.703-3.209-3.703-10.378c0-4.573,0.493-10.378,1.238-16.807c0,0,0.932-7.658,3.209-20.63h3.089h2.958h5.192l0.744-3.954
		h-4.447h-2.958h-3.964c0.695-4.036,1.207-7.317,1.629-9.958l-5.338-0.472c-0.755,2.852-1.535,6.289-2.348,10.43h-4.688
		l-0.744,3.954h4.698c0,0.367-0.131,0.614-0.131,0.986c-1.395,7.787-2.452,15.08-3.105,21.639
		c-6.053,16.056-10.619,25.07-14.441,25.07c-1.248,0-2.234-1.363-2.234-5.066c0-10.137,3.833-27.678,7.787-46.583h-6.55
		c-1.567,7.609-3.896,17.558-5.5,26.996c-4.979,12.811-13.622,19.603-20.217,20.945c0.744-6.057,1.73-12.481,2.968-19.151
		c5.071-8.899,21.993-43.62,21.993-63.018c0-4.698-2.475-7.294-5.554-7.294c-2.727,0-6.057,2.475-8.159,7.661
		c-6.671,16.681-19.026,77.229-19.026,104.042c0,12.234,4.326,14.825,8.894,14.825c5.675,0,10.001-7.289,10.001-15.816
		c0-6.298-2.465-13.341-8.643-18.286c6.293-2.162,11.8-7.701,16.587-16.033c-0.395,3.307-0.64,6.442-0.64,9.237
		c0,7.541,1.851,12.853,6.308,12.853c6.676,0,10.792-8.628,15.785-21.575c-0.028,0.644-0.063,1.303-0.08,1.926
		c0,12.234,1.61,19.896,7.284,19.896c5.933,0,10.549-7.149,16.546-22.096c-0.034,0.74-0.072,1.489-0.091,2.2
		c0,12.234,1.61,19.896,7.284,19.896c5.604,0,10.035-6.384,15.563-19.691c-0.221,2.33-0.356,4.554-0.356,6.591
		c0,7.541,1.851,12.853,6.308,12.853c5.476,0,9.23-5.809,13.156-15.044c-1.815,6.821-2.695,13.002-2.894,14.425h6.671l4.578-24.464
		c4.568-16.188,11.983-27.678,16.058-27.678c1.972,0,2.837,1.605,2.837,4.568c0,7.908-8.773,27.93-8.773,39.419
		c0,5.685,2.978,8.773,7.043,8.773c6.048,0,11.015-8.445,15.259-18.524c-0.106,1.438-0.167,2.844-0.167,4.192
		c0,8.522,2.234,14.206,7.425,14.206c5.926,0,10.373-7.164,13.965-16.309c-1.117,6.303-2.113,13.099-3.34,19.277
		c-8.411,8.527-16.067,15.816-16.067,25.329c0,5.559,3.089,8.773,7.415,8.773c10.262,0,12.113-20.51,14.951-36.326
		c6.922-7.169,14.337-16.188,19.519-29.655C303.205,107.568,301.726,106.949,300.861,106.949z M132.609,43.438
		c0.996,0,1.358,0.991,1.358,2.842c0,13.593-11.369,41.764-16.681,53.133C122.85,69.758,129.279,43.438,132.609,43.438z
		 M119.51,150.443c0,6.183-2.586,11.248-5.685,11.248c-2.475,0-3.582-3.954-3.582-10.131c0-4.819,0.745-11.248,1.489-18.165
		C117.407,137.967,119.51,144.638,119.51,150.443z M273.173,163.422c-0.735,4.321-2.213,6.917-4.568,6.917
		c-1.731,0-3.209-1.484-3.209-4.819c0-7.661,4.94-13.839,10.997-20.142L273.173,163.422z M269.098,131.79
		c-2.586,0-3.702-3.587-3.702-8.773c0-13.718,7.415-38.428,14.206-38.428c3.592,0,5.061,4.568,5.061,10.006
		c0,2.596-0.483,5.192-0.865,7.787C280.598,116.834,274.289,131.79,269.098,131.79z"/>
	<path d="M211.94,71.363c3.079,0,5.061-2.963,5.061-5.805c0-2.224-1.117-4.201-3.712-4.201c-3.33,0-5.061,3.335-5.061,6.052
		C208.227,69.512,209.344,71.363,211.94,71.363z"/>
</g>
</svg>
